<?xml version="1.0" standalone="no"?>
<!DOCTYPE svg PUBLIC "-//W3C//DTD SVG 1.1//EN" "http://www.w3.org/Graphics/SVG/1.1/DTD/svg11.dtd" >
<svg xmlns="http://www.w3.org/2000/svg" xmlns:xlink="http://www.w3.org/1999/xlink" version="1.1">
<metadata></metadata>
<defs>
<font id="cardoitalic" horiz-adv-x="0" >
<font-face units-per-em="2048" ascent="1638" descent="-410" />
<missing-glyph horiz-adv-x="575" />
<glyph unicode="ff" horiz-adv-x="1141" d="M308 823q0 23 -37 23h-91l9 39q139 4 148 43q2 7 6 28.5t11.5 56t24.5 92.5t43 118t63 118t87 103q113 100 263 100q113 0 167 -56q20 -22 24 -55q141 212 378 212q56 0 85 -23q47 -37 47 -65q0 -66 -52 -66q-36 0 -74.5 29.5t-60.5 43t-57 13.5t-64.5 -11t-49.5 -30 q-48 -44 -68 -118q-31 -92 -58.5 -225t-31.5 -152t-8 -41q-11 -59 -11 -66q0 -34 31 -34h128l-12 -54h-143q-17 0 -22.5 -16.5t-9.5 -36.5l-181 -854q-39 -185 -152 -354q-92 -136 -219 -193q-67 -31 -122 -31t-79.5 9t-41.5 23q-36 28 -36 56q0 66 52 66q36 0 81 -29.5 t70.5 -43t53 -13.5t52 14t45.5 36q38 41 65 107q59 170 95 352l178 877q1 3 1 8q0 21 -30 23h-327q-17 0 -22.5 -16.5t-9.5 -36.5l-181 -854q-39 -185 -153 -354q-91 -136 -218 -193q-67 -31 -122 -31t-79.5 9t-42.5 23q-35 28 -35 56q0 66 52 66q36 0 81 -29.5t70.5 -43 t53 -13.5t52 14t44.5 36q39 41 66 107q59 170 95 352l178 877q1 3 1 8zM474 934q0 -34 31 -34h324q14 0 23.5 9t11 17.5t5.5 27.5t8.5 41t8.5 42.5t12 58.5t18 84t16.5 76.5t10 47t5 24.5t2 9.5t0.5 12.5t-21 35t-51 45q-71 47 -120.5 47t-79 -11t-50.5 -30q-30 -28 -60 -98 q-40 -113 -53.5 -183.5t-22.5 -114.5q-18 -96 -18 -106z" />
<glyph unicode="fi" horiz-adv-x="1086" d="M308 823q0 23 -37 23h-91l9 39q139 4 148 43q1 7 5 26t8.5 41t8.5 42.5t9.5 47t20.5 86t40.5 123.5t62.5 127t91 113q120 111 294 111q57 0 85 -23q47 -37 47 -65q0 -66 -52 -66q-36 0 -74.5 29.5t-60.5 43t-57 13.5t-64.5 -11t-50.5 -30q-30 -28 -60 -98 q-43 -124 -68 -251t-29 -146t-8 -41q-11 -59 -11 -66q0 -34 31 -34h495l-170 -805q0 -25 24 -25q40 0 142 106q10 11 15 16l19 -19q-18 -36 -80 -87t-90 -70q-65 -43 -101 -43t-57 25.5t-21 48t1 31.5t5.5 32t14.5 69t28 130q69 310 117 537h-369q-17 0 -22.5 -16.5 t-9.5 -36.5l-181 -854q-39 -185 -153 -354q-91 -136 -218 -193q-67 -31 -122 -31t-79.5 9t-42.5 23q-35 28 -35 56q0 66 52 66q36 0 81 -29.5t70.5 -43t53 -13.5t52 14t44.5 36q39 41 66 107q59 170 95 352l178 877q1 3 1 8z" />
<glyph unicode="fl" horiz-adv-x="1094" d="M308 823q0 23 -37 23h-91l9 39q139 4 148 43q1 7 5 26t8.5 41t8.5 42.5t9.5 47t20.5 86t40.5 123.5t62.5 127t91 113q120 111 294 111q47 0 78.5 -20t45.5 -45q86 47 99 55q16 10 23 10q23 0 23 -23.5t-31.5 -168t-76 -353.5t-78 -364t-56.5 -263t-38 -179t-23.5 -110.5 t-12 -58.5t-5.5 -28v-4q0 -22 25 -22q40 0 142 106q10 11 15 16l19 -19q-20 -39 -114 -115q-106 -86 -160 -86q-30 0 -52.5 23.5t-22.5 49t3 39.5l163 761h-365q-17 0 -22.5 -16.5t-9.5 -36.5l-181 -854q-39 -185 -153 -354q-91 -136 -218 -193q-67 -31 -122 -31t-79.5 9 t-42.5 23q-35 28 -35 56q0 66 52 66q36 0 81 -29.5t70.5 -43t53 -13.5t52 14t44.5 36q39 41 66 107q59 170 95 352l178 877q1 3 1 8zM854 900q112 520 112 538.5t-20.5 45.5t-50.5 48q-67 45 -116 45t-78.5 -11t-50.5 -30q-30 -28 -60 -98q-43 -124 -68 -251t-29 -146 t-8 -41q-11 -59 -11 -66q0 -34 31 -34h349z" />
<glyph unicode="ffi" horiz-adv-x="1604" d="M308 823q0 23 -37 23h-91l9 39q141 4 148 43l18 92q36 187 135 332q78 116 202 166q64 26 117 26t84.5 -5t60.5 -17q66 -30 73 -89l20 28q8 11 15.5 20t31 36t52.5 46q37 25 45.5 29t13 7t27.5 14q67 32 173 32q57 0 85 -23q47 -37 47 -65q0 -66 -52 -66 q-36 0 -74.5 29.5t-60.5 43t-47 13.5q-44 0 -82 -15q-61 -24 -102 -124q-40 -115 -67 -242l-26 -128q-1 -8 -5 -27t-8 -41q-11 -59 -11 -66q0 -34 31 -34h495l-171 -804v-4q0 -22 25 -22q40 0 142 106q10 11 15 16l19 -19q-20 -39 -114 -115q-106 -86 -160 -86 q-30 0 -52.5 23.5t-22.5 49t3 39.5l163 762h-369q-17 0 -22.5 -16.5t-9.5 -36.5l-181 -854q-39 -185 -153 -354q-91 -136 -218 -193q-67 -31 -122 -31t-79.5 9t-42.5 23q-35 28 -35 56q0 66 52 66q36 0 81 -29.5t70.5 -43t53 -13.5t52 14t44.5 36q39 41 66 107 q59 170 95 352l178 877q1 3 1 8q0 23 -37 23h-321q-17 0 -22.5 -16.5t-9.5 -36.5l-181 -854q-39 -185 -153 -354q-91 -136 -218 -193q-67 -31 -122 -31t-79.5 9t-42.5 23q-35 28 -35 56q0 66 52 66q36 0 81 -29.5t70.5 -43t53 -13.5t52 14t44.5 36q39 41 66 107 q59 170 95 352l178 877q1 3 1 8zM474 934q0 -34 31 -34h325q14 0 23.5 9t11 17.5t5.5 27.5t8.5 41t8.5 42.5t6 29.5l18 83q14 62 25 114.5t12.5 59.5t1 19t-21 37t-50.5 46q-70 51 -119.5 51t-79 -11t-49.5 -30q-31 -28 -61 -98q-38 -109 -50 -167t-21 -103l-17 -85 q-7 -40 -7 -49z" />
<glyph unicode="ffl" horiz-adv-x="1674" d="M1354 93q0 -22 25 -22q40 0 141 106l16 16l19 -19q-20 -39 -113 -115q-107 -86 -161 -86q-30 0 -52.5 23.5t-22.5 49t3 39.5l163 761h-365q-17 0 -22.5 -16.5t-9.5 -36.5l-181 -854q-39 -185 -152 -354q-92 -136 -219 -193q-67 -31 -122 -31t-79.5 9t-41.5 23 q-36 28 -36 56q0 66 52 66q36 0 81 -29.5t70.5 -43t53 -13.5t52 14t45.5 36q38 41 65 107q59 170 95 352l178 877q1 3 1 8q0 21 -30 23h-329q-17 0 -22.5 -16.5t-9.5 -36.5l-181 -854q-39 -185 -153 -354q-91 -136 -218 -193q-67 -31 -122 -31t-79.5 9t-42.5 23 q-35 28 -35 56q0 66 52 66q36 0 81 -29.5t70.5 -43t53 -13.5t52 14t44.5 36q39 41 66 107q59 170 95 352l178 877q1 3 1 8q0 23 -37 23h-91l9 39q139 4 148 43q30 211 134 390q78 134 209 194q68 32 125 32t88.5 -5t60.5 -17q66 -30 73 -89q140 212 379 212q47 0 78.5 -20 t45.5 -45q86 47 99 55q16 10 23 10q23 0 23 -23.5t-31.5 -168t-76 -353.5t-78 -364t-56.5 -263t-38 -179t-23.5 -110.5t-12 -58.5t-5.5 -28v-4zM1383 900q112 520 112 538.5t-20.5 45.5t-50.5 48q-67 45 -116 45t-78.5 -11t-49.5 -30q-31 -28 -61 -98q-43 -124 -68 -251 t-29 -146t-8 -41q-11 -59 -11 -66q0 -34 31 -34h349zM474 934q0 -34 31 -34h326q32 11 34 23t6 31t8.5 41t8.5 42.5t14.5 68.5t21.5 99.5t17 78.5q9 42 8.5 56.5t-21 39.5t-50.5 46q-70 51 -119.5 51t-79 -11t-49.5 -30q-31 -28 -61 -98q-38 -109 -50 -167t-17 -84.5 t-9 -45.5t-8 -41q-11 -59 -11 -66z" />
<glyph unicode="fj" horiz-adv-x="1029" d="M474 934q0 -34 31 -34h427q30 0 52.5 -23.5t22.5 -49.5t-3 -39l-180 -849q-37 -178 -148 -354q-84 -136 -200 -193q-60 -31 -110 -31t-74.5 9t-41.5 23q-36 28 -36 56q0 66 52 66q36 0 74.5 -29.5t60.5 -43t45.5 -13.5t44 14t39.5 36q37 45 63 107q40 116 83.5 323 t70.5 334t45.5 216t31 145t20 90.5t12 52.5t7.5 31.5t6.5 27.5t8.5 40h-400q-17 0 -22.5 -16.5t-9.5 -36.5l-181 -854q-39 -185 -153 -354q-91 -136 -218 -193q-67 -31 -122 -31t-79.5 9t-42.5 23q-35 28 -35 56q0 66 52 66q36 0 81 -29.5t70.5 -43t53 -13.5t52 14t44.5 36 q39 41 66 107q59 170 95 352l178 877q1 3 1 8q0 23 -37 23h-91l9 39q139 4 148 43q1 7 5 26t8.5 41t8.5 42.5t9.5 47t20.5 86t40.5 123.5t62.5 127t91 113q120 111 294 111q57 0 85 -23q47 -37 47 -65q0 -66 -52 -66q-36 0 -74.5 29.5t-60.5 43t-57 13.5t-64.5 -11 t-50.5 -30q-30 -28 -60 -98q-43 -124 -68 -251t-29 -146t-8 -41q-11 -59 -11 -66z" />
<glyph unicode="&#xd;" horiz-adv-x="1024" />
<glyph unicode=" "  horiz-adv-x="575" />
<glyph unicode="&#x09;" horiz-adv-x="575" />
<glyph unicode="&#xa0;" horiz-adv-x="575" />
<glyph unicode="!" horiz-adv-x="632" d="M407 106q-14 -66 -29 -88q-32 -45 -94 -45q-49 0 -61 75q-3 19 -3 38t10 39.5t26 36.5q33 35 76 35q75 0 75 -91zM499 1420q5 31 30 32l108 -5q11 -1 23.5 -4t12.5 -12.5t-1 -13.5l-276 -1039h-59z" />
<glyph unicode="&#x22;" horiz-adv-x="816" d="M225 856l48 494q4 48 28 69q41 33 76.5 33t55 -19.5t19.5 -34.5q0 -26 -3 -33l-164 -509h-60zM589 856l48 494q4 48 28 69q41 33 76.5 33t55 -19.5t19.5 -34.5q0 -26 -3 -33l-164 -509h-60z" />
<glyph unicode="#" horiz-adv-x="1373" d="M342 1065h272l101 473h127l-101 -473h252l101 473h127l-101 -473h273l-29 -121h-270l-72 -350h276l-28 -121h-275l-106 -508h-133l108 508h-248l-106 -508h-133l108 508h-270l31 121h266l76 350h-279zM643 594h248l74 350h-250z" />
<glyph unicode="$" horiz-adv-x="1049" d="M600 1276q84 -13 140 -34l43 201h58l-48 -223q209 -96 209 -222q0 -26 -19.5 -45.5t-47 -19.5t-48 26t-38 62t-33.5 73q-18 41 -37 60l-104 -488q12 -12 38 -33t63 -61t66 -84q62 -98 62 -180.5t-30.5 -141.5t-81.5 -100q-104 -84 -263 -88l-39 -187h-58l40 189 q-99 9 -141 26l-46 -215h-56l50 236q-155 70 -211 187q-19 40 -19 71t7 45t18 24q23 21 51.5 21t43 -14t22 -37t11.5 -53t13 -62q23 -80 77 -122l127 597q-179 174 -179 309q0 116 92 195q86 75 212 88l36 167h56zM589 529q-30 28 -61.5 55.5t-62.5 56.5l-124 -585 q33 -17 63 -24q41 -11 77 -13zM730 1193q-51 27 -89.5 31.5t-49.5 6.5l-85 -400q39 -45 121 -122zM538 22q89 13 152 74q72 68 72 142t-35.5 131t-90.5 113zM535 1230q-71 -8 -116 -56q-46 -50 -46 -123q0 -40 17 -69q21 -36 71 -100z" />
<glyph unicode="%" horiz-adv-x="1745" d="M1707 1498h130l-1408 -1553h-129zM1566 817q51 0 89.5 -23t62.5 -62q46 -75 46 -203q0 -185 -112 -364q-73 -117 -172 -166q-50 -25 -102 -25t-86.5 25.5t-56.5 68.5q-43 84 -43 212q0 168 117 350q120 187 257 187zM1272 178q0 -169 124 -169q89 0 160 113 q88 141 116 378q7 63 7 105.5t-2.5 73t-13.5 53.5q-24 50 -84 50t-102.5 -31t-75.5 -81.5t-57.5 -115t-39.5 -132.5q-32 -137 -32 -244zM636 1379q51 0 89.5 -23t62.5 -62q46 -75 46 -203q0 -185 -112 -364q-73 -117 -172 -166q-50 -25 -102 -25t-86.5 25.5t-56.5 68.5 q-43 84 -43 212q0 168 117 350q120 187 257 187zM342 740q0 -169 124 -169q89 0 160 113q88 141 116 378q7 63 7 105.5t-2.5 73t-13.5 53.5q-24 50 -84 50t-102.5 -31t-75.5 -81.5t-57.5 -115t-39.5 -132.5q-32 -137 -32 -244z" />
<glyph unicode="&#x26;" horiz-adv-x="1548" d="M1221 645.5q-30 -2.5 -49.5 -2.5t-19.5 -12q0 -4 7 -14t18.5 -27.5t22.5 -41.5q24 -54 24 -120.5t-27 -125.5t-72 -107t-105 -85t-126 -62q-133 -51 -261 -51q-211 0 -389 89q-134 68 -194 193q-30 64 -30 137.5t20 133t56 109.5q77 105 199 145q33 11 55 13t26 4.5t4 11 t-3.5 13t-10 8.5t-15.5 9.5t-27.5 22.5t-39.5 40.5t-36 49.5q-33 56 -33 119.5t25 114.5t66.5 90.5t95.5 68.5t112 47q114 37 223 37q124 0 237 -47q146 -61 146 -174q0 -29 -19 -51.5t-48 -22.5t-46.5 11t-28.5 29q-17 24 -27 71.5t-33.5 70t-53.5 36.5q-54 24 -127.5 24 t-137 -28.5t-107.5 -79.5q-91 -104 -91 -265q0 -106 69 -135q31 -14 72.5 -16.5t76.5 -5.5t44 -11.5t9 -24.5t-9 -24t-21 -13q-22 -9 -70 -9q-148 0 -214.5 -35t-105 -114t-38.5 -178.5t33 -170.5t90 -124q123 -116 296 -116q172 0 347 104q118 71 168 168q26 51 26 108.5 t-18.5 98.5t-51.5 67q-64 52 -178 52q-86 0 -136 -35q-18 -13 -18 -31t7.5 -29t16.5 -21q23 -30 23 -49.5t-14 -36.5t-35.5 -17t-36.5 8t-25 21q-22 28 -22 77.5t35 93t87 71.5q102 57 216 57l256 -11q147 0 147 58q0 19 -11 32q-19 24 -19 44.5t19 35.5t39 15t31.5 -8 t19.5 -21q16 -24 16 -63.5t-22 -72t-56 -55t-75.5 -36t-79.5 -20.5t-68 -9.5z" />
<glyph unicode="'" horiz-adv-x="452" d="M225 856l48 494q4 48 28 69q41 33 76.5 33t55 -19.5t19.5 -34.5q0 -26 -3 -33l-164 -509h-60z" />
<glyph unicode="(" horiz-adv-x="681" d="M867 1722q10 10 16 10t12 -7t11 -17q10 -23 10 -31q0 -11 -11 -25q-415 -496 -537 -1037q-43 -191 -43 -381q0 -371 136 -678q2 -4 2 -11.5t-6 -18.5t-15 -22q-22 -28 -34.5 -28t-17.5 10q-190 380 -190 751q0 406 180 797q171 374 487 688z" />
<glyph unicode=")" horiz-adv-x="675" d="M412 1725q9 7 14 7t13 -10q201 -322 201 -754q0 -403 -183 -798q-176 -381 -492 -684q-7 -6 -9 -8t-7.5 -2t-12 7t-10.5 17q-11 23 -11 31q0 14 11 25q589 687 589 1429q0 344 -144 667q-2 4 -2 12q0 30 43 61z" />
<glyph unicode="*" horiz-adv-x="801" d="M863 1317l7 -44l-243 -78l72 -245l-39 -19l-148 208l-212 -144l-32 30l155 205l-204 156l18 41l244 -81l85 242l45 -7l-3 -256z" />
<glyph unicode="+" horiz-adv-x="1162" d="M265 689h375v389h127v-389h370v-127h-370v-385h-127v385h-375v127z" />
<glyph unicode="," horiz-adv-x="378" d="M7 -382q-27 0 -27 32q0 15 28 32.5t62 41t61 52.5q61 67 61 149q0 36 -20 75q-39 72 -39 107q0 20 13 44q44 75 112 37q42 -23 56 -58t14 -84t-23.5 -116.5t-64.5 -125.5q-82 -113 -223 -183q-6 -3 -10 -3z" />
<glyph unicode="-" horiz-adv-x="926" d="M861 579l-32 -152h-704l32 152h704z" />
<glyph unicode="." horiz-adv-x="357" d="M301.5 142q5.5 -16 5.5 -36.5t-8 -45t-23 -44.5q-32 -43 -66.5 -43t-49.5 11.5t-24 27.5q-16 30 -16 61.5t9 52t23 36.5q33 37 60 37t44 -7.5t28.5 -20.5t17 -29z" />
<glyph unicode="/" horiz-adv-x="1018" d="M898 1452h130l-719 -1479h-129z" />
<glyph unicode="0" horiz-adv-x="1049" d="M772 1379q80 0 141.5 -38t100.5 -103q72 -124 72 -339q0 -196 -82 -411q-135 -351 -368 -473q-80 -42 -162.5 -42t-137.5 43t-90 114q-68 138 -68 354q0 181 88 394q86 210 218 350q142 151 288 151zM305 314q0 -282 197 -282q205 0 340 380q109 308 109 626 q0 143 -21 190t-56 69.5t-96.5 22.5t-114.5 -29.5t-97.5 -81t-81 -120.5t-65.5 -148t-50.5 -163.5t-35.5 -167.5q-28 -164 -28 -296z" />
<glyph unicode="1" horiz-adv-x="1049" d="M842 8q0 -8 -9 -8h-602q-7 0 -7 6l5 26q2 9 68.5 11.5t94.5 4.5q54 5 73.5 14.5t26 27.5t12.5 47l221 1065q1 2 -24.5 -16t-68.5 -45q-114 -73 -202 -111l-7 -1q-6 0 -10 12.5t-4 14t23.5 15.5t74.5 49t107 77q130 97 218 182h56q16 0 16 -11q0 -5 -1 -8l-249 -1199 q-10 -50 -10 -71q0 -50 197 -50q6 0 6 -5z" />
<glyph unicode="2" horiz-adv-x="1049" d="M-14 0q-4 0 -4 14q0 50 216 226q92 75 185 150.5t179.5 151t153.5 152.5q148 168 148 309q0 103 -63 177q-66 77 -163 77q-77 0 -164 -41q-118 -57 -189 -177q-17 -29 -25 -48.5t-14 -22.5q-15 -9 -30.5 -9t-15.5 7q5 25 40 89q71 130 124 174.5t98.5 72.5t89.5 45 q81 32 165 32t144.5 -22.5t102.5 -62.5q85 -84 85 -221q0 -166 -133 -314q-96 -106 -362 -296q-99 -72 -219 -174q-171 -145 -173 -154h563q73 0 111 41q26 27 72 127h38l-99 -270q-9 -23 -29 -33h-832z" />
<glyph unicode="3" horiz-adv-x="1049" d="M531 671q-14 0 -14 18q0 17 63 55q141 97 195 151q115 115 115 219q0 64 -50 110q-48 45 -116 45t-122 -24t-96 -57q-55 -44 -118 -126q-1 -1 -7 -1t-18.5 5.5t-11.5 10.5q54 107 181 201q137 101 259.5 101t190.5 -49.5t68 -136.5q0 -146 -170 -281q-54 -43 -122 -79 q154 0 228 -92q58 -73 58 -165.5t-29 -167.5t-78 -140.5t-112.5 -120t-132.5 -93.5q-146 -81 -269 -81t-183.5 19t-87.5 36q-60 39 -60 103q0 32 27 49.5t53 17.5t44.5 -12t38.5 -30t42.5 -39.5t49.5 -39.5q63 -42 125.5 -42t113.5 21.5t94.5 58.5t79 85.5t60.5 101.5 q53 111 53 191.5t-16 119.5t-43 64q-52 48 -133 48q-43 0 -86 -20.5t-52.5 -27t-11.5 -6.5z" />
<glyph unicode="4" horiz-adv-x="1049" d="M605 -22q83 391 83 403t-7.5 13.5t-29.5 1.5h-497q-21 0 -21 10q0 20 10 33l814 917q20 23 39 23t29.5 -2t10.5 -16q-2 -9 -6.5 -32.5t-15 -74t-29.5 -142.5q-26 -125 -75 -359t-49 -240.5t17 -6.5h167q28 0 28 -13l-15 -73q-6 -24 -25 -24h-182q-11 0 -13.5 -2.5 t-5.5 -16.5l-82 -392q-4 -22 -21 -22h-108q-16 0 -16 15zM280 524q-6 -7 -6 -12.5t30 -5.5h388q18 0 26 20q29 140 49 237t33 160t20.5 98t11.5 52q4 22 4 27q0 19 -19 19q-9 0 -33 -21l-495 -563q-3 -4 -9 -11z" />
<glyph unicode="5" horiz-adv-x="1049" d="M393.5 693.5q-31.5 -14.5 -57.5 -30t-33.5 -15.5t-7.5 7t172 683h509q47 0 63 24l11 17h41l-59 -169h-525q-21 0 -22 -7l-94 -372q-1 -5 -1 -11q33 29 114.5 42t132 13t113 -17t114.5 -60q117 -98 117 -305q0 -153 -106 -279q-93 -112 -243 -178q-140 -63 -267 -63 q-131 0 -215 47q-56 31 -56 78q8 35 35.5 56.5t58 21.5t58.5 -23.5t56 -52t57.5 -52t80 -23.5t106 22.5t100 60.5t78 86t55.5 99q44 102 44 173.5t-14.5 111t-38.5 67t-54 44.5t-61 27q-54 16 -103.5 16t-88 -12t-70 -26.5z" />
<glyph unicode="6" horiz-adv-x="1049" d="M1173 1377q16 0 16 -10.5t-24 -26t-57.5 -32t-68 -32.5t-58.5 -30.5t-64.5 -40t-85.5 -57t-91 -67t-84 -72.5q-87 -83 -101 -142q8 0 19.5 5t27.5 11q43 16 108 16t132.5 -27.5t115.5 -75.5q98 -101 98 -258q0 -145 -81 -279q-120 -199 -336 -267q-69 -21 -148 -21 t-142.5 32t-105.5 87q-83 107 -83 253.5t32.5 249.5t90 191t138 162.5t175.5 139.5q152 103 424 238q106 53 153 53zM427 47q40 -23 101.5 -23t112.5 26t91 70t69 100.5t49 117.5q37 117 37 204.5t-12 136t-39 84.5q-59 77 -182 77q-103 0 -184 -90q-109 -121 -142 -332 q-9 -63 -9 -118t10 -104t34 -87.5t64 -61.5z" />
<glyph unicode="7" horiz-adv-x="1049" d="M1097 1338q22 0 22 -19q0 -23 -33 -102l-528 -1244h-112l5 23l486 1165q0 15 -15 15h-575q-20 0 -40.5 -16t-30.5 -34l-86 -154q-8 -18 -21 -18q-22 0 -22 10q1 5 5 15t12 31t23 60t37 99l56 148q13 21 21 21h796z" />
<glyph unicode="8" horiz-adv-x="1049" d="M922.5 513q16.5 -45 18 -114t-34 -148.5t-94.5 -140.5q-132 -136 -301 -136q-211 0 -281 184q-24 63 -24 123.5t13 95t34 66.5q57 86 149 146q85 54 107 71t22 23.5t-15 24.5t-40 51t-44 67q-42 77 -42 158.5t32.5 154t87.5 125.5q118 115 282 115q116 0 195 -68t79 -178 q0 -111 -112 -240q-100 -116 -197 -154q89 -89 119 -135t46.5 -91zM782 230.5q15 42.5 15 78t-10 67.5t-27 68t-39.5 72t-48.5 65q-59 66 -106 66q-21 0 -41 -20t-40.5 -38t-52 -52t-55.5 -77q-53 -97 -53 -228q0 -146 114 -198q36 -16 69.5 -16t61.5 8.5t59 25.5t61 42.5 t54 59.5t39 76.5zM858 1322q-32 15 -80.5 15t-94.5 -21.5t-80 -57.5q-74 -78 -74 -181q0 -105 105 -217q65 -70 76.5 -73.5t23.5 -3.5q20 0 53.5 28t64.5 67.5t53 83.5q47 96 47 184q0 133 -94 176z" />
<glyph unicode="9" horiz-adv-x="1049" d="M46 -29q-7 0 -7 9q0 20 34 32.5t96.5 40t132.5 64.5t141 81t131 92q134 107 158 199q0 4 -8 4q-55 -13 -107.5 -25.5t-120.5 -12.5t-127.5 28.5t-99.5 76.5q-79 95 -79 243q0 136 74 271q72 131 193 216q126 89 266 89q181 0 285 -116q99 -110 99 -284q0 -282 -233 -552 q-210 -243 -498 -373q-183 -83 -330 -83zM933 1058q0 268 -211 268q-161 0 -261 -156q-94 -147 -94 -377q0 -188 124 -257q42 -24 107 -24t119.5 26t93 69t62.5 99.5t37 117.5q23 107 23 234z" />
<glyph unicode=":" horiz-adv-x="610" d="M361.5 142q5.5 -16 5.5 -36.5t-8 -45t-23 -44.5q-32 -43 -66.5 -43t-49.5 11.5t-24 27.5q-16 30 -16 61.5t9 52t23 36.5q33 37 60 37t44 -7.5t28.5 -20.5t17 -29zM519.5 872q5.5 -16 5.5 -36.5t-8 -45t-23 -44.5q-32 -43 -66.5 -43t-49.5 11.5t-24 27.5q-16 30 -16 61.5 t9 52t23 36.5q33 37 60 37t44 -7.5t28.5 -20.5t17 -29z" />
<glyph unicode=";" horiz-adv-x="593" d="M502.5 872q5.5 -16 5.5 -36.5t-8 -45t-22 -44.5q-33 -43 -67.5 -43t-49.5 11.5t-24 27.5q-16 30 -16 61.5t9 52t24 36.5q32 37 59 37t44 -7.5t28.5 -20.5t17 -29zM47 -382q-27 0 -27 32q0 15 28 32.5t62 41t61 52.5q61 67 61 149q0 36 -20 75q-39 72 -39 107q0 20 13 44 q29 49 60 49t51.5 -11.5t36.5 -30.5q34 -39 34 -100t-23.5 -128.5t-64.5 -125.5q-82 -113 -223 -183q-6 -3 -10 -3z" />
<glyph unicode="&#x3c;" horiz-adv-x="983" d="M445 626l508 -303v-154l-703 418v72l703 411v-149z" />
<glyph unicode="=" horiz-adv-x="1160" d="M1135 859v-127h-870v127h870zM1135 519v-127h-870v127h870z" />
<glyph unicode="&#x3e;" horiz-adv-x="980" d="M250 921v149l700 -414v-71l-700 -416v154l505 303z" />
<glyph unicode="?" horiz-adv-x="867" d="M431 1233q-43 0 -43 73q0 101 112 112q32 3 82.5 3t106.5 -27t95 -73q83 -96 83 -216t-28.5 -185.5t-78.5 -112.5t-117 -86.5t-144 -91.5q-69 -47 -107 -215q-8 -39 -18 -66h-39q0 274 79 378q62 83 169 142q136 75 172 123.5t36 101.5t-20 85t-51 53q-61 41 -142 41 q-29 0 -62 -14q-61 -25 -85 -25zM397 106q-14 -66 -29 -88q-32 -45 -94 -45q-49 0 -61 75q-3 19 -3 38t10 39.5t26 36.5q33 35 76 35q75 0 75 -91z" />
<glyph unicode="@" horiz-adv-x="1876" d="M1122 276.5q4 16.5 5 33.5t-7 17t-22 -10.5t-39.5 -33.5t-57.5 -51t-67.5 -58t-69.5 -54q-77 -57 -113 -57t-58.5 30t-34.5 71q-20 70 -20 135q0 208 158 399q151 180 371 255q109 37 222 37q17 0 17 -28l-151 -692l-2 -16q-2 -14 -2 -25q0 -60 34 -92.5t90 -32.5 t109.5 27t100.5 73t85.5 107t65.5 128q58 140 58 269.5t-42 244.5t-126 204q-184 194 -505 205q-234 -6 -429 -136q-186 -124 -296 -332q-111 -209 -111 -448q0 -179 63.5 -329t175.5 -258t265 -168.5t311.5 -60.5t275 38.5t210.5 109.5q186 140 288 395h77 q-161 -417 -548 -560q-130 -48 -282 -58q-257 0 -467 115q-205 113 -323 314q-121 207 -121 462q0 257 121 488q120 228 323 362q215 141 467 141q349 0 556 -217q191 -200 191 -484q0 -203 -86 -374q-77 -155 -208 -248q-126 -89 -260 -89q-140 0 -188 51q-22 24 -22 62.5 t3 61.5t7 41.5t8 35zM1245 860q0 16 -38 16t-89 -13.5t-98 -38.5q-173 -91 -222 -308q-21 -94 -23.5 -151t-0.5 -84t10 -51q20 -56 74 -56q72 37 155.5 112t132.5 119z" />
<glyph unicode="A" horiz-adv-x="1558" d="M-20 12q0 28 21 28h22q38 0 58 14.5t70 80t139.5 181.5t180 234t180 235t172 224.5t155 202t105.5 137.5t48.5 55.5t38.5 12.5h26q29 0 37 -15.5t9 -38.5l29 -1213q3 -84 103 -104q27 -6 52 -6h44q13 0 13 -15v-11q0 -14 -14 -14h-621q-14 0 -14 11v19q0 10 25 10t52.5 2 t46.5 6q72 12 94 41t30 55q12 38 12 108l-7 288v18q0 44 -53 44h-402q-40 0 -65 -34q-51 -69 -103.5 -136t-84.5 -109.5t-45 -60.5t-24 -37q-25 -43 -25 -86t37.5 -71t98.5 -28h49q13 0 13 -11q-4 -25 -9.5 -27t-15.5 -2h-459q-19 0 -19 12zM1083 727l-11 448q0 27 -10 27 q-11 -1 -30 -27t-59 -79t-88 -114q-106 -136 -151 -195.5t-50 -66t-10 -13.5q-13 -18 -13 -24t5 -6h369q22 0 35 13.5t13 36.5z" />
<glyph unicode="B" horiz-adv-x="1306" d="M654 -1l-180 1h-337.5t-115.5 3t-1 5l7 34q4 8 21 8t49.5 3.5t61.5 16.5q67 30 83 106l224 1055q5 23 5 49.5t-11.5 43t-31.5 24.5q-28 10 -105 10h-68q-7 0 -7 9l8 33q0 10 9 10h575q311 0 424 -170q41 -61 41 -132t-21 -114t-53.5 -76.5t-70 -58t-70.5 -40t-56 -23.5 t-25 -9q256 -159 256 -343q0 -191 -107 -302q-139 -143 -458 -143h-46zM566 769q-23 0 -31 -36q-28 -130 -47 -219.5t-31.5 -148t-19.5 -91.5t-11 -49q-4 -21 -4 -40.5t21 -47.5t55 -49q70 -42 160 -42t165.5 30t130.5 83q118 112 118 290q0 140 -92 229q-92 91 -236 91 h-178zM564 874q-1 -4 -1 -14q0 -24 28 -28q64 -6 143.5 -6t156.5 23t129 59q103 74 103 176q0 189 -135 252q-48 22 -112.5 22t-103 -0.5t-62.5 -5.5q-44 -8 -52 -40z" />
<glyph unicode="C" horiz-adv-x="1531" d="M1299 20l-83 12q-67 0 -142 -22q-140 -40 -211 -40t-158.5 12.5t-172.5 42t-161.5 78.5t-134.5 122q-126 159 -126 404q0 235 147 433q134 180 358 286q217 104 445 104q127 0 240 -21t164 -38q117 -39 117 -95q0 -73 -30.5 -167t-40.5 -116t-21 -22q-20 0 -23 17 q-3 51 -6.5 101.5t-25.5 93.5t-58 76.5t-80 57.5q-94 51 -193.5 51t-200.5 -28.5t-191 -80.5t-166 -124t-131 -159q-118 -186 -118 -393q0 -245 148 -407q154 -167 401 -167q159 0 301 105q124 92 171 215q7 19 15.5 31.5t25.5 12.5q35 0 35 -17q-1 -2 -1.5 -6.5t-2.5 -16.5 t-6.5 -34.5t-13 -60.5t-21 -94.5t-22 -99.5t-15 -44.5t-12.5 -1.5z" />
<glyph unicode="D" horiz-adv-x="1619" d="M235 1400q0 10 10 10h578q306 0 529 -132q166 -99 232 -262q35 -84 35 -190t-23 -207.5t-73 -193.5t-128 -169.5t-189 -134.5q-236 -121 -584 -121h-615q-7 0 -7 8l7 34q4 8 21 8t49.5 3.5t61.5 16.5q67 30 83 106l225 1055q5 23 5 50t-12 43.5t-33 23.5q-29 11 -109 11 h-63q-7 0 -7 8zM409 221q-2 -10 -2 -32.5t21 -50t54 -46.5q71 -40 161 -40q123 0 235.5 36.5t182.5 74.5t136 95t117 138q113 179 113 435q0 370 -359 487q-143 47 -329 47q-45 0 -68 -10.5t-30 -42.5z" />
<glyph unicode="E" horiz-adv-x="1360" d="M1257 311q0 -12 -25 -69t-42 -110t-28 -82t-24 -39.5t-41 -10.5h-1090q-7 0 -7 8l5 24q4 8 24.5 8t50 4.5t52.5 19.5q49 32 67 119q43 201 75.5 353.5t57 264.5t41 188t27.5 126t17 77.5t9 42.5q3 21 3 42.5t-19.5 41t-49.5 31.5q-52 20 -125 20q-6 0 -6 8l5 24q2 8 10 8 h1046q23 0 36.5 -4.5t13.5 -16t-0.5 -17.5t-4.5 -31q-4 -27 -33 -238q-2 -14 -16 -14q-28 0 -32 23q-3 15 -3 34.5t-3.5 45t-17.5 58t-37 55.5q-50 50 -127 50h-367q-55 0 -65 -8q-13 -10 -23 -57l-105 -500q-2 -8 -2 -12q0 -25 42 -25h367q65 0 127 47q47 37 79 96 q7 13 17 13h17q9 0 9 -7t-0.5 -7t-0.5 -2l-80 -373q-4 -21 -20 -21q-11 0 -14.5 3.5t-5.5 16.5t-2.5 30t-6.5 41.5t-19.5 42.5t-32.5 28q-34 17 -98 17h-361q-8 0 -23 -7t-21 -26t-9.5 -37.5t-15.5 -70.5t-27 -128t-26 -125q-15 -68 -15 -109.5t16.5 -64t45.5 -33.5 q42 -16 141 -16t164.5 4t114.5 12.5t85.5 23t67.5 35.5q42 30 90 79t59 62.5t22 24.5q26 28 46.5 28t20.5 -19z" />
<glyph unicode="F" horiz-adv-x="1351" d="M503 779q0 -26 41 -26h370q99 0 174 93q20 25 29 44t20 19h11q15 0 15 -10q0 -1 -0.5 -3t-2.5 -13t-7 -34t-13 -65q-56 -269 -61.5 -277t-17 -8t-14.5 5q-6 9 -7 35.5t-7 51t-19.5 42.5t-33.5 28q-33 17 -97 17h-365q-36 0 -45 -30q-3 -8 -9.5 -39.5t-16 -76t-20.5 -97.5 t-22 -105q-40 -187 -40 -210.5t17.5 -41.5t44.5 -26q37 -12 124 -12q6 0 6 -8l-5 -24q-3 -8 -9 -8h-536q-7 0 -7 8l5 24q4 8 24.5 8t50 4.5t52.5 19.5q49 32 67 119q43 201 75.5 354.5t57 267t41 191.5t27 129.5t16.5 79.5t8 42q4 20 4 24q0 99 -192 99q-6 0 -6 8l5 24 q2 8 10 8h1046q25 0 37.5 -3t12.5 -14.5t-1 -15.5l-56 -263q-6 -25 -20 -25q-26 0 -30 23q-3 15 -3 34.5t-3.5 45t-17.5 58t-37 55.5q-50 50 -129 50h-339q-59 0 -71 -9q-15 -12 -27 -66l-103 -490q-1 -4 -1 -11z" />
<glyph unicode="G" horiz-adv-x="1625" d="M1477 122q18 0 18 -11q0 -34 -65 -55q-114 -38 -413 -72q-102 -11 -138 -11q-342 0 -554 179q-225 189 -225 522q0 208 142 395q132 172 337 278q204 105 393 105q204 0 271.5 -10.5t104.5 -19.5q104 -25 151.5 -44.5t52.5 -25.5q15 -20 22 -119t7 -148t-16 -49 t-24.5 4.5t-13 13t-7 19.5t-21.5 52.5t-57.5 99t-91.5 97.5q-108 83 -293 83q-187 0 -365 -108q-172 -105 -280 -276q-111 -178 -111 -373q0 -271 133 -436q142 -176 404 -176q230 0 337 70q44 28 54 74l49 221q3 12 3 28t-11.5 32.5t-29.5 26.5q-37 22 -76.5 22t-39.5 18 t29 18h119l196 -1h101t45 -20q0 -15 -37.5 -15t-67 -26.5t-36.5 -57t-14 -64t-14.5 -68t-14.5 -68t-10.5 -49t-3.5 -21.5q0 -34 61 -34z" />
<glyph unicode="H" horiz-adv-x="1626" d="M1409 1274q0 96 -170 96q-6 0 -6 8l5 24q2 8 10 8h521q6 0 6 -8l-5 -24q-2 -8 -23.5 -8t-51.5 -4.5t-53 -19.5q-50 -31 -68 -119l-226 -1067q-4 -16 -4 -40t18 -42t46 -26q38 -12 122 -12q6 0 6 -8l-5 -24q-3 -8 -9 -8h-536q-7 0 -7 8l5 24q4 8 24.5 8t50 4.5t52.5 19.5 q49 32 69.5 128.5t36 169.5t26 121.5t16 76t7.5 42.5q4 20 4 25q0 61 -52 61h-663q-50 0 -69 -76q-11 -48 -37 -172t-36 -171t-15.5 -74t-7.5 -41q-4 -18 -4 -37t18 -37.5t46 -27.5q36 -12 121 -12q6 0 6 -8l-5 -24q-3 -8 -9 -8h-536q-7 0 -7 8l5 24q4 8 24.5 8t50 4.5 t52.5 19.5q49 32 67 119l227 1067q4 16 4 27q0 93 -166 93q-10 0 -10 10l5 22q2 8 10 8h521q6 0 6 -8l-5 -24q-2 -8 -23.5 -8t-51.5 -4.5t-53 -19.5q-49 -32 -68.5 -127t-35 -166t-25.5 -118.5t-15.5 -74t-8.5 -39.5t-4 -17q-3 -12 -3 -18q0 -22 31 -22h712q36 0 58.5 104.5 t36.5 170.5t23 109.5t14 67.5t8 36q3 18 3 22z" />
<glyph unicode="I" horiz-adv-x="667" d="M450 1275q0 95 -170 95q-6 0 -6 8l5 24q2 8 10 8h521q6 0 6 -8l-5 -24q-2 -8 -23.5 -8t-51 -4.5t-52.5 -19.5q-50 -31 -68 -119l-227 -1067q-4 -16 -4 -40t18 -42t46 -26q38 -12 122 -12q6 0 6 -8l-5 -24q-3 -8 -9 -8h-536q-7 0 -7 8l5 24q4 8 24.5 8t50 4.5t52.5 19.5 q50 31 68 119q43 202 75.5 355t57 266.5t41 191t27.5 128.5t17 79t8 43q4 21 4 29z" />
<glyph unicode="J" horiz-adv-x="678" d="M-425 -608q0 69 69 87q19 5 42.5 5t55 -7.5t62.5 -16.5q82 -25 116.5 -25t61.5 9.5t50.5 40t46 86t47.5 147.5t55 226t69.5 320t90 430t86 412.5t35.5 189t-12 36.5t-34 24q-35 14 -125 14q-6 0 -6 8l5 24q2 8 10 8h521q6 0 6 -8l-5 -24q-2 -8 -23.5 -8t-51 -4.5 t-53.5 -19.5q-49 -31 -67 -119q-62 -293 -106 -503t-75 -355.5t-50.5 -237.5t-31.5 -148.5t-19.5 -88.5t-18.5 -76.5t-34.5 -106.5t-58.5 -118.5t-82 -105t-109 -83.5q-133 -76 -300 -76t-167 64z" />
<glyph unicode="K" horiz-adv-x="1556" d="M1496 40q9 0 9 -12v-18q0 -10 -13 -10h-343q-13 16 -48 58t-82 99t-102.5 123t-110 131.5t-104 125t-70 84t-28 33.5t-15.5 17q-19 19 -33.5 19t-36.5 -17.5t-32 -55.5l-98 -457q-4 -16 -4 -40t18 -42t46 -26q38 -12 122 -12q6 0 6 -8l-5 -24q-3 -8 -9 -8h-536q-7 0 -7 8 l5 24q4 8 24.5 8t50 4.5t52.5 19.5q49 32 67 119l232 1088q2 10 2 25t-19.5 31.5t-47.5 26.5q-47 16 -106 16q-6 0 -6 8l5 24q2 8 10 8h521q6 0 6 -8l-5 -24q-2 -8 -23.5 -8t-51 -4.5t-52.5 -19.5q-50 -31 -71 -130.5t-37.5 -176.5t-27 -126.5t-16.5 -76.5l-8 -40 q-5 -27 2 -27t27 13.5t45 30.5t47.5 33t41 29t34 25t53 39t83.5 60t96.5 69t96 68.5t82.5 58.5t54 38t27 20t16 17q11 16 11 48.5t-13 42t-44 9.5h-35q-18 0 -18 13v16q0 11 17 11h497q12 0 12 -11v-17q0 -12 -26.5 -12t-49 -4.5t-42.5 -12t-42 -17.5t-47.5 -20t-52 -24 t-64.5 -38q-66 -43 -145 -101.5t-105 -77.5t-62 -44.5t-77.5 -55.5t-81.5 -58.5t-74 -52.5t-53.5 -38.5t-19.5 -19.5q0 -11 10 -24q12 -15 49 -59t91.5 -110t112.5 -135q166 -199 201 -239.5t61 -72t57 -59.5q72 -67 134 -67h66z" />
<glyph unicode="L" horiz-adv-x="1286" d="M20 12q0 28 28.5 28t56.5 4.5t50 19.5q45 30 63 119q57 268 96 453t64.5 305t39.5 186t20 97q9 42 9 60t-19.5 37t-48.5 30q-50 19 -125 19q-6 0 -6 8l5 24q2 8 10 8h587q6 0 6 -8l-5 -24q-2 -8 -23.5 -8t-57.5 -4.5t-66 -19.5q-69 -34 -87 -119q-40 -187 -70 -329.5 t-52.5 -249t-38 -181t-25.5 -123.5t-15.5 -77.5t-7.5 -43.5q-4 -21 -4 -29q0 -133 186 -133q276 0 376 39q70 27 116.5 71t70 68.5t34.5 38t22 24.5q26 28 46.5 28t20.5 -19q0 -12 -25 -69t-42 -110t-28 -82t-24 -39.5t-41 -10.5h-1085q-11 0 -11 12z" />
<glyph unicode="M" horiz-adv-x="1882" d="M1604 1142v12q0 7 -6 7q-9 0 -23 -22l-684 -1071q-20 -32 -40 -50t-41 -18t-27.5 6t-10.5 14q-4 10 -16 85.5t-34 213.5t-44.5 280t-45.5 284.5t-34 213.5t-12.5 82t-3.5 21q-5 26 -9.5 26t-9 -9t-7.5 -20q-9 -27 -31.5 -112t-68 -256.5t-73 -275.5t-39.5 -145t-20 -76 q-16 -68 -16 -114q0 -108 61 -160q22 -18 58 -18t36 -14v-13q0 -13 -40 -13h-384q-19 0 -19 21q0 13 6.5 16t29.5 12q52 20 117 91q41 45 65 154q9 36 41 153.5t50 183.5q41 151 65 242q52 200 64 242.5t18 64.5q13 56 13 82.5t-10 47t-27 34.5q-32 26 -81 26h-41 q-17 0 -20 6t-3 14q0 19 23 21h374q32 0 39 -49q4 -35 17 -110t33.5 -205.5l41 -261t40 -257.5t30 -188.5t13 -67.5t6.5 -6q8 0 15 10q79 125 168 264t181 282q199 312 279.5 439t91.5 138t31 11h317q17 0 21 -4.5t4 -15.5q0 -22 -62.5 -22t-95.5 -36q-37 -38 -63 -168 q-7 -34 -14 -67q-17 -80 -17 -83l-172 -813q-3 -15 -3 -34.5t8 -42.5t23 -41q31 -39 78 -43h47q29 0 29 -17t-11 -20t-30 -3h-539q-20 0 -20 14l1 10q0 16 29 16t58.5 14t55.5 37q57 50 73.5 128.5t37 173.5t42.5 198q56 262 97 452l18 87q2 8 2 12z" />
<glyph unicode="N" horiz-adv-x="1716" d="M1432.5 260q-14.5 -68 -22 -105.5t-14 -73t-10 -47t-9 -22.5t-21 -11t-29 12t-27 30t-26 38.5t-92 137t-186 273t-181 265t-121.5 177t-75 110t-42 62t-23 34.5q-34 47 -44 47q-15 0 -24 -46q-38 -187 -78 -368t-65.5 -303.5t-25.5 -177t8 -98.5t26 -78q40 -76 118 -76 q34 0 43.5 -3t9.5 -14v-9q0 -14 -22 -14h-451q-16 0 -24 3t-8 17.5t6 20.5t15 10t19.5 6.5t26.5 8.5t39 23.5t43 40.5q43 50 55 101l211 994q2 12 6 26.5t4 32.5t-18.5 35.5t-45.5 28.5q-50 22 -90.5 22t-51.5 2.5t-11 16.5t9 17.5t30 3.5h251q57 0 74 -10q21 -11 51 -56 l693 -1018q6 -9 13.5 -20.5t14 -11.5t9.5 13.5t8.5 33.5t10 44.5t12 64.5t23.5 114t34 159q42 190 63.5 291.5t32.5 148t11 81.5q0 68 -51 108q-23 18 -118 18q-14 0 -18.5 8t-4.5 15q0 17 29 17h441q23 0 23 -20t-23 -20h-40q-80 0 -133 -70q-25 -32 -44.5 -129t-31.5 -153 t-27.5 -129.5t-32.5 -154.5t-35 -165t-35 -162.5t-31.5 -146.5z" />
<glyph unicode="O" horiz-adv-x="1632" d="M1041 30q-108 -30 -215 -30t-196 23.5t-166 65.5t-139.5 101.5t-106.5 131.5q-93 151 -93 329q0 212 109 399q106 181 286 290q184 112 381.5 112t336 -48t230.5 -132q184 -166 184 -436q0 -226 -112 -422q-169 -292 -499 -384zM808 41q109 0 198.5 36.5t162 100 t127.5 148t92 180.5q76 192 76 396q0 228 -124 366q-134 151 -383 151q-297 0 -473 -252q-160 -229 -160 -542q0 -254 130 -415q135 -169 354 -169z" />
<glyph unicode="P" horiz-adv-x="1215" d="M567 569q0 31 33 31q224 0 350 116q131 121 131 343q0 304 -353 304q-59 0 -75 -17t-19 -34l-245 -1152q-3 -17 -3 -39.5t18 -41t46 -27.5q36 -12 121 -12q6 0 6 -8l-5 -24q-3 -8 -9 -8h-536q-7 0 -7 8l5 24q4 8 24.5 8t50 4.5t52.5 19.5q49 31 67 119q3 16 6 30t7 34 t10.5 51t17 80t26 121t37 174.5t51.5 240.5q73 342 73 368t-12 42.5t-33 23.5q-29 11 -109 11h-63q-7 0 -7 8l8 33q0 10 9 10l306 -1h205.5t141 -9t109 -27.5t101 -47.5t83.5 -69q79 -84 79 -191t-26.5 -180t-73 -128.5t-109.5 -94.5t-137 -64q-140 -46 -318 -46 q-34 0 -34 17z" />
<glyph unicode="Q" horiz-adv-x="1637" d="M1559.5 -274.5q24.5 8.5 47 8.5t22.5 -26q0 -32 -103 -63q-68 -21 -121 -21t-97 10.5t-86 27.5q-73 30 -147.5 75.5t-135 82t-121.5 82.5q-159 120 -269 153t-186.5 98.5t-128.5 151.5q-109 178 -109 377q0 224 122 405q115 170 311 268q196 97 419 97q273 0 473 -178 q130 -115 181 -278q26 -83 26 -173.5t-22.5 -177t-63 -165.5t-98 -150t-126.5 -128q-145 -119 -330 -170q-46 -13 -46 -29q0 -10 35.5 -35t86.5 -56t117 -73.5t117 -69.5q98 -52 187 -52q21 0 45.5 8.5zM318 591q0 -103 34.5 -202t97.5 -174q138 -164 353 -164 q205 0 365 132q142 118 222 317q76 187 76 387q0 235 -129 381q-134 153 -366 153q-201 0 -359 -128q-139 -113 -219 -311q-75 -184 -75 -391z" />
<glyph unicode="R" horiz-adv-x="1507" d="M635 641l-131 -6q-14 0 -17 -14l-98 -461q-4 -16 -4 -40.5t18 -42t46 -25.5q38 -12 122 -12q6 0 6 -8l-5 -24q-3 -8 -9 -8h-536q-7 0 -7 8l5 24q4 8 24.5 8t50 4.5t52.5 19.5q49 31 67 119q3 16 6 30l7 35q5 21 12 53t17.5 82t26 122.5t37.5 176t51 241.5q73 339 73 358 q0 49 -41 63.5t-126 14.5h-52q-6 0 -6 9l6 26q5 15 13 15h497q264 0 386 -81q130 -85 130 -273q0 -113 -97 -202q-73 -67 -270 -171q-28 -14 -28 -28t11 -32.5t32 -52t49 -76t62.5 -91t73 -96.5t79.5 -92t82 -78q91 -74 158 -74h26q40 0 46 -9t6 -17v-16q0 -20 -31 -20h-75 q-269 0 -468 264q-59 79 -98.5 142t-65 100t-44.5 67.5t-23 38.5t-10 14q-13 15 -36 15zM778 1362l-50 1q-59 0 -75 -17.5t-19 -33.5l-122 -575q-4 -16 -4 -33.5t51.5 -17.5t114.5 13t120.5 37.5t107.5 60t86 79.5q79 95 79 206q0 131 -79 206q-77 74 -210 74z" />
<glyph unicode="S" horiz-adv-x="1130" d="M165 440q0 -194 87 -289.5t271 -95.5q126 0 219 71q99 78 99 198q0 102 -103 211q-29 30 -59.5 58.5t-71 61.5t-81 68.5t-78 73.5t-66.5 80q-65 92 -65 183.5t35 161.5t94 118q122 102 291 102q93 0 142 -20t71 -29t44.5 -9t35 5t22.5 10.5t19 10.5t18 5 q20 -3 19.5 -19.5t-1.5 -26.5t-3 -31q-11 -92 -17 -135t-7.5 -63.5t-5.5 -39.5q-8 -43 -31 -43q-28 0 -30 31q-13 212 -179 279q-56 23 -118 23t-107.5 -19t-80.5 -51q-78 -71 -78 -163q0 -133 154 -260q42 -34 86.5 -73t98 -83.5t97.5 -95.5q102 -116 102 -233t-42.5 -192 t-113.5 -124q-138 -95 -347 -95q-165 0 -335 87q-54 28 -76 46q-24 21 -24 28q8 60 22 117t20.5 92t8.5 48t7 25q10 31 33.5 31t23.5 -35z" />
<glyph unicode="T" horiz-adv-x="1423" d="M289 32q0 8 9 8h28q91 0 156 50q50 37 61 90l236 1107q1 3 1 8q0 20 -31 20h-294q-75 0 -137 -72q-60 -71 -74 -157q-3 -15 -7.5 -16t-6.5 -1h-23q-7 0 -7 7q47 232 62 300l9 43q5 30 26 30q7 0 12.5 -6t13.5 -13q21 -20 61 -20h1051q42 0 54.5 13.5t17.5 19.5t15 6 q26 0 26 -23q0 -4 -8 -38q-19 -92 -58 -282l-6 -27q-1 -10 -11 -10h-13q-14 0 -25 71.5t-21 102.5q-25 72 -79 72h-315q-13 0 -23 -3.5t-15 -24.5q-44 -208 -78 -366.5t-59 -276t-42 -198.5t-28.5 -133.5t-17.5 -81.5t-9 -43q-5 -22 -5 -37t21 -35t51 -36q75 -40 148 -40h29 q8 0 8 -8v-24q0 -8 -8 -8h-687q-8 0 -8 8v24z" />
<glyph unicode="U" horiz-adv-x="1618" d="M1763 1410q15 0 15 -13v-11q0 -12 -29 -16t-43.5 -7t-33 -8t-32.5 -15q-30 -22 -43 -80l-31 -143q-8 -35 -22.5 -105t-33.5 -160q-52 -248 -79.5 -375t-78.5 -212.5t-126 -144.5q-153 -120 -380 -120q-229 0 -404 104q-191 115 -191 299q0 45 72.5 379t82.5 382l15 72 q7 34 7 51.5t-16.5 36t-41.5 28.5q-45 18 -113 18q-6 0 -6 8l5 24q2 8 10 8h521q6 0 6 -8l-5 -24q-2 -8 -23.5 -8t-51 -4.5t-52.5 -19.5q-48 -31 -66 -119l-155 -719q-9 -42 -9 -102.5t33.5 -126.5t87.5 -113q112 -96 259 -96q458 0 552 439l122 572q16 70 16 126 q0 163 -158 163h-28q-21 0 -21 15v10q0 15 19 15h450z" />
<glyph unicode="V" horiz-adv-x="1542" d="M406 -27q-23 0 -23 22l42 1258q0 86 -91 110q-27 7 -55.5 7t-28.5 20t27 20h526q21 0 21 -19q0 -18 -34.5 -19.5t-62.5 -1.5t-48 -13t-34 -33q-28 -41 -30 -94q-4 -119 -7.5 -231t-7.5 -224q-11 -295 -16 -463l-1 -31q0 -14 11.5 -14t32.5 26t68.5 85t103.5 128 t117.5 145.5t124.5 154.5q241 296 267.5 327.5t41.5 54.5q37 54 37 86.5t-9.5 51.5t-27.5 28q-28 16 -94 16q-25 0 -25 20t25 20h417q17 0 23 -3t6 -14q0 -23 -32 -23t-57 -12.5t-49 -32t-47 -43.5t-42.5 -47.5t-35 -44.5t-67 -85t-152 -188t-204.5 -251 q-332 -408 -408 -504q-83 -105 -107.5 -135t-28.5 -35.5t-9 -9.5q-11 -9 -31 -9h-26z" />
<glyph unicode="W" horiz-adv-x="2162" d="M329 -27q-20 0 -20 26l96 1233l5 58v7q0 73 -139 73q-21 0 -21 17t6 20t19 3h476q14 0 17 -8t3 -10q0 -22 -36.5 -22t-67 -11t-49.5 -29q-32 -32 -38.5 -108.5t-15 -181t-16.5 -212.5q-19 -260 -27.5 -355.5t-9.5 -119.5t-2.5 -55.5t11.5 -31.5q6 0 16 10 q170 229 284 378q182 240 360 477q36 49 36 88.5t-13 65.5t-34 45q-44 40 -98 40q-23 0 -23 20t14 20h505q16 0 16 -20t-22 -20h-18q-138 0 -153 -80q-6 -185 -22.5 -532.5t-20.5 -470.5q0 -13 6 -13q11 0 29 28l31 44q84 120 172 239t135 188.5t67 97t43 59.5t47 65.5 t45 62t36.5 50t21.5 29t13.5 19t16.5 23.5q19 28 33 48.5t14 52.5t-29.5 61t-74 29t-44.5 20t20 20h368q25 0 25 -20t-24 -20q-69 0 -90 -27q-177 -244 -394 -548q-367 -516 -571 -798q-18 -24 -42 -24h-23q-20 0 -20 26l1 23q9 188 16 372t12 302t9 165.5t4 76.5v38 q0 43 -11 43t-20.5 -12.5t-59 -76t-139 -182.5t-179 -239l-179 -240t-179.5 -237l-29 -39q-15 -20 -51 -20h-24z" />
<glyph unicode="X" horiz-adv-x="1542" d="M538 40q18 0 18 -9v-18q0 -13 -16 -13h-507q-13 0 -13 12v15q0 13 14 13h35q97 0 222 132l509 546q10 10 10 16t-4 13l-278 527q-27 51 -58 67q-58 29 -161 29h-19q-9 0 -12.5 2t-3.5 13v12q0 14 15 14l596 -1q22 0 22 -11v-15q0 -11 -4 -12.5t-17 -1.5h-92 q-26 0 -47.5 -19.5t-21.5 -38.5q0 -30 19 -68.5t52 -98.5t49 -92.5t23 -46.5t16 -31q26 -49 33.5 -60.5t13.5 -22t8 -11.5q6 0 9 4t25 26.5t62.5 65t78 81.5t68 70.5t52.5 54.5q64 69 64 111t-22.5 59t-53.5 17h-65q-18 0 -18 13v16q0 11 17 11h497q14 0 14 -12v-14 q0 -14 -32.5 -14t-53 -3.5t-39.5 -10.5q-29 -12 -82 -45q-14 -15 -43 -44.5t-66.5 -68t-81 -83.5t-87.5 -91q-174 -181 -184.5 -198.5t-10.5 -25.5q0 -31 65 -136q6 -10 32 -60q183 -356 217 -409.5t58.5 -79.5t42.5 -35t37 -16t39 -12q46 -12 46 -24v-18q0 -10 -13 -10 h-546q-13 0 -13 8v13q0 19 14 19h39q37 0 64 22q48 39 48 70t-10 50q-54 102 -107.5 201.5t-83 156.5t-35.5 67t-13 19q-15 20 -25.5 20t-58.5 -53q-288 -314 -318 -342t-42 -43q-61 -80 7 -139q33 -29 69 -29h38z" />
<glyph unicode="Y" horiz-adv-x="1484" d="M395 0q-20 0 -20 15v12q0 13 20 13h60q71 0 126 54q40 38 49.5 90t19.5 99.5t18 88.5q18 84 32 179q0 16 -5.5 27t-18 40t-34.5 80.5t-53 123t-73.5 170t-79 182t-51.5 109t-33 44.5q-38 42 -69.5 42t-31.5 13v13q0 11 19 14h441q19 0 19 -14v-13q0 -13 -16 -13h-38 q-49 0 -72 -41q-9 -15 -9 -38t23 -74.5t49.5 -112.5t52.5 -123q67 -159 93 -217t29 -65.5t6 -14.5q9 -17 18 -17q15 0 36 26t39.5 47.5t34.5 40.5t27 32t57 67t124.5 149.5t123 147t51.5 71.5t7 47t-20 51t-60 24h-37q-20 0 -20 14v13q0 14 20 14h370q7 0 11 -4.5t4 -7.5 v-13q0 -11 -6 -14t-16 -5q-35 -8 -51.5 -18.5t-36.5 -30t-40 -41.5q-29 -31 -116.5 -136.5t-223.5 -265.5t-262 -311q-18 -92 -38 -181q-42 -192 -42 -234.5t44 -75t125 -32.5h47q18 0 18 -13v-14q0 -13 -16 -13h-625z" />
<glyph unicode="Z" horiz-adv-x="1479" d="M47 0q-27 0 -27 28t10.5 42t23.5 27l1097 1151q70 70 70 88.5t-37 18.5h-417q-109 0 -165 -25q-96 -44 -158 -135q-12 -17 -41 -78t-36 -71q-14 -21 -27 -21q-28 0 -28 13q1 4 3 13.5t6.5 29.5t12.5 57t20.5 92.5t23 102.5t13.5 54.5t10 12.5q13 9 58 9h998q32 0 32 -31 q0 -26 -14 -40l-1084 -1139q-84 -84 -84 -103.5t12 -20.5h624q229 0 374 271q7 11 12.5 23t12.5 22q16 23 38.5 23t22.5 -17q0 -7 -3 -17l-97 -352q-9 -28 -37 -28h-1219z" />
<glyph unicode="[" horiz-adv-x="806" d="M1056 1731l-17 -86h-271q-73 0 -89 -73q-127 -599 -192 -902t-92 -430t-44.5 -210t-27.5 -129t-14 -69q-6 -33 -6 -39q0 -49 61 -49h294l-18 -86h-520l439 2073h497z" />
<glyph unicode="\" horiz-adv-x="698" d="M598 -27h-130l-398 1479h130z" />
<glyph unicode="]" horiz-adv-x="784" d="M834 1731l-440 -2073h-519l18 86h295q72 0 87 73l374 1755q3 15 3 26q0 47 -59 47h-274l17 86h498z" />
<glyph unicode="^" horiz-adv-x="886" d="M568 1186l-305 -507h-148l421 700h63l412 -700h-148z" />
<glyph unicode="_" horiz-adv-x="1014" d="M-16 -205h1046v-115h-1046v115z" />
<glyph unicode="`" horiz-adv-x="700" d="M478 1067q-4 -4 -7 -4t-7 4l-269 217q-55 47 -55 85t20.5 60.5t45.5 22.5q45 0 81 -49l213 -295q4 -4 4 -6t-4 -6z" />
<glyph unicode="a" horiz-adv-x="918" d="M584 186.5q4 16.5 5 33.5t-7 17q-11 0 -49 -33.5t-70 -61.5t-67.5 -58t-69.5 -54q-77 -57 -113 -57t-58.5 30t-34.5 71q-20 70 -20 135q0 208 158 399q151 180 371 255q109 37 222 37q17 0 17 -28l-151 -692l-2 -16q-2 -14 -2 -26.5t8 -24.5t17.5 -12t24 11.5t29.5 25.5 q42 36 52 36q16 0 16 -18q0 -19 -108 -102q-109 -85 -137 -85q-31 0 -43 41q-6 22 -6 49.5t3 50.5t7 41.5t8 35zM707 770q0 16 -38 16t-89 -13.5t-98 -38.5q-173 -91 -222 -308q-21 -94 -23.5 -151t-0.5 -84t10 -51q20 -56 74 -56q72 37 155.5 112t132.5 119z" />
<glyph unicode="b" horiz-adv-x="895" d="M241 1492q282 153 303.5 153t21.5 -23.5t-15.5 -93.5t-37 -181t-42.5 -217q-48 -244 -74 -342t-26 -102q0 -16 16 -16q12 0 48 33t66.5 60t64.5 55.5t66 52.5q72 54 109 54t60.5 -30t36.5 -71q22 -71 22 -154.5t-14.5 -167t-43 -161t-70.5 -144.5t-96 -117 q-117 -107 -270 -107q-68 0 -118.5 26.5t-72.5 49.5q-50 52 -50 128q0 23 6 50l261 1230q2 8 2 15v11q0 25 -22 25q-19 0 -50.5 -15t-67.5 -32zM712 560q7 53 8 86.5t-1 60.5t-11 51q-19 56 -73 56q-73 -37 -154.5 -112.5t-130.5 -118.5l-89 -415q-4 -16 -4 -34t5.5 -39 t19.5 -39q31 -42 97 -42q58 0 102 39q83 72 148 200q58 116 83 307z" />
<glyph unicode="c" horiz-adv-x="680" d="M656.5 882.5q23.5 -19.5 23.5 -79.5t-35 -60q-29 0 -65.5 22.5t-56 33t-50.5 10.5t-65 -33.5t-62.5 -86t-50 -117.5t-35.5 -129q-30 -130 -30 -186t7 -88.5t23 -58.5q34 -56 103 -56q55 0 102 32t74 53.5t53 38.5l21 -26q-92 -92 -140 -121q-96 -58 -197 -58 q-199 0 -199 219q0 294 170 510q100 127 221 176q59 24 112 24t76.5 -19.5z" />
<glyph unicode="d" horiz-adv-x="984" d="M733 1492q282 153 301.5 153t19.5 -33q0 -11 -2 -31l-305 -1401l-2 -16q-2 -14 -2 -26.5t8 -24.5t17.5 -12t24 11.5t29.5 25.5q42 36 52 36q16 0 16 -18q0 -19 -108 -102q-109 -85 -137 -85q-31 0 -43 41q-6 22 -6 49.5t3 50.5t7 41.5t8 35t5 33.5t-7 17q-11 0 -49 -33.5 t-70 -61.5t-67.5 -58t-69.5 -54q-77 -57 -113 -57t-58.5 30t-34.5 71q-20 70 -20 141.5t18.5 144t52 147t80 145t103.5 125.5q126 122 257 122q34 0 53 -15q36 -27 49 -27t15 11l124 589q4 16 4 26q0 25 -22 25q-19 0 -50.5 -15t-67.5 -32zM361 599q-108 -235 -95 -408 q5 -61 29 -84t55 -23q72 37 155.5 112t132.5 119l85 385q3 16 3 28.5t-8.5 31.5t-24.5 36q-39 41 -96 41q-56 0 -97 -37q-79 -71 -139 -201z" />
<glyph unicode="e" horiz-adv-x="789" d="M432 54q95 0 232 84l14 -25q-105 -81 -238 -122q-58 -18 -118.5 -18t-102.5 25.5t-69 68.5q-50 82 -50 212q20 222 160 411q95 128 228 182q68 28 122.5 28t84.5 -9.5t53 -28.5q51 -41 51 -103.5t-26.5 -107.5t-69.5 -78t-98 -57t-111.5 -42t-111 -32.5t-95.5 -29.5 q-32 -75 -32 -153q0 -140 95 -188q34 -17 82 -17zM301 472q0 -17 27 -17q151 44 216 89.5t98.5 95.5t33.5 120q0 71 -44 93q-15 8 -47.5 8t-69.5 -19.5t-67 -52t-54 -73.5t-42 -84q-30 -72 -51 -160z" />
<glyph unicode="f" horiz-adv-x="614" d="M308 823q0 23 -37 23h-91l9 39q139 4 148 43q1 7 5 26t8.5 41t8.5 42.5t9.5 47t20.5 86t40.5 123.5t62.5 127t91 113q120 111 294 111q57 0 85 -23q47 -37 47 -65q0 -66 -52 -66q-36 0 -74.5 29.5t-60.5 43t-57 13.5t-64.5 -11t-50.5 -30q-30 -28 -60 -98 q-43 -124 -68 -251t-29 -146t-8 -41q-11 -59 -11 -66q0 -34 31 -34h128l-12 -54h-143q-17 0 -22.5 -16.5t-9.5 -36.5l-181 -854q-39 -185 -153 -354q-91 -136 -218 -193q-67 -31 -122 -31t-79.5 9t-42.5 23q-35 28 -35 56q0 66 52 66q36 0 81 -29.5t70.5 -43t53 -13.5t52 14 t44.5 36q39 41 66 107q59 170 95 352l178 877q1 3 1 8z" />
<glyph unicode="g" horiz-adv-x="914" d="M899 821q0 -15 -18 -15h-118q4 -17 10.5 -37.5t12.5 -46.5q14 -59 14 -126.5t-20.5 -126.5t-54.5 -109q-56 -82 -170 -175q-39 -32 -116.5 -66t-103.5 -50t-26 -44.5t30 -63.5t75.5 -69t98 -69t97.5 -73q106 -88 106 -171q0 -145 -248 -199q-89 -20 -181 -20t-174 7 t-143 27q-135 42 -135 148q0 82 126 169q68 47 125 78t76 43q56 34 65 43q-5 19 -13 38.5t-8 40.5t7 37t18.5 30t26.5 29q37 35 37 41t-10.5 17.5t-24.5 25.5q-30 26 -49.5 47.5t-35 51.5t-25.5 64q-18 66 -18 129.5t22 119.5t60 108t87.5 97t105.5 78q120 71 229 71 q220 0 257 -22q6 -3 6 -11v-46zM-23.5 -370.5q-17.5 -30.5 -17.5 -74.5t24.5 -78.5t70.5 -54.5q78 -33 253 -33q145 0 241 58q63 38 63 96q0 66 -131 155q-36 25 -74 50l-148 100q-16 -12 -44.5 -28t-61.5 -36.5t-67.5 -44.5t-62.5 -51.5t-45.5 -58zM670 644q0 207 -135 207 q-74 0 -139 -81q-85 -110 -114 -296q-9 -55 -9 -95.5t6.5 -78t22.5 -68.5q37 -74 110 -74q47 0 98.5 52.5t79 101.5t45.5 103q35 105 35 229z" />
<glyph unicode="h" horiz-adv-x="982" d="M100 0q0 13 5 34q9 40 11 51l292 1372q4 16 4 26q0 25 -22 25q-17 0 -48.5 -15t-67.5 -32l-13 31q282 153 301.5 153t19.5 -33q0 -3 -6 -30l-227 -1072q0 -10 9 -10q10 0 33.5 26.5t58.5 65t76.5 80t86.5 82.5t89 74q100 72 160 72q30 0 52.5 -23.5t22.5 -49.5t-3 -39 l-178 -692v-4q0 -22 25 -22q40 0 141 106l16 16l19 -19q-19 -37 -80.5 -88t-90.5 -70q-66 -44 -99.5 -44t-56 24t-22.5 49.5t3 39.5l178 692v4q0 9 -8.5 15.5t-22 6t-46.5 -24t-74 -60.5t-86 -82t-86 -89q-98 -105 -122 -139t-30 -63l-71 -333q-69 -40 -106 -40t-37 29z" />
<glyph unicode="i" horiz-adv-x="557" d="M464 812l-149 -720q0 -22 24 -22q40 0 141 106l16 16l19 -19q-18 -36 -80 -87t-91 -70q-64 -43 -101.5 -43t-56.5 27.5t-19 47.5q0 28 5 49l144 679v4q0 22 -25 22q-43 0 -131 -95q-18 -20 -26 -27l-19 19q20 39 113 115q107 86 152 86t64.5 -27.5t19.5 -60.5z M407.5 1192.5q-3.5 13.5 -3.5 29.5t6.5 46t19.5 58q30 66 79 66q45 0 59 -50q4 -14 4 -30t-8 -45t-22 -57q-36 -66 -80 -66q-26 0 -38.5 17.5t-16 31z" />
<glyph unicode="j" horiz-adv-x="576" d="M355 777q0 25 -25 25q-43 0 -130 -95q-19 -20 -27 -27l-19 19q20 39 114 115q106 86 160 86q33 0 49 -21q25 -35 25 -70q0 -15 -68.5 -336t-95.5 -449t-46.5 -188t-49.5 -124t-69.5 -127t-89.5 -113q-111 -111 -241 -111q-56 0 -85 23q-47 37 -47 65q0 66 52 66 q36 0 74.5 -29.5t60.5 -43t51 -13.5t55 22.5t47.5 59.5t39 84.5t31.5 97.5q42 150 44 176t20.5 111t45 210.5t46.5 218t33.5 155.5t22 104t13.5 63.5l7 31.5t2 14zM446.5 1192.5q-3.5 13.5 -3.5 29.5t6.5 46t18.5 58q31 66 80 66q45 0 59 -50q4 -14 4 -30t-8 -45t-23 -57 q-35 -66 -79 -66q-26 0 -38.5 17.5t-16 31z" />
<glyph unicode="k" horiz-adv-x="1013" d="M378 596q0 -14 13 -14q6 0 61.5 45t101 81.5t93.5 72.5t92 65q98 66 134.5 66t58 -18.5t36.5 -45.5q30 -52 30 -105.5t-26.5 -103.5t-81.5 -91q-125 -92 -349 -92q-7 0 -13.5 -6t-6.5 -12t8 -17.5t30 -44t49 -69.5t58.5 -75t63.5 -68q73 -70 124 -70q30 0 56 30.5 t37.5 44.5t24 14t12.5 -16q0 -6 -73 -81.5t-84.5 -83t-22.5 -7.5q-54 0 -111 43.5t-87.5 78.5t-55.5 73t-49 77q-60 97 -109 145l-18 18q-11 11 -16 11q-15 0 -19 -19l-86 -411q-12 -5 -25.5 -12t-27.5 -13q-35 -15 -55 -15q-28 0 -28 33q0 39 9 81l292 1372q4 10 4 26 q0 25 -22 25q-23 0 -61.5 -20.5t-54.5 -26.5l-13 31q44 25 87 47t59 30.5t40 22t47 25.5q52 28 65 28q23 0 23 -32q0 -10 -6 -31l-205 -968q-3 -12 -3 -18zM351 477q43 -3 90 -3q151 0 210.5 20.5t99.5 45.5t69 56q61 65 61 136q0 61 -37 88q-12 8 -35 8q-72 0 -241 -135 q-35 -28 -83.5 -68t-123.5 -101z" />
<glyph unicode="l" horiz-adv-x="559" d="M278 93q0 -22 25 -22q40 0 141 106l16 16l19 -19q-20 -39 -113 -115q-107 -86 -161 -86q-30 0 -52.5 23.5t-22.5 49t3 39.5l294 1372q4 16 4 26q0 25 -22 25q-19 0 -50.5 -15t-67.5 -32l-13 31q282 153 301.5 153t19.5 -23.5t-31.5 -168t-76 -353.5t-78 -364t-56.5 -263 t-38 -179t-23.5 -110.5t-12 -58.5t-5.5 -28v-4z" />
<glyph unicode="m" horiz-adv-x="1553" d="M154 0q0 13 5 34q9 40 11 51l134 634v4q0 28 -23 28q-15 0 -50 -35.5t-92 -93.5l-24 25q22 45 161 161q109 92 153 92q36 0 36 -71q0 -30 -7 -62l-53 -256q0 -11 8.5 -11t16 8.5t34.5 38.5t72 84t80.5 89.5t69.5 64.5t70 55q87 60 126 60t62.5 -23.5t23.5 -46.5 q0 -29 -3 -41l-55 -263q-2 -10 -2 -18t8 -8q20 0 93 92.5t108.5 128t69.5 64.5t71 55q86 60 125 60t61.5 -23.5t22.5 -49.5t-3 -39l-147 -692v-4q0 -22 25 -22q40 0 142 106q10 11 15 16l19 -19q-20 -39 -114 -115q-106 -86 -160 -86q-30 0 -52.5 23.5t-22.5 49t3 39.5 l147 692v4q0 22 -25 22q-37 0 -101 -66q-128 -133 -200 -222q-9 -9 -22 -24.5t-27 -31.5q-26 -30 -37 -45.5t-21 -27.5t-16 -41l-72 -333q-69 -40 -106 -40t-37 29q0 13 5 34q9 40 11 51l147 691v4q0 22 -25 22q-37 0 -101 -66q-152 -157 -182.5 -194t-43 -52.5t-24.5 -31.5 q-24 -29 -35.5 -45t-21.5 -28t-16 -41l-72 -333q-69 -40 -106 -40t-37 29z" />
<glyph unicode="n" horiz-adv-x="996" d="M424 900q36 0 36 -67q0 -30 -3.5 -46t-9 -43t-16.5 -80.5t-31 -152.5q0 -11 8.5 -11t16 8.5t23.5 26.5t49.5 56.5t72 80t80 82.5t82.5 74q93 72 154 72q30 0 52.5 -23.5t22.5 -49.5t-3 -39l-178 -692v-4q0 -22 25 -22q40 0 141 106l16 16l19 -19q-20 -39 -113 -115 q-107 -86 -161 -86q-30 0 -52.5 23.5t-22.5 49t3 39.5l178 692v4q0 9 -8.5 15.5t-22 6t-45 -24t-69.5 -60.5t-79.5 -82t-79.5 -89q-104 -120 -121.5 -146.5t-23.5 -55.5l-72 -333q-69 -40 -106 -40t-37 29q0 13 5 34q9 40 11 51l134 634v4q0 28 -23 28q-15 0 -50 -35.5 t-92 -93.5l-24 25q22 45 160 161q110 92 154 92z" />
<glyph unicode="o" horiz-adv-x="953" d="M741 900q59 0 113 -104q57 -108 57 -216.5t-25 -183t-67.5 -138.5t-100.5 -116.5t-124 -89.5q-137 -79 -273 -79q-54 0 -110 105q-56 107 -56 199t24.5 172.5t67 149t99.5 124.5t122 95q137 82 273 82zM314.5 407.5q-9.5 -62.5 -9.5 -106.5t8 -85.5t26 -79.5 q43 -89 118 -89q136 0 225 174q79 155 79 339q0 123 -55 210q-36 56 -86 56t-92.5 -24t-77 -64.5t-62 -94.5t-46 -113.5t-28 -122z" />
<glyph unicode="p" horiz-adv-x="962" d="M580 -0.5q-68 -26.5 -142 -26.5t-144 37l-105 -496q-4 -16 -4 -26q0 -46 45.5 -61t130.5 -15l-7 -32h-489l7 32q99 0 141 56q32 44 59 171l230 1080v4q0 28 -23 28q-15 0 -50 -35.5t-92 -93.5l-24 25q22 43 164 161q111 92 155 92q12 0 26 -8.5t14 -24.5q0 -28 -16 -97 l-29 -129q-1 -3 -1 -9q0 -17 11 -17q15 0 28 11t38.5 36t57 55.5t66.5 63t69 59.5q76 60 112.5 60t60 -30t36.5 -72q22 -70 22 -153.5t-14.5 -165.5t-43 -156.5t-70.5 -138.5t-96.5 -111t-122.5 -73.5zM772.5 481.5q15.5 75.5 15.5 124.5t-2 76t-10 51q-20 56 -74 56 q-53 -27 -111.5 -86.5t-100 -103t-90.5 -91.5l-72 -340q-4 -16 -4 -34t5.5 -39t18.5 -39q32 -42 82.5 -42t89.5 24.5t77 68t72.5 102.5t61 128t42 144.5z" />
<glyph unicode="q" horiz-adv-x="898" d="M588 -526q0 -64 109 -62q25 1 39 -1l-7 -31h-411l7 32q113 0 124 73l136 744q0 8 -8 8q-11 0 -49 -33.5t-70 -61.5t-67.5 -58t-68.5 -54q-78 -57 -114 -57t-58.5 30t-34.5 71q-20 70 -20 135q0 207 158 399q149 180 369 255q108 37 221 37q17 0 17 -28zM702 770 q0 16 -38 16t-89 -13.5t-97 -38.5q-174 -91 -223 -308q-21 -94 -23.5 -151t-0.5 -84t11 -51q19 -56 73 -56q72 37 155.5 112t132.5 119z" />
<glyph unicode="r" horiz-adv-x="669" d="M653 739l-49 8q-61 0 -126 -63q-86 -85 -110 -186q-10 -44 -20 -89l-86 -398q-12 -5 -27.5 -12t-32.5 -13q-41 -15 -61 -15q-26 0 -26 33q0 17 21 115t46 215.5t41.5 193.5t25 117.5t13.5 60.5q5 24 5 28q0 17 -12 17q-20 0 -40 -20l-84 -82q-5 -5 -9 -5q-22 0 -22 21 q0 20 46 62.5t74.5 67.5t43 38t28 24t28.5 21q37 23 59 23q33 -5 33 -70l-12 -135q0 -21 14 -21q8 0 38.5 41.5t48 62t36.5 42.5t41 39q51 41 100 41q29 0 38 -47q3 -13 3 -25q0 -88 -66 -90z" />
<glyph unicode="s" horiz-adv-x="696" d="M47.5 28q-14.5 18 -16 45t20 46.5t47.5 19.5t59 -15.5t69 -34.5q95 -50 141 -50t77.5 36t31.5 85.5t-19 88.5t-47.5 74.5t-61.5 69t-61 69.5q-67 84 -67 151.5t34 116.5t86 86q111 79 227 79q43 0 66 -27q42 -49 42 -90q0 -90 -66 -90q-28 0 -44 26t-24 44.5t-18 33.5 q-22 37 -49.5 37t-54.5 -13.5t-48 -34.5q-49 -47 -49 -91t18.5 -76t46 -63t59.5 -63.5t59 -69.5q65 -87 65 -179q0 -125 -116 -201q-35 -23 -61.5 -31.5t-40 -13.5t-33.5 -9q-48 -11 -104 -11t-83.5 6.5t-49 18.5t-36 30z" />
<glyph unicode="t" horiz-adv-x="580" d="M227 -27q-89 0 -89 81q0 17 4 34l154 727q2 10 2 16q0 15 -15 15h-45q-26 0 -26 18q0 19 14.5 24t24.5 7t24.5 7.5t38.5 24t48.5 43t48.5 51.5t45 53q54 65 67 78q22 -5 35 -16q-8 -21 -21 -49t-25 -57q-31 -71 -36 -104v-4q0 -22 24 -22h130l-11 -54h-145q-27 0 -34 -35 l-139 -650q-5 -21 -7 -33.5t-3.5 -19.5t-1.5 -10v-4q0 -23 22 -23q38 0 85 47l111 111l14 -15q-14 -43 -113 -134q-113 -107 -181 -107z" />
<glyph unicode="u" horiz-adv-x="1052" d="M988 876v-6q0 -3 -153 -719q0 -32 23 -32q15 0 49 35.5t91 93.5l24 -25q-13 -26 -78 -86q-177 -164 -236 -164q-37 0 -37 63q0 30 8 67l73 336q0 11 -8.5 11t-16 -8.5t-23 -26t-42 -46t-53.5 -58.5q-76 -84 -95 -106.5t-38.5 -45t-42.5 -47.5t-48.5 -50t-50.5 -44 q-57 -45 -90.5 -45t-52.5 26.5t-19 46.5v24q0 6 2 12l147 692v4q0 22 -25 22q-43 0 -130 -95q-19 -20 -27 -27l-19 19q20 39 114 115q106 86 160 86q30 0 52.5 -23.5t22.5 -50t-141 -691.5v-4q0 -22 25 -22q33 0 124 108q23 27 49 57l52 60q56 66 100 119q101 123 120 210 l43 199q7 40 32 40h91q24 0 24 -24z" />
<glyph unicode="v" horiz-adv-x="897" d="M314 113q0 -39 29 -39q50 0 171 138q115 133 163 235q49 83 77 217q9 40 9 56t-7.5 22.5t-17.5 15.5q-24 23 -24 44.5t8.5 39.5t22.5 30q31 28 59 28t45.5 -12t32.5 -32q35 -48 35 -84t-5.5 -60t-13.5 -48q-28 -85 -92.5 -172t-122 -154t-121 -133t-123.5 -118 q-134 -116 -195 -116q-71 0 -71 125q0 25 4 43l96 639v4q0 21 -23.5 21t-46.5 -17.5t-44.5 -40t-38.5 -44.5t-24 -30l-21 18q20 41 76.5 95t84.5 74q63 48 99 48t59.5 -25t23.5 -63q0 -9 -2 -19l-100 -660q-2 -16 -2 -26z" />
<glyph unicode="w" horiz-adv-x="1416" d="M827 114q0 -39 29 -39q42 0 168 139q128 140 172 234q49 83 78 217q8 40 8 56t-7.5 22.5t-16.5 15.5q-25 23 -25 44.5t8.5 39.5t22.5 31q31 27 59 27t45.5 -12t32.5 -33q35 -47 35 -83t-5.5 -60t-13.5 -49q-28 -86 -93.5 -172t-125 -153t-125 -133t-127.5 -118 q-137 -116 -199 -116q-71 0 -71 125q0 25 4 43l33 220q0 11 -8.5 11t-16 -8.5t-23.5 -26.5t-48 -56.5t-68.5 -80t-76.5 -82.5t-80 -73q-88 -73 -148 -73q-30 0 -52.5 23.5t-22.5 49t3 39.5l104 693q0 26 -25 26q-43 0 -131 -95q-18 -20 -26 -27l-19 19q20 39 113 115 q107 86 161 86q30 0 52.5 -23.5t22.5 -49.5t-3 -39l-104 -693v-4q0 -9 8.5 -15.5t22 -6.5t43 24t64.5 61t73 82t73 89q103 129 117.5 151t20.5 51l48 333q0 20 11 30t19 10h100q22 -3 22 -29l-110 -731q-2 -8 -2 -14v-12z" />
<glyph unicode="x" horiz-adv-x="1101" d="M89 -27q-39 11 -39 70q0 77 46 163q13 25 25 25t16 -9.5t6.5 -23.5t6 -30.5t10.5 -30.5q16 -33 52 -33q67 0 122 70l182 231l-130 340q-14 39 -67 39q-45 0 -93 -72q-13 -18 -24 -34q-24 -37 -39 -37t-15 11.5t11.5 34t30.5 50t44.5 56.5t54.5 53q67 54 120 54 q30 0 56 -15.5t35 -38.5l120 -310q4 0 22.5 26t47 65t66 85t78.5 85q97 91 171 91q96 0 96 -106q0 -54 -10.5 -75t-22 -21t-21 15t-21.5 33q-34 48 -85 48q-57 0 -155 -116q-52 -61 -90 -110.5t-57 -70.5l137 -354q15 -41 51 -41q32 0 52.5 26.5t31 45t20.5 34.5 q23 37 41 37q6 -10 6 -29t-20.5 -59t-52.5 -79q-78 -93 -145 -93q-79 0 -96 46q-115 299 -119.5 311t-9.5 12t-10 -4.5t-10.5 -10.5t-29 -37.5t-69 -88.5t-98.5 -107q-123 -119 -229 -121z" />
<glyph unicode="y" horiz-adv-x="993" d="M134 -543q25 25 72.5 126.5t67.5 146.5t38 90q85 212 85 321q0 207 -15 289q-46 245 -62.5 282.5t-28.5 53t-28 17.5q-19 -3 -55 -51q-69 -92 -82 -92q-6 0 -12 5t-6 19t21 44t48.5 60.5t53.5 56t32 33t14.5 14t19.5 12.5q26 16 43 16q36 0 46 -19q145 -249 145 -695 q0 -36 19 -49l78 137q117 199 168 347q19 55 19 81.5t-5 39t-12 22.5q-16 27 -16 43.5t6 33t18 29.5q26 30 59.5 30t52.5 -9.5t30 -26.5q20 -31 20 -80t-24.5 -103t-63 -119.5t-86.5 -138t-95 -143.5q-119 -180 -154 -247q-35 -79 -78 -188.5t-105 -246.5l-38 -84 q-2 -4 -4 -11t-4 -15q-6 -16 -6 -31.5t7 -26.5q13 -19 69 -18q9 1 25.5 1t44.5 -1l-7 -32h-469l7 32q71 0 96.5 10t50.5 35z" />
<glyph unicode="z" horiz-adv-x="1143" d="M332 204l57 6q130 0 250 -79q79 -52 145 -52q91 0 128 45q30 37 42 47.5t25 10.5q29 0 29 -29q0 -15 -36.5 -47.5t-67 -54t-64.5 -39.5q-79 -41 -124.5 -41t-72.5 7.5t-52.5 19.5t-50 26.5t-48.5 28t-54.5 27.5t-63.5 26q-74 26 -105 26t-46 -4.5t-29 -13.5 q-30 -19 -34.5 -37.5t-5.5 -34.5t-6 -31q-10 -37 -46 -40q-40 0 -40 46q0 84 183 227q213 167 517 324q64 32 103.5 63t39.5 39q0 15 -28 15l-62 -4q-120 0 -245 57t-195 57q-28 0 -62.5 -37t-49.5 -53.5t-23.5 -16.5t-18.5 10t-10 22t15.5 32t40 40t54.5 38.5t59 33.5 q67 32 107 32t83.5 -10.5t82 -26.5t73.5 -35t70 -35q79 -37 128.5 -37t71 17.5t32.5 35.5t13 33.5t5 29.5q7 32 41 32q16 0 31 -11t15 -23t-6 -26t-15 -28q-50 -87 -128.5 -151.5t-139.5 -108t-114.5 -73t-106.5 -57.5q-142 -75 -179.5 -104t-53.5 -39t-32 -22 q-43 -31 -43 -42t17 -11z" />
<glyph unicode="{" horiz-adv-x="799" d="M191 664q-23 0 -23 24.5t12.5 40.5t26.5 16q152 0 189 173q10 51 10 106l-8 219q0 70 14.5 138t64 130t115.5 105q153 100 395 100q32 0 32 -21t-10.5 -35.5t-24.5 -14.5q-44 0 -88 -5.5t-97 -25.5t-95 -53q-92 -71 -115 -181q-23 -117 -28 -203q-9 -155 -18 -199.5 t-20.5 -71.5t-25.5 -49q-28 -43 -57 -66q-20 -19 -37 -32t-29 -23q-26 -20 -26 -34q0 -15 22 -44.5t34 -48.5q32 -48 32 -98t-4 -75t-12 -51t-20.5 -58.5t-27 -74t-27 -78.5t-22.5 -74q-23 -87 -23 -146.5t21.5 -99t53.5 -65.5q52 -43 138 -64q35 -10 80 -10q10 0 10 -10.5 t-1.5 -20t-4.5 -18.5q-7 -22 -19 -22h-32q-165 0 -288 66q-138 76 -138 225q0 92 63 231q17 37 33.5 75t33.5 73t30 70q29 76 29 123t-7.5 72.5t-21.5 44.5q-32 40 -89 40z" />
<glyph unicode="|" horiz-adv-x="581" d="M300 1645h131v-1680h-131v1680z" />
<glyph unicode="}" horiz-adv-x="857" d="M639 868q0 -92 125 -123q22 0 22 -23.5t-12.5 -40.5t-25.5 -17q-99 0 -158 -104q-49 -88 -49 -207l8 -214q0 -349 -343 -458q-117 -37 -239 -37h-32q-10 0 -10 12.5t2 22t5 17.5q7 19 18 19q45 0 84.5 9.5t90 28t98.5 51.5q112 78 142 221q21 101 31 240t16.5 169.5 t18 57t24.5 48.5q25 42 50 65t43 38t31 26q26 22 26 37q0 14 -21 40t-34 44q-33 46 -33 96t5.5 78.5t14 57t19 57t29 81.5t43 127.5t24.5 134.5t-16 95t-44 61q-76 67 -228 67q-21 0 -21 24q0 47 45 47q139 0 213 -24t121 -59q105 -78 105 -202q0 -94 -63 -227 q-17 -36 -32.5 -69.5t-31.5 -66t-30 -66.5q-31 -78 -31 -134z" />
<glyph unicode="~" horiz-adv-x="898" d="M1003 781q0 -144 -67 -231q-64 -84 -156 -84q-52 0 -95.5 21t-93.5 55t-84.5 56t-58.5 34q-40 18 -70.5 18t-50 -8.5t-35.5 -29.5q-36 -46 -38 -142h-119q0 145 67 232q63 83 156 83q61 0 97 -13q71 -25 178 -103q15 -9 32 -21t35 -22q42 -25 68.5 -25t46.5 9.5t35 31.5 q35 47 35 139h118z" />
<glyph unicode="&#xa1;" horiz-adv-x="632" d="M333 796q14 66 29 88q32 45 94 45q49 0 61 -75q3 -19 3 -38t-10 -39.5t-26 -36.5q-33 -35 -76 -35q-75 0 -75 91zM241 -518q-5 -31 -30 -32l-108 5q-11 1 -23.5 4t-12.5 12.5t1 13.5l276 1039h59z" />
<glyph unicode="&#xa2;" horiz-adv-x="606" d="M656.5 882.5q23.5 -19.5 23.5 -79.5t-35 -60q-34 0 -76 27.5t-58 33.5l-160 -750h12q55 0 102 32t74 53.5t53 38.5l21 -26q-79 -79 -119 -107q-77 -54 -159 -67l-72 -338h-61l71 333q-196 4 -196 219q0 242 121 440q111 180 267 245l52 243h61l-48 -223q35 5 69 5 t57.5 -19.5zM294 73l155 729q-123 -49 -193 -378q-26 -119 -26 -213t64 -138z" />
<glyph unicode="&#xa3;" horiz-adv-x="1487" d="M1262.5 -5q11.5 4 24.5 4.5t29 -5.5t30 -20q31 -31 31 -95.5t-28.5 -131t-76.5 -116.5q-105 -108 -252 -108q-102 0 -226 80q-56 36 -94.5 61.5t-66.5 42t-49 26t-42 13.5q-30 7 -83 7t-76.5 -16.5t-45.5 -41.5t-42 -54.5t-41 -54.5q-49 -58 -86.5 -58t-52.5 14t-15 45.5 t17.5 56t46.5 46.5q54 42 134 74q62 37 77 61q70 118 147 313h-276l14 64h288l263 630q137 328 315 467q142 111 317 111q87 0 107 -59q5 -17 5 -37t-18 -39t-45.5 -19t-46.5 13.5t-37 29.5q-47 43 -86.5 43t-71 -11t-56.5 -30q-35 -27 -81 -98q-74 -155 -428 -1001h317 l-14 -64h-330q-92 -217 -216 -334q13 1 26 1h72.5t160.5 -23.5t186 -83.5q127 -92 243 -92q53 0 100 48q45 44 45 82.5t-9 62.5t-20 47q-27 60 -27 85t6 35.5t16 17.5t21.5 11z" />
<glyph unicode="&#xa4;" horiz-adv-x="1049" d="M747 404q-97 -74 -218.5 -74t-222.5 79l-192 -191l-62 62l194 193q-65 92 -65 210.5t76 211.5l-196 198l63 63l197 -198q95 72 211 72t207 -67l194 194l62 -62l-194 -195q83 -98 83 -215.5t-74 -218.5l187 -188l-62 -62zM279 682q0 -53 20 -99t54 -81q73 -75 178 -75 t180 75t75 180t-75 178q-75 74 -180 74q-106 0 -178 -74q-74 -75 -74 -178z" />
<glyph unicode="&#xa5;" horiz-adv-x="1484" d="M375 27q0 13 20 13h60q71 0 126 54q40 38 46 78l27 133h-269q-21 0 -21 20l5 30q5 24 22 24h279q11 51 29 165h-263q-21 0 -21 20l5 30q5 25 22 25h234q-35 79 -79 183q-185 435 -206 470.5t-39 54.5q-38 42 -69.5 42t-31.5 13v13q0 11 19 14h441q19 0 19 -14v-13 q0 -13 -16 -13h-38q-49 0 -72 -41q-9 -15 -9 -38t23 -74.5t49.5 -112.5t52.5 -123q67 -159 93 -217t29 -65.5t6 -14.5q9 -17 18 -17q15 0 36 26t39.5 47.5t34.5 40.5t27 32t57 67t124.5 149.5t123 147t51.5 71.5t7 47t-20 51t-60 24h-37q-20 0 -20 14v13q0 14 20 14h370 q7 0 11 -4.5t4 -7.5v-13q0 -11 -6 -14t-16 -5q-35 -8 -51.5 -18.5t-36.5 -30t-40 -41.5q-29 -31 -110.5 -129t-205 -243.5t-240.5 -284.5h266q21 0 21 -20l-6 -30q-5 -25 -21 -25h-310q-8 -42 -17 -82.5t-18 -82.5h299q21 0 21 -20l-6 -30q-5 -24 -21 -24h-308l-21 -105 q-5 -23 -5 -39q0 -56 44 -88.5t125 -32.5h47q18 0 18 -13v-14q0 -13 -16 -13h-625q-20 0 -20 15v12z" />
<glyph unicode="&#xa6;" horiz-adv-x="571" d="M421 1645v-750h-121v750h121zM421 717v-752h-121v752h121z" />
<glyph unicode="&#xa7;" horiz-adv-x="1031" d="M572 1436q-66 -72 -66 -135q0 -108 48 -194q23 -62 91.5 -188.5t107 -204t69.5 -162.5q71 -196 71 -345t-41.5 -273t-127.5 -228q-189 -229 -537 -276q-87 0 -148 30.5t-87.5 61t-26.5 55.5t5 38t18 25q33 27 75 27t59 -12t32.5 -30.5t31 -39.5t35.5 -39q46 -43 94 -43 t95.5 15.5t89.5 44.5q100 69 100 163q0 68 -20.5 120t-56.5 129.5t-98 194t-110 222.5q-106 236 -106 427q0 175 87 350q143 291 410 389q93 34 164 34t118 -9.5t90 -28.5q103 -47 103 -124q0 -46 -61 -67q-23 -8 -51.5 -8t-45 12t-32 30.5t-31.5 39.5t-36 39 q-44 43 -89.5 43t-69 -4.5t-45.5 -14.5q-33 -13 -108 -64zM423 1299q-159 -215 -159 -425q0 -174 118 -448q50 -117 114.5 -251t84 -178.5t28.5 -74t16 -62.5q14 -65 18 -137q115 115 145 333q8 63 8 126.5t-18 140t-47 155t-65 156t-72 150.5q-97 203 -112 245t-24.5 73.5 t-17.5 65.5q-17 81 -17 131z" />
<glyph unicode="&#xa8;" horiz-adv-x="743" d="M790 1188q-28 -28 -60 -28t-50.5 7.5t-31.5 20.5q-29 29 -29 70q0 67 61 93q18 8 50 8t60 -29.5t28 -71.5t-28 -70zM430.5 1188q-28.5 -28 -60.5 -28t-50 7.5t-32 20.5q-28 29 -28 70q0 66 60 93q18 8 39 8q42 0 63 -21q37 -37 37 -79.5t-28.5 -70.5z" />
<glyph unicode="&#xa9;" horiz-adv-x="1717" d="M90 723q0 207 104 384q101 172 273 273q177 104 384 104t384 -104q172 -101 273 -273q104 -177 104 -384t-104 -384q-101 -172 -273 -273q-177 -104 -384 -104t-384 104q-172 101 -273 273q-104 177 -104 384zM210 900q-24 -85 -24 -176.5t24 -176.5t67 -158.5 t103.5 -134.5t134.5 -104q157 -91 335 -91q275 0 470 195q123 123 171 293q24 85 24 176.5t-24 176.5t-67 159t-104 134.5t-134 103.5q-156 91 -336 91q-178 0 -335 -91q-231 -134 -305 -397zM1168 302q-2 -5 -14 -2t-30 3t-49 -7t-67 -15q-97 -22 -170 -22t-165.5 33.5 t-162.5 95.5q-152 133 -152 344q0 216 150 358q146 137 364 137q87 0 169 -20.5t103 -29.5t29 -9l20 5h20q8 0 8 -11v-203q0 -7 -9 -7q-14 0 -17 4q-8 14 -15 30q-100 196 -298 196q-182 0 -284 -118q-98 -113 -98 -294q0 -195 108 -326q115 -139 306 -139q197 0 326 215 q1 4 8 4h8q7 0 7 -9q0 -6 -4 -14z" />
<glyph unicode="&#xaa;" horiz-adv-x="558" d="M367.923 705.896q2.52051 9.89941 3.15039 20.0986q0.629883 10.2002 -4.41016 10.2002q-6.93066 0 -30.8701 -20.0996q-23.9404 -20.0986 -44.1006 -36.8984q-20.1602 -16.7988 -42.5254 -34.7979q-22.3652 -18 -43.7852 -32.3994q-48.5107 -34.1982 -71.1904 -34.1982 q-22.6807 0 -36.8555 17.999q-14.1758 17.999 -21.7354 42.5986q-12.6006 41.998 -12.6006 80.9961q0 124.795 99.541 239.391q95.1309 107.996 233.732 152.994q68.6699 22.1992 139.86 22.1992q10.71 0 10.71 -16.7998l-95.1299 -415.183 q-0.629883 -4.80078 -1.26074 -9.59961q-1.25977 -8.40039 -1.25977 -15.8994q0 -7.5 5.04004 -14.7002q5.04004 -7.19922 11.0254 -7.19922t15.1201 6.89941t18.585 15.2998q26.46 21.5986 32.7607 21.5986q10.0801 0 10.0801 -10.7998q0 -11.3994 -68.041 -61.1973 q-68.6709 -50.998 -86.3105 -50.998q-19.5303 0 -27.0898 24.5996q-3.78027 13.1992 -3.78027 29.6982q0 16.5 1.88965 30.2988q1.89062 13.7998 4.41016 24.8994t5.04004 20.999zM445.413 1055.98q0 9.59961 -23.9395 9.59961q-23.9404 0 -56.0713 -8.09961 q-32.1299 -8.09961 -61.7402 -23.0996q-108.99 -54.5977 -139.861 -184.792q-13.2295 -56.3984 -14.8047 -90.5967t-0.314453 -50.3975q1.25977 -16.1992 6.2998 -30.5996q12.5996 -33.5977 46.6201 -33.5977q45.3604 22.1982 97.9658 67.1973 q52.6055 44.998 83.4756 71.3965z" />
<glyph unicode="&#xab;" horiz-adv-x="812" d="M520 927l-279 -375l126 -373h-49l-218 373l373 375h47zM822 927l-279 -375l126 -373h-49l-218 373l373 375h47z" />
<glyph unicode="&#xac;" horiz-adv-x="1154" d="M1129 689v-508h-127v381h-737v127h864z" />
<glyph unicode="&#xad;" horiz-adv-x="913" d="M861 579l-32 -152h-704l32 152h704z" />
<glyph unicode="&#xae;" horiz-adv-x="1702" d="M90 723q0 207 104 384q101 172 273 273q177 104 384 104t384 -104q172 -101 273 -273q104 -177 104 -384t-104 -384q-101 -172 -273 -273q-177 -104 -384 -104t-384 104q-172 101 -273 273q-104 177 -104 384zM210 900q-24 -85 -24 -176.5t24 -176.5t67 -158.5 t103.5 -134.5t134.5 -104q157 -91 335 -91q275 0 470 195q123 123 171 293q24 85 24 176.5t-24 176.5t-67 159t-104 134.5t-134 103.5q-156 91 -336 91q-178 0 -335 -91q-231 -134 -305 -397zM455 320q-5 0 -5 12v7q0 5 5 5l54 8q61 14 61 70v634q0 50 -42 73q-23 13 -52 13 h-23q-5 0 -5 5v14q0 5 8 5l63 2q66 2 132.5 4.5t133.5 2.5h60q107 -8 177 -76q73 -71 73 -174q0 -124 -142 -190q8 -10 65 -105.5t64 -107t17 -27t20.5 -31.5t25 -39.5t46 -52t54 -37t23 -10.5t0.5 -5q0 -15 -20 -15q-84 0 -178 63q-28 33 -71 91l-154 241q-2 2 -3 2l-141 7 h-5q-9 0 -9 -9v-276q0 -32 18 -49t45 -20.5t45 -7t26 -3.5t8 -5v-14q0 -5 -5 -5h-369zM748 1144q-61 0 -61 -12v-363q1 -21 3 -26t17.5 -7t64.5 -2t89.5 14.5t66.5 41.5q47 49 47 149q0 97 -61 152q-58 53 -166 53z" />
<glyph unicode="&#xaf;" horiz-adv-x="764" d="M272 1307h627l-27 -99h-627z" />
<glyph unicode="&#xb0;" horiz-adv-x="658" d="M333 1148q0 -64 46 -110t110 -46t110 46t46 110t-46 110q-45 45 -110 45t-110 -45q-46 -46 -46 -110zM260 1150q0 95 67 162t162 67t162 -67t67 -162q0 -94 -67 -162q-66 -68 -162 -68t-162 68q-67 68 -67 162z" />
<glyph unicode="&#xb1;" horiz-adv-x="1162" d="M265 689h371v367h135v-367h366v-127h-366v-378h-135v378h-371v127zM265 127h872v-127h-872v127z" />
<glyph unicode="&#xb2;" horiz-adv-x="661" d="M515 552h-525q-1 0 -1 8q0 20 39 55t97 80.5t116.5 90.5t113 90.5t96.5 91.5q93 102 93 186q0 61 -40 106q-40 46 -102 46q-77 0 -125.5 -35t-67.5 -56.5t-29.5 -39t-16 -29.5t-9.5 -14q-8 -5 -18 -5t-10 5q16 49 50.5 96t75.5 80q88 71 203 71q146 0 192 -109 q14 -34 14 -81.5t-21.5 -93t-61.5 -87.5q-60 -63 -229 -178q-86 -62 -166.5 -128t-80.5 -69h355q46 0 64 19q20 20 51 82h24l-62 -162q-7 -14 -19 -20z" />
<glyph unicode="&#xb3;" horiz-adv-x="661" d="M244 1189q-25 0 -23 9q0 1 1 2q74 120 205 166q37 13 93 13t98.5 -29.5t42.5 -68.5t-8.5 -62.5t-23.5 -44.5q-40 -57 -120 -103q-31 -18 -31 -20q17 1 22 1h6q71 0 114 -54q38 -46 38 -101t-18.5 -100t-49 -84.5t-71 -72t-83.5 -55.5q-93 -49 -170 -49q-129 0 -183 45 q-23 19 -25 50q9 40 61 40q13 0 29.5 -15t38.5 -34q59 -49 118 -49q100 8 175 103q70 89 70 187q0 93 -76 117q-22 7 -37.5 7t-27 -2.5t-23.5 -6.5q-24 -7 -36.5 -15t-18 -8t-5.5 7.5t5 12t11.5 9t13 8.5t24 14t52.5 33.5t64 52.5q65 65 65 128q0 38 -23 58q-39 35 -81.5 35 t-76.5 -14.5t-60 -34.5q-31 -22 -76 -75z" />
<glyph unicode="&#xb4;" horiz-adv-x="700" d="M172 1096q-4 4 -4 6t4 6l213 295q36 49 71 49t55.5 -22.5t20.5 -52.5q0 -46 -55 -93l-269 -217q-5 -3 -8 -3t-6 3z" />
<glyph unicode="&#xb5;" horiz-adv-x="1030" d="M612.5 63q-56.5 -30 -83.5 -43.5t-48.5 -22.5t-43.5 -15q-38 -9 -93.5 -9t-119.5 14l-124 -583q-82 -44 -115 -44q-26 0 -26 33q0 17 11 67q28 130 49 234l252 1185q3 14 5.5 17.5t11.5 3.5h119q10 0 10 -5.5t-3 -15.5l-138 -649q-2 -7 -2 -14v-12q0 -67 58 -102 q49 -29 124 -29q147 0 272 118l142 669q1 3 3 10t5 14q9 16 24 16h91q22 -3 22 -29l-143 -674q-3 -14 -3 -25q0 -57 76 -57l59 4q4 0 4 -8q0 -14 -20 -22l-289 -110q-12 -6 -19.5 -6t-7.5 7.5t22 112.5q0 5 -12.5 2.5t-69 -32.5z" />
<glyph unicode="&#xb6;" horiz-adv-x="1091" d="M629 -245l376 1814h-166l-373 -1791q-4 -19 -8 -26t-15 -7h-56q-11 0 -11 13t234 1130q-120 6 -169 16.5t-92 27.5t-76 46q-73 63 -73 177t29 195.5t82.5 136t128.5 86.5t168 48q138 24 422 24h213q23 0 23 -11q0 -1 -1.5 -7t-5.5 -26t-9.5 -23.5t-22.5 -3.5h-133 l-377 -1811q-4 -18 -21 -18h-55q-12 0 -12 10z" />
<glyph unicode="&#xb7;" horiz-adv-x="650" d="M330.5 626q-10.5 24 -10.5 51t10.5 50.5t27.5 41.5q38 39 92 39q53 0 92 -39q38 -38 38 -78.5t-10 -64.5t-28 -41q-39 -37 -92 -37t-81 27t-38.5 51z" />
<glyph unicode="&#xb8;" horiz-adv-x="749" d="M146 -532q-56 0 -56 40q0 4 10 14.5t26 13.5q138 26 160.5 37.5t37.5 26.5q34 34 34 67.5t-12.5 53t-30.5 33.5q-33 26 -78 31l45 202h63l-31 -141q112 -30 142 -109q9 -22 9 -61t-29 -79.5t-75 -66.5q-81 -47 -215 -62z" />
<glyph unicode="&#xb9;" horiz-adv-x="661" d="M457 1273q-159 -98 -191 -104q-4 0 -6 9q-1 9 15.5 18t47.5 29.5t65 45.5q81 58 136 108h35q11 0 11 -4.5t-1 -6.5l-157 -719q-6 -18 -6 -43q0 -30 124 -30q4 0 4 -3l-4 -16q0 -5 -5 -5h-379q-5 0 -3 12t8 12q63 4 95.5 5t45.5 7q17 9 26 46z" />
<glyph unicode="&#xba;" horiz-adv-x="596" d="M465.834 1133.98q37.1699 0 71.1904 -62.3984q35.9102 -64.7969 35.9102 -129.895q0 -65.0967 -15.75 -109.795t-42.5254 -83.0967t-63.3154 -69.8975q-36.541 -31.499 -78.1211 -53.6973q-86.3105 -47.3984 -171.991 -47.3984q-34.0205 0 -69.3008 62.9971 q-35.2803 64.1973 -35.2803 119.396q0 55.1973 15.4355 103.496q15.4355 48.2979 42.21 89.3955q26.7754 41.0986 62.6855 74.6973t76.8604 56.998q86.3115 49.1982 171.992 49.1982zM197.137 838.49q-5.98535 -37.499 -5.98535 -63.8975q0 -26.3994 5.04004 -51.2979 q5.04004 -24.8994 16.3799 -47.6982q27.0908 -53.3975 74.3408 -53.3975q85.6807 0 141.751 104.396q49.7705 92.9961 49.7705 203.392q0 73.7969 -34.6504 125.995q-22.6797 33.5986 -54.1797 33.5986q-31.501 0 -58.2764 -14.3994q-26.7744 -14.3994 -48.5098 -38.6982 q-21.7354 -24.2998 -39.0605 -56.6982t-28.9805 -68.0967q-11.6553 -35.6992 -17.6396 -73.1973z" />
<glyph unicode="&#xbb;" horiz-adv-x="928" d="M631 927l217 -375l-372 -373h-49l280 373l-123 375h47zM329 927l217 -375l-372 -373h-49l280 373l-123 375h47z" />
<glyph unicode="&#xbc;" horiz-adv-x="1700" d="M1707 1498h130l-1408 -1553h-129zM582 1273q-159 -98 -191 -104q-4 0 -6 9q-1 9 15.5 18t47.5 29.5t65 45.5q81 58 136 108h35q11 0 11 -4.5t-1 -6.5l-157 -719q-6 -18 -6 -43q0 -30 124 -30q4 0 4 -3l-4 -16q0 -5 -5 -5h-379q-5 0 -3 12t8 12q63 4 95.5 5t45.5 7 q17 9 26 46zM1441 -15q52 244 52 247.5t-23 3.5h-313q-13 0 -13 7q0 12 6 18l513 551q13 13 25 13q25 0 25 -10l-111 -509q0 -4 11 -4h105q18 0 18 -8l-9 -44q-4 -14 -16 -14h-115q-7 0 -8.5 -2t-3.5 -10l-52 -235q0 -13 -13 -13h-68q-10 0 -10 9zM1496 302q11 0 16 12 q18 84 31 142t21 96t13 58.5t7 31t2.5 13t0.5 3.5q0 11 -12 11q-9 0 -21 -12l-312 -338q-9 -9 -9 -13t19 -4h244z" />
<glyph unicode="&#xbd;" horiz-adv-x="1700" d="M1707 1498h130l-1408 -1553h-129zM582 1273q-159 -98 -191 -104q-4 0 -6 9q-1 9 15.5 18t47.5 29.5t65 45.5q81 58 136 108h35q11 0 11 -4.5t-1 -6.5l-157 -719q-6 -18 -6 -43q0 -30 124 -30q4 0 4 -3l-4 -16q0 -5 -5 -5h-379q-5 0 -3 12t8 12q63 4 95.5 5t45.5 7 q17 9 26 46zM1635 1h-525q-1 0 -1 8q0 20 39 55t97 80.5t116.5 90.5t113 90.5t96.5 91.5q93 102 93 186q0 61 -40 106q-40 46 -102 46q-77 0 -125.5 -35t-67.5 -56.5t-29.5 -39t-16 -29.5t-9.5 -14q-8 -5 -18 -5t-10 5q16 49 50.5 96t75.5 80q88 71 203 71q146 0 192 -109 q14 -34 14 -81.5t-21.5 -93t-61.5 -87.5q-60 -63 -229 -178q-86 -62 -166.5 -128t-80.5 -69h355q46 0 64 19q20 20 51 82h24l-62 -162q-7 -14 -19 -20z" />
<glyph unicode="&#xbe;" horiz-adv-x="1700" d="M1707 1498h130l-1408 -1553h-129zM384 1189q-25 0 -23 9q0 1 1 2q74 120 205 166q37 13 93 13t98.5 -29.5t42.5 -68.5t-8.5 -62.5t-23.5 -44.5q-40 -57 -120 -103q-31 -18 -31 -20q17 1 22 1h6q71 0 114 -54q38 -46 38 -101t-18.5 -100t-49 -84.5t-71 -72t-83.5 -55.5 q-93 -49 -170 -49q-129 0 -183 45q-23 19 -25 50q9 40 61 40q13 0 29.5 -15t38.5 -34q59 -49 118 -49q100 8 175 103q70 89 70 187q0 93 -76 117q-22 7 -37.5 7t-27 -2.5t-23.5 -6.5q-24 -7 -36.5 -15t-18 -8t-5.5 7.5t5 12t11.5 9t13 8.5t24 14t52.5 33.5t64 52.5 q65 65 65 128q0 38 -23 58q-39 35 -81.5 35t-76.5 -14.5t-60 -34.5q-31 -22 -76 -75zM1441 -15q52 244 52 247.5t-23 3.5h-313q-13 0 -13 7q0 12 6 18l513 551q13 13 25 13q25 0 25 -10l-111 -509q0 -4 11 -4h105q18 0 18 -8l-9 -44q-4 -14 -16 -14h-115q-7 0 -8.5 -2 t-3.5 -10l-52 -235q0 -13 -13 -13h-68q-10 0 -10 9zM1496 302q11 0 16 12q18 84 31 142t21 96t13 58.5t7 31t2.5 13t0.5 3.5q0 11 -12 11q-9 0 -21 -12l-312 -338q-9 -9 -9 -13t19 -4h244z" />
<glyph unicode="&#xbf;" horiz-adv-x="867" d="M576 -331q43 0 43 -73q0 -101 -112 -112q-32 -3 -82.5 -3t-106.5 27t-95 73q-83 96 -83 216t28.5 185.5t78.5 112.5t117 86.5t144 91.5q69 47 107 215q8 39 18 66h39q0 -274 -79 -378q-62 -83 -169 -142q-136 -75 -172 -123.5t-36 -101.5t20 -85t51 -53q61 -41 142 -41 q29 0 62 14q61 25 85 25zM610 796q14 66 29 88q32 45 94 45q49 0 61 -75q3 -19 3 -38t-10 -39.5t-26 -36.5q-33 -35 -76 -35q-75 0 -75 91z" />
<glyph unicode="&#xc0;" horiz-adv-x="1558" d="M-20 12q0 28 21 28h22q38 0 58 14.5t70 80t139.5 181.5t180 234t180 235t172 224.5t155 202t105.5 137.5t48.5 55.5t38.5 12.5h26q29 0 37 -15.5t9 -38.5l29 -1213q3 -84 103 -104q27 -6 52 -6h44q13 0 13 -15v-11q0 -14 -14 -14h-621q-14 0 -14 11v19q0 10 25 10t52.5 2 t46.5 6q72 12 94 41t30 55q12 38 12 108l-7 288v18q0 44 -53 44h-402q-40 0 -65 -34q-51 -69 -103.5 -136t-84.5 -109.5t-45 -60.5t-24 -37q-25 -43 -25 -86t37.5 -71t98.5 -28h49q13 0 13 -11q-4 -25 -9.5 -27t-15.5 -2h-459q-19 0 -19 12zM1083 727l-11 448q0 27 -10 27 q-11 -1 -30 -27t-59 -79t-88 -114q-106 -136 -151 -195.5t-50 -66t-10 -13.5q-13 -18 -13 -24t5 -6h369q22 0 35 13.5t13 36.5zM1178 1565q-4 -4 -7 -4t-7 4l-269 217q-55 47 -55 85t20.5 60.5t45.5 22.5q45 0 81 -49l213 -295q4 -4 4 -6t-4 -6z" />
<glyph unicode="&#xc1;" horiz-adv-x="1633" d="M-20 12q0 28 21 28h22q38 0 58 14.5t70 80t139.5 181.5t180 234t180 235t172 224.5t155 202t105.5 137.5t48.5 55.5t38.5 12.5h26q29 0 37 -15.5t9 -38.5l29 -1213q3 -84 103 -104q27 -6 52 -6h44q13 0 13 -15v-11q0 -14 -14 -14h-621q-14 0 -14 11v19q0 10 25 10t52.5 2 t46.5 6q72 12 94 41t30 55q12 38 12 108l-7 288v18q0 44 -53 44h-402q-40 0 -65 -34q-51 -69 -103.5 -136t-84.5 -109.5t-45 -60.5t-24 -37q-25 -43 -25 -86t37.5 -71t98.5 -28h49q13 0 13 -11q-4 -25 -9.5 -27t-15.5 -2h-459q-19 0 -19 12zM1083 727l-11 448q0 27 -10 27 q-11 -1 -30 -27t-59 -79t-88 -114q-106 -136 -151 -195.5t-50 -66t-10 -13.5q-13 -18 -13 -24t5 -6h369q22 0 35 13.5t13 36.5zM1198 1594q-4 4 -4 6t4 6l213 295q36 49 71 49t55.5 -22.5t20.5 -52.5q0 -46 -55 -93l-269 -217q-5 -3 -8 -3t-6 3z" />
<glyph unicode="&#xc2;" horiz-adv-x="1558" d="M-20 12q0 28 21 28h22q38 0 58 14.5t70 80t139.5 181.5t180 234t180 235t172 224.5t155 202t105.5 137.5t48.5 55.5t38.5 12.5h26q29 0 37 -15.5t9 -38.5l29 -1213q3 -84 103 -104q27 -6 52 -6h44q13 0 13 -15v-11q0 -14 -14 -14h-621q-14 0 -14 11v19q0 10 25 10t52.5 2 t46.5 6q72 12 94 41t30 55q12 38 12 108l-7 288v18q0 44 -53 44h-402q-40 0 -65 -34q-51 -69 -103.5 -136t-84.5 -109.5t-45 -60.5t-24 -37q-25 -43 -25 -86t37.5 -71t98.5 -28h49q13 0 13 -11q-4 -25 -9.5 -27t-15.5 -2h-459q-19 0 -19 12zM1083 727l-11 448q0 27 -10 27 q-11 -1 -30 -27t-59 -79t-88 -114q-106 -136 -151 -195.5t-50 -66t-10 -13.5q-13 -18 -13 -24t5 -6h369q22 0 35 13.5t13 36.5zM1007 1562h-50l280 386h106v-388h-50l-44 247z" />
<glyph unicode="&#xc3;" horiz-adv-x="1558" d="M-20 12q0 28 21 28h22q38 0 58 14.5t70 80t139.5 181.5t180 234t180 235t172 224.5t155 202t105.5 137.5t48.5 55.5t38.5 12.5h26q29 0 37 -15.5t9 -38.5l29 -1213q3 -84 103 -104q27 -6 52 -6h44q13 0 13 -15v-11q0 -14 -14 -14h-621q-14 0 -14 11v19q0 10 25 10t52.5 2 t46.5 6q72 12 94 41t30 55q12 38 12 108l-7 288v18q0 44 -53 44h-402q-40 0 -65 -34q-51 -69 -103.5 -136t-84.5 -109.5t-45 -60.5t-24 -37q-25 -43 -25 -86t37.5 -71t98.5 -28h49q13 0 13 -11q-4 -25 -9.5 -27t-15.5 -2h-459q-19 0 -19 12zM1083 727l-11 448q0 27 -10 27 q-11 -1 -30 -27t-59 -79t-88 -114q-106 -136 -151 -195.5t-50 -66t-10 -13.5q-13 -18 -13 -24t5 -6h369q22 0 35 13.5t13 36.5zM1390.5 1878.5q4.5 20.5 4.5 35t16 14.5h19q14 0 14 -37t-11 -69t-32 -56q-48 -56 -119 -56q-57 0 -123.5 35.5t-103.5 52t-63.5 16.5t-42 -11.5 t-28.5 -29.5q-30 -42 -30 -89q0 -12 -16 -12h-21q-8 0 -8 31t11 70.5t31 68.5q42 60 114 60q55 0 128 -36t112.5 -52.5t68 -16.5t42.5 12.5t23.5 30.5t14 38.5z" />
<glyph unicode="&#xc4;" horiz-adv-x="1558" d="M-20 12q0 28 21 28h22q38 0 58 14.5t70 80t139.5 181.5t180 234t180 235t172 224.5t155 202t105.5 137.5t48.5 55.5t38.5 12.5h26q29 0 37 -15.5t9 -38.5l29 -1213q3 -84 103 -104q27 -6 52 -6h44q13 0 13 -15v-11q0 -14 -14 -14h-621q-14 0 -14 11v19q0 10 25 10t52.5 2 t46.5 6q72 12 94 41t30 55q12 38 12 108l-7 288v18q0 44 -53 44h-402q-40 0 -65 -34q-51 -69 -103.5 -136t-84.5 -109.5t-45 -60.5t-24 -37q-25 -43 -25 -86t37.5 -71t98.5 -28h49q13 0 13 -11q-4 -25 -9.5 -27t-15.5 -2h-459q-19 0 -19 12zM1083 727l-11 448q0 27 -10 27 q-11 -1 -30 -27t-59 -79t-88 -114q-106 -136 -151 -195.5t-50 -66t-10 -13.5q-13 -18 -13 -24t5 -6h369q22 0 35 13.5t13 36.5zM1416 1759q-28 -28 -60 -28t-50.5 7.5t-31.5 20.5q-29 29 -29 70q0 67 61 93q18 8 50 8t60 -29.5t28 -71.5t-28 -70zM1056.5 1759 q-28.5 -28 -60.5 -28t-50 7.5t-32 20.5q-28 29 -28 70q0 66 60 93q18 8 39 8q42 0 63 -21q37 -37 37 -79.5t-28.5 -70.5z" />
<glyph unicode="&#xc5;" horiz-adv-x="1558" d="M-20 12q0 28 21 28h22q38 0 58 14.5t70 80t139.5 181.5t180 234t180 235t172 224.5t155 202t105.5 137.5t48.5 55.5t38.5 12.5h26q29 0 37 -15.5t9 -38.5l29 -1213q3 -84 103 -104q27 -6 52 -6h44q13 0 13 -15v-11q0 -14 -14 -14h-621q-14 0 -14 11v19q0 10 25 10t52.5 2 t46.5 6q72 12 94 41t30 55q12 38 12 108l-7 288v18q0 44 -53 44h-402q-40 0 -65 -34q-51 -69 -103.5 -136t-84.5 -109.5t-45 -60.5t-24 -37q-25 -43 -25 -86t37.5 -71t98.5 -28h49q13 0 13 -11q-4 -25 -9.5 -27t-15.5 -2h-459q-19 0 -19 12zM1083 727l-11 448q0 27 -10 27 q-11 -1 -30 -27t-59 -79t-88 -114q-106 -136 -151 -195.5t-50 -66t-10 -13.5q-13 -18 -13 -24t5 -6h369q22 0 35 13.5t13 36.5zM996 1799q0 38 14.5 71.5t39.5 58.5q55 55 131 55q77 0 130 -55q54 -55 54 -129q0 -76 -54 -130t-130 -54q-75 0 -131 54q-54 53 -54 129z M1080 1845.5q-9 -20.5 -9 -44t9 -44.5t24 -36q34 -34 69.5 -34t56 9t36.5 25q33 33 33 68.5t-9 56t-24 35.5q-34 34 -69 34t-56 -9t-36.5 -24.5t-24.5 -36z" />
<glyph unicode="&#xc6;" horiz-adv-x="2109" d="M2006 311q0 -12 -25 -69t-42 -110t-28 -82t-24 -39.5t-41 -10.5h-1091q-7 0 -7 8l5 24q4 8 24.5 8t50 4.5t52.5 19.5q49 32 67 119l82 384h-421q-41 0 -66.5 -34t-47 -62.5t-42.5 -56.5q-50 -64 -78 -100t-43 -59t-27 -47q-27 -56 -27 -94q0 -74 96 -74h61q12 0 12 -11 v-15q0 -14 -20 -14h-427q-19 0 -19 12v10q0 18 15 18h28q41 0 61 17t45.5 49.5t77 100t114 149.5t133.5 174.5t143.5 187.5t144 188.5t136 177.5t119 154t92.5 119q-44 13 -106 13q-6 0 -6 8l5 24q2 8 10 8h1047q23 0 36.5 -4.5t13.5 -16t-0.5 -17.5t-4.5 -31 q-4 -27 -33 -238q-2 -14 -15 -14q-29 0 -33 23q-3 15 -3 34.5t-3.5 45t-17.5 58t-37 55.5q-50 50 -127 50h-367q-55 0 -65 -8q-13 -10 -23 -57l-105 -500q-2 -8 -2 -12q0 -25 42 -25h367q65 0 126 47q48 37 80 96q6 13 17 13h17q9 0 9 -7t-0.5 -7t-0.5 -2l-80 -373 q-4 -21 -20 -21q-11 0 -14.5 3.5t-5.5 16.5t-2.5 30t-6.5 41.5t-19.5 42.5t-33.5 28q-33 17 -97 17h-361q-8 0 -23 -7t-21 -26t-9.5 -37.5t-15.5 -70.5t-27 -128t-26 -125q-15 -68 -15 -109.5t16.5 -64t45.5 -33.5q70 -26 305 -12q131 8 184 29t84 42q42 30 90 79t59 62.5 t22 24.5q26 28 46.5 28t20.5 -19zM646 667q-10 -10 -10 -21q0 -4 20 -4h352q36 0 43 28l124 580q4 14 4 32t-2.5 26.5t-16 8.5t-23.5 -10.5t-32 -38.5l-438 -572z" />
<glyph unicode="&#xc7;" horiz-adv-x="1531" d="M1299 20l-83 12q-67 0 -142 -22q-140 -40 -201 -40l-20 1l-107 -125q72 -19 111 -74q29 -41 29 -77q-16 -194 -333 -227q-56 0 -56 43q0 19 14.5 24t38 9t50 9t54 13.5t49.5 22.5q50 32 50 87q0 44 -57 78q-43 25 -93 31l154 191q-267 28 -437 164q-210 169 -210 489 q0 235 147 433q134 180 358 286q217 104 445 104q127 0 240 -21t164 -38q117 -39 117 -95q0 -73 -30.5 -167t-40.5 -116t-21 -22q-20 0 -23 17q-3 51 -6.5 101.5t-25.5 93.5t-58 76.5t-80 57.5q-94 51 -193.5 51t-200.5 -28.5t-191 -80.5t-166 -124t-131 -159 q-118 -186 -118 -393q0 -245 148 -407q154 -167 401 -167q159 0 301 105q124 92 171 215q7 19 15.5 31.5t25.5 12.5q35 0 35 -17q-1 -2 -1.5 -6.5t-2.5 -16.5t-6.5 -34.5t-13 -60.5t-21 -94.5t-22 -99.5t-15 -44.5t-12.5 -1.5z" />
<glyph unicode="&#xc8;" horiz-adv-x="1360" d="M1257 311q0 -12 -25 -69t-42 -110t-28 -82t-24 -39.5t-41 -10.5h-1090q-7 0 -7 8l5 24q4 8 24.5 8t50 4.5t52.5 19.5q49 32 67 119q43 201 75.5 353.5t57 264.5t41 188t27.5 126t17 77.5t9 42.5q3 21 3 42.5t-19.5 41t-49.5 31.5q-52 20 -125 20q-6 0 -6 8l5 24q2 8 10 8 h1046q23 0 36.5 -4.5t13.5 -16t-0.5 -17.5t-4.5 -31q-4 -27 -33 -238q-2 -14 -16 -14q-28 0 -32 23q-3 15 -3 34.5t-3.5 45t-17.5 58t-37 55.5q-50 50 -127 50h-367q-55 0 -65 -8q-13 -10 -23 -57l-105 -500q-2 -8 -2 -12q0 -25 42 -25h367q65 0 127 47q47 37 79 96 q7 13 17 13h17q9 0 9 -7t-0.5 -7t-0.5 -2l-80 -373q-4 -21 -20 -21q-11 0 -14.5 3.5t-5.5 16.5t-2.5 30t-6.5 41.5t-19.5 42.5t-32.5 28q-34 17 -98 17h-361q-8 0 -23 -7t-21 -26t-9.5 -37.5t-15.5 -70.5t-27 -128t-26 -125q-15 -68 -15 -109.5t16.5 -64t45.5 -33.5 q42 -16 141 -16t164.5 4t114.5 12.5t85.5 23t67.5 35.5q42 30 90 79t59 62.5t22 24.5q26 28 46.5 28t20.5 -19zM1129 1565q-4 -4 -7 -4t-7 4l-269 217q-55 47 -55 85t20.5 60.5t45.5 22.5q45 0 81 -49l213 -295q4 -4 4 -6t-4 -6z" />
<glyph unicode="&#xc9;" horiz-adv-x="1360" d="M1257 311q0 -12 -25 -69t-42 -110t-28 -82t-24 -39.5t-41 -10.5h-1090q-7 0 -7 8l5 24q4 8 24.5 8t50 4.5t52.5 19.5q49 32 67 119q43 201 75.5 353.5t57 264.5t41 188t27.5 126t17 77.5t9 42.5q3 21 3 42.5t-19.5 41t-49.5 31.5q-52 20 -125 20q-6 0 -6 8l5 24q2 8 10 8 h1046q23 0 36.5 -4.5t13.5 -16t-0.5 -17.5t-4.5 -31q-4 -27 -33 -238q-2 -14 -16 -14q-28 0 -32 23q-3 15 -3 34.5t-3.5 45t-17.5 58t-37 55.5q-50 50 -127 50h-367q-55 0 -65 -8q-13 -10 -23 -57l-105 -500q-2 -8 -2 -12q0 -25 42 -25h367q65 0 127 47q47 37 79 96 q7 13 17 13h17q9 0 9 -7t-0.5 -7t-0.5 -2l-80 -373q-4 -21 -20 -21q-11 0 -14.5 3.5t-5.5 16.5t-2.5 30t-6.5 41.5t-19.5 42.5t-32.5 28q-34 17 -98 17h-361q-8 0 -23 -7t-21 -26t-9.5 -37.5t-15.5 -70.5t-27 -128t-26 -125q-15 -68 -15 -109.5t16.5 -64t45.5 -33.5 q42 -16 141 -16t164.5 4t114.5 12.5t85.5 23t67.5 35.5q42 30 90 79t59 62.5t22 24.5q26 28 46.5 28t20.5 -19zM778 1594q-4 4 -4 6t4 6l213 295q36 49 71 49t55.5 -22.5t20.5 -52.5q0 -46 -55 -93l-269 -217q-5 -3 -8 -3t-6 3z" />
<glyph unicode="&#xca;" horiz-adv-x="1360" d="M1257 311q0 -12 -25 -69t-42 -110t-28 -82t-24 -39.5t-41 -10.5h-1090q-7 0 -7 8l5 24q4 8 24.5 8t50 4.5t52.5 19.5q49 32 67 119q43 201 75.5 353.5t57 264.5t41 188t27.5 126t17 77.5t9 42.5q3 21 3 42.5t-19.5 41t-49.5 31.5q-52 20 -125 20q-6 0 -6 8l5 24q2 8 10 8 h1046q23 0 36.5 -4.5t13.5 -16t-0.5 -17.5t-4.5 -31q-4 -27 -33 -238q-2 -14 -16 -14q-28 0 -32 23q-3 15 -3 34.5t-3.5 45t-17.5 58t-37 55.5q-50 50 -127 50h-367q-55 0 -65 -8q-13 -10 -23 -57l-105 -500q-2 -8 -2 -12q0 -25 42 -25h367q65 0 127 47q47 37 79 96 q7 13 17 13h17q9 0 9 -7t-0.5 -7t-0.5 -2l-80 -373q-4 -21 -20 -21q-11 0 -14.5 3.5t-5.5 16.5t-2.5 30t-6.5 41.5t-19.5 42.5t-32.5 28q-34 17 -98 17h-361q-8 0 -23 -7t-21 -26t-9.5 -37.5t-15.5 -70.5t-27 -128t-26 -125q-15 -68 -15 -109.5t16.5 -64t45.5 -33.5 q42 -16 141 -16t164.5 4t114.5 12.5t85.5 23t67.5 35.5q42 30 90 79t59 62.5t22 24.5q26 28 46.5 28t20.5 -19zM761 1586h-50l280 386h106v-388h-50l-44 247z" />
<glyph unicode="&#xcb;" horiz-adv-x="1360" d="M1257 311q0 -12 -25 -69t-42 -110t-28 -82t-24 -39.5t-41 -10.5h-1090q-7 0 -7 8l5 24q4 8 24.5 8t50 4.5t52.5 19.5q49 32 67 119q43 201 75.5 353.5t57 264.5t41 188t27.5 126t17 77.5t9 42.5q3 21 3 42.5t-19.5 41t-49.5 31.5q-52 20 -125 20q-6 0 -6 8l5 24q2 8 10 8 h1046q23 0 36.5 -4.5t13.5 -16t-0.5 -17.5t-4.5 -31q-4 -27 -33 -238q-2 -14 -16 -14q-28 0 -32 23q-3 15 -3 34.5t-3.5 45t-17.5 58t-37 55.5q-50 50 -127 50h-367q-55 0 -65 -8q-13 -10 -23 -57l-105 -500q-2 -8 -2 -12q0 -25 42 -25h367q65 0 127 47q47 37 79 96 q7 13 17 13h17q9 0 9 -7t-0.5 -7t-0.5 -2l-80 -373q-4 -21 -20 -21q-11 0 -14.5 3.5t-5.5 16.5t-2.5 30t-6.5 41.5t-19.5 42.5t-32.5 28q-34 17 -98 17h-361q-8 0 -23 -7t-21 -26t-9.5 -37.5t-15.5 -70.5t-27 -128t-26 -125q-15 -68 -15 -109.5t16.5 -64t45.5 -33.5 q42 -16 141 -16t164.5 4t114.5 12.5t85.5 23t67.5 35.5q42 30 90 79t59 62.5t22 24.5q26 28 46.5 28t20.5 -19zM1186 1759q-28 -28 -60 -28t-50.5 7.5t-31.5 20.5q-29 29 -29 70q0 67 61 93q18 8 50 8t60 -29.5t28 -71.5t-28 -70zM826.5 1759q-28.5 -28 -60.5 -28t-50 7.5 t-32 20.5q-28 29 -28 70q0 66 60 93q18 8 39 8q42 0 63 -21q37 -37 37 -79.5t-28.5 -70.5z" />
<glyph unicode="&#xcc;" horiz-adv-x="667" d="M450 1275q0 95 -170 95q-6 0 -6 8l5 24q2 8 10 8h521q6 0 6 -8l-5 -24q-2 -8 -23.5 -8t-51 -4.5t-52.5 -19.5q-50 -31 -68 -119l-227 -1067q-4 -16 -4 -40t18 -42t46 -26q38 -12 122 -12q6 0 6 -8l-5 -24q-3 -8 -9 -8h-536q-7 0 -7 8l5 24q4 8 24.5 8t50 4.5t52.5 19.5 q50 31 68 119q43 202 75.5 355t57 266.5t41 191t27.5 128.5t17 79t8 43q4 21 4 29zM689 1565q-4 -4 -7 -4t-7 4l-269 217q-55 47 -55 85t20.5 60.5t45.5 22.5q45 0 81 -49l213 -295q4 -4 4 -6t-4 -6z" />
<glyph unicode="&#xcd;" horiz-adv-x="699" d="M459 1275q0 95 -170 95q-6 0 -6 8l5 24q2 8 10 8h521q6 0 6 -8l-5 -24q-2 -8 -23.5 -8t-51 -4.5t-52.5 -19.5q-50 -31 -68 -119l-227 -1067q-4 -16 -4 -40t18 -42t46 -26q38 -12 122 -12q6 0 6 -8l-5 -24q-3 -8 -9 -8h-536q-7 0 -7 8l5 24q4 8 24.5 8t50 4.5t52.5 19.5 q50 31 68 119q43 202 75.5 355t57 266.5t41 191t27.5 128.5t17 79t8 43q4 21 4 29zM562 1594q-4 4 -4 6t4 6l213 295q36 49 71 49t55.5 -22.5t20.5 -52.5q0 -46 -55 -93l-269 -217q-5 -3 -8 -3t-6 3z" />
<glyph unicode="&#xce;" horiz-adv-x="699" d="M459 1275q0 95 -170 95q-6 0 -6 8l5 24q2 8 10 8h521q6 0 6 -8l-5 -24q-2 -8 -23.5 -8t-51 -4.5t-52.5 -19.5q-50 -31 -68 -119l-227 -1067q-4 -16 -4 -40t18 -42t46 -26q38 -12 122 -12q6 0 6 -8l-5 -24q-3 -8 -9 -8h-536q-7 0 -7 8l5 24q4 8 24.5 8t50 4.5t52.5 19.5 q50 31 68 119q43 202 75.5 355t57 266.5t41 191t27.5 128.5t17 79t8 43q4 21 4 29zM445 1562h-50l280 386h106v-388h-50l-44 247z" />
<glyph unicode="&#xcf;" horiz-adv-x="699" d="M459 1275q0 95 -170 95q-6 0 -6 8l5 24q2 8 10 8h521q6 0 6 -8l-5 -24q-2 -8 -23.5 -8t-51 -4.5t-52.5 -19.5q-50 -31 -68 -119l-227 -1067q-4 -16 -4 -40t18 -42t46 -26q38 -12 122 -12q6 0 6 -8l-5 -24q-3 -8 -9 -8h-536q-7 0 -7 8l5 24q4 8 24.5 8t50 4.5t52.5 19.5 q50 31 68 119q43 202 75.5 355t57 266.5t41 191t27.5 128.5t17 79t8 43q4 21 4 29zM895 1759q-28 -28 -60 -28t-50.5 7.5t-31.5 20.5q-29 29 -29 70q0 67 61 93q18 8 50 8t60 -29.5t28 -71.5t-28 -70zM535.5 1759q-28.5 -28 -60.5 -28t-50 7.5t-32 20.5q-28 29 -28 70 q0 66 60 93q18 8 39 8q42 0 63 -21q37 -37 37 -79.5t-28.5 -70.5z" />
<glyph unicode="&#xd0;" horiz-adv-x="1619" d="M235 1400q0 10 10 10h578q306 0 529 -132q166 -99 232 -262q35 -84 35 -190t-23 -207.5t-73 -193.5t-128 -169.5t-189 -134.5q-236 -121 -584 -121h-615q-7 0 -7 8l7 34q4 8 21 8t49.5 3.5t61.5 16.5q67 30 83 106l106 499h-188q-22 0 -22 20l6 30q5 25 22 25h198 l103 481q5 23 5 50t-12 43.5t-33 23.5q-29 11 -109 11h-63q-7 0 -7 8zM409 221q-2 -10 -2 -32.5t21 -50t54 -46.5q71 -40 161 -40q123 0 235.5 36.5t182.5 74.5t136 95t117 138q113 179 113 435q0 370 -359 487q-143 47 -329 47q-45 0 -68 -10.5t-30 -42.5l-120 -562h340 q21 0 21 -20l-6 -30q-5 -25 -21 -25h-350z" />
<glyph unicode="&#x110;" horiz-adv-x="1619" d="M235 1400q0 10 10 10h578q306 0 529 -132q166 -99 232 -262q35 -84 35 -190t-23 -207.5t-73 -193.5t-128 -169.5t-189 -134.5q-236 -121 -584 -121h-615q-7 0 -7 8l7 34q4 8 21 8t49.5 3.5t61.5 16.5q67 30 83 106l106 499h-188q-22 0 -22 20l6 30q5 25 22 25h198 l103 481q5 23 5 50t-12 43.5t-33 23.5q-29 11 -109 11h-63q-7 0 -7 8zM409 221q-2 -10 -2 -32.5t21 -50t54 -46.5q71 -40 161 -40q123 0 235.5 36.5t182.5 74.5t136 95t117 138q113 179 113 435q0 370 -359 487q-143 47 -329 47q-45 0 -68 -10.5t-30 -42.5l-120 -562h340 q21 0 21 -20l-6 -30q-5 -25 -21 -25h-350z" />
<glyph unicode="&#xd1;" horiz-adv-x="1716" d="M1432.5 260q-14.5 -68 -22 -105.5t-14 -73t-10 -47t-9 -22.5t-21 -11t-29 12t-27 30t-26 38.5t-92 137t-186 273t-181 265t-121.5 177t-75 110t-42 62t-23 34.5q-34 47 -44 47q-15 0 -24 -46q-38 -187 -78 -368t-65.5 -303.5t-25.5 -177t8 -98.5t26 -78q40 -76 118 -76 q34 0 43.5 -3t9.5 -14v-9q0 -14 -22 -14h-451q-16 0 -24 3t-8 17.5t6 20.5t15 10t19.5 6.5t26.5 8.5t39 23.5t43 40.5q43 50 55 101l211 994q2 12 6 26.5t4 32.5t-18.5 35.5t-45.5 28.5q-50 22 -90.5 22t-51.5 2.5t-11 16.5t9 17.5t30 3.5h251q57 0 74 -10q21 -11 51 -56 l693 -1018q6 -9 13.5 -20.5t14 -11.5t9.5 13.5t8.5 33.5t10 44.5t12 64.5t23.5 114t34 159q42 190 63.5 291.5t32.5 148t11 81.5q0 68 -51 108q-23 18 -118 18q-14 0 -18.5 8t-4.5 15q0 17 29 17h441q23 0 23 -20t-23 -20h-40q-80 0 -133 -70q-25 -32 -44.5 -129t-31.5 -153 t-27.5 -129.5t-32.5 -154.5t-35 -165t-35 -162.5t-31.5 -146.5zM1379.5 1878.5q4.5 20.5 4.5 35t16 14.5h19q14 0 14 -37t-11 -69t-32 -56q-48 -56 -119 -56q-57 0 -123.5 35.5t-103.5 52t-63.5 16.5t-42 -11.5t-28.5 -29.5q-30 -42 -30 -89q0 -12 -16 -12h-21q-8 0 -8 31 t11 70.5t31 68.5q42 60 114 60q55 0 128 -36t112.5 -52.5t68 -16.5t42.5 12.5t23.5 30.5t14 38.5z" />
<glyph unicode="&#xd2;" horiz-adv-x="1632" d="M1041 30q-108 -30 -215 -30t-196 23.5t-166 65.5t-139.5 101.5t-106.5 131.5q-93 151 -93 329q0 212 109 399q106 181 286 290q184 112 381.5 112t336 -48t230.5 -132q184 -166 184 -436q0 -226 -112 -422q-169 -292 -499 -384zM808 41q109 0 198.5 36.5t162 100 t127.5 148t92 180.5q76 192 76 396q0 228 -124 366q-134 151 -383 151q-297 0 -473 -252q-160 -229 -160 -542q0 -254 130 -415q135 -169 354 -169zM1098 1590q-4 -4 -7 -4t-7 4l-269 217q-55 47 -55 85t20.5 60.5t45.5 22.5q45 0 81 -49l213 -295q4 -4 4 -6t-4 -6z" />
<glyph unicode="&#xd3;" horiz-adv-x="1632" d="M1041 30q-108 -30 -215 -30t-196 23.5t-166 65.5t-139.5 101.5t-106.5 131.5q-93 151 -93 329q0 212 109 399q106 181 286 290q184 112 381.5 112t336 -48t230.5 -132q184 -166 184 -436q0 -226 -112 -422q-169 -292 -499 -384zM808 41q109 0 198.5 36.5t162 100 t127.5 148t92 180.5q76 192 76 396q0 228 -124 366q-134 151 -383 151q-297 0 -473 -252q-160 -229 -160 -542q0 -254 130 -415q135 -169 354 -169zM1021 1594q-4 4 -4 6t4 6l213 295q36 49 71 49t55.5 -22.5t20.5 -52.5q0 -46 -55 -93l-269 -217q-5 -3 -8 -3t-6 3z" />
<glyph unicode="&#xd4;" horiz-adv-x="1632" d="M1041 30q-108 -30 -215 -30t-196 23.5t-166 65.5t-139.5 101.5t-106.5 131.5q-93 151 -93 329q0 212 109 399q106 181 286 290q184 112 381.5 112t336 -48t230.5 -132q184 -166 184 -436q0 -226 -112 -422q-169 -292 -499 -384zM808 41q109 0 198.5 36.5t162 100 t127.5 148t92 180.5q76 192 76 396q0 228 -124 366q-134 151 -383 151q-297 0 -473 -252q-160 -229 -160 -542q0 -254 130 -415q135 -169 354 -169zM875 1587h-50l280 386h106v-388h-50l-44 247z" />
<glyph unicode="&#xd5;" horiz-adv-x="1632" d="M1041 30q-108 -30 -215 -30t-196 23.5t-166 65.5t-139.5 101.5t-106.5 131.5q-93 151 -93 329q0 212 109 399q106 181 286 290q184 112 381.5 112t336 -48t230.5 -132q184 -166 184 -436q0 -226 -112 -422q-169 -292 -499 -384zM808 41q109 0 198.5 36.5t162 100 t127.5 148t92 180.5q76 192 76 396q0 228 -124 366q-134 151 -383 151q-297 0 -473 -252q-160 -229 -160 -542q0 -254 130 -415q135 -169 354 -169zM1309.5 1807.5q4.5 20.5 4.5 35t16 14.5h19q14 0 14 -37t-11 -69t-32 -56q-48 -56 -119 -56q-57 0 -123.5 35.5t-103.5 52 t-63.5 16.5t-42 -11.5t-28.5 -29.5q-30 -42 -30 -89q0 -12 -16 -12h-21q-8 0 -8 31t11 70.5t31 68.5q42 60 114 60q55 0 128 -36t112.5 -52.5t68 -16.5t42.5 12.5t23.5 30.5t14 38.5z" />
<glyph unicode="&#xd6;" horiz-adv-x="1632" d="M1041 30q-108 -30 -215 -30t-196 23.5t-166 65.5t-139.5 101.5t-106.5 131.5q-93 151 -93 329q0 212 109 399q106 181 286 290q184 112 381.5 112t336 -48t230.5 -132q184 -166 184 -436q0 -226 -112 -422q-169 -292 -499 -384zM808 41q109 0 198.5 36.5t162 100 t127.5 148t92 180.5q76 192 76 396q0 228 -124 366q-134 151 -383 151q-297 0 -473 -252q-160 -229 -160 -542q0 -254 130 -415q135 -169 354 -169zM1331 1690q-28 -28 -60 -28t-50.5 7.5t-31.5 20.5q-29 29 -29 70q0 67 61 93q18 8 50 8t60 -29.5t28 -71.5t-28 -70z M971.5 1690q-28.5 -28 -60.5 -28t-50 7.5t-32 20.5q-28 29 -28 70q0 66 60 93q18 8 39 8q42 0 63 -21q37 -37 37 -79.5t-28.5 -70.5z" />
<glyph unicode="&#xd7;" horiz-adv-x="1049" d="M209 1029l315 -316l317 318l89 -88l-318 -318l320 -320l-88 -88l-320 320l-318 -318l-88 89l318 317l-316 315z" />
<glyph unicode="&#xd8;" horiz-adv-x="1642" d="M914 1452q312 0 506 -141l167 179l75 -70l-165 -176q155 -163 155 -408q0 -226 -112 -422q-169 -292 -499 -384q-108 -30 -225 -30q-213 0 -381 106l-192 -206l-73 71l182 195q-106 91 -166.5 215t-60.5 251t28.5 228t80.5 190t125 163t161 127q184 112 394 112z M1358 1245q-135 174 -401 174q-297 0 -473 -252q-160 -229 -160 -542q0 -225 103 -378zM492 167q130 -126 320 -126q201 0 356 137q140 121 220 328q76 192 76 363.5t-51 284.5z" />
<glyph unicode="&#xd9;" horiz-adv-x="1618" d="M1763 1410q15 0 15 -13v-11q0 -12 -29 -16t-43.5 -7t-33 -8t-32.5 -15q-30 -22 -43 -80l-31 -143q-8 -35 -22.5 -105t-33.5 -160q-52 -248 -79.5 -375t-78.5 -212.5t-126 -144.5q-153 -120 -380 -120q-229 0 -404 104q-191 115 -191 299q0 45 72.5 379t82.5 382l15 72 q7 34 7 51.5t-16.5 36t-41.5 28.5q-45 18 -113 18q-6 0 -6 8l5 24q2 8 10 8h521q6 0 6 -8l-5 -24q-2 -8 -23.5 -8t-51 -4.5t-52.5 -19.5q-48 -31 -66 -119l-155 -719q-9 -42 -9 -102.5t33.5 -126.5t87.5 -113q112 -96 259 -96q458 0 552 439l122 572q16 70 16 126 q0 163 -158 163h-28q-21 0 -21 15v10q0 15 19 15h450zM1185 1565q-4 -4 -7 -4t-7 4l-269 217q-55 47 -55 85t20.5 60.5t45.5 22.5q45 0 81 -49l213 -295q4 -4 4 -6t-4 -6z" />
<glyph unicode="&#xda;" horiz-adv-x="1618" d="M1763 1410q15 0 15 -13v-11q0 -12 -29 -16t-43.5 -7t-33 -8t-32.5 -15q-30 -22 -43 -80l-31 -143q-8 -35 -22.5 -105t-33.5 -160q-52 -248 -79.5 -375t-78.5 -212.5t-126 -144.5q-153 -120 -380 -120q-229 0 -404 104q-191 115 -191 299q0 45 72.5 379t82.5 382l15 72 q7 34 7 51.5t-16.5 36t-41.5 28.5q-45 18 -113 18q-6 0 -6 8l5 24q2 8 10 8h521q6 0 6 -8l-5 -24q-2 -8 -23.5 -8t-51 -4.5t-52.5 -19.5q-48 -31 -66 -119l-155 -719q-9 -42 -9 -102.5t33.5 -126.5t87.5 -113q112 -96 259 -96q458 0 552 439l122 572q16 70 16 126 q0 163 -158 163h-28q-21 0 -21 15v10q0 15 19 15h450zM1079 1594q-4 4 -4 6t4 6l213 295q36 49 71 49t55.5 -22.5t20.5 -52.5q0 -46 -55 -93l-269 -217q-5 -3 -8 -3t-6 3z" />
<glyph unicode="&#xdb;" horiz-adv-x="1618" d="M1763 1410q15 0 15 -13v-11q0 -12 -29 -16t-43.5 -7t-33 -8t-32.5 -15q-30 -22 -43 -80l-31 -143q-8 -35 -22.5 -105t-33.5 -160q-52 -248 -79.5 -375t-78.5 -212.5t-126 -144.5q-153 -120 -380 -120q-229 0 -404 104q-191 115 -191 299q0 45 72.5 379t82.5 382l15 72 q7 34 7 51.5t-16.5 36t-41.5 28.5q-45 18 -113 18q-6 0 -6 8l5 24q2 8 10 8h521q6 0 6 -8l-5 -24q-2 -8 -23.5 -8t-51 -4.5t-52.5 -19.5q-48 -31 -66 -119l-155 -719q-9 -42 -9 -102.5t33.5 -126.5t87.5 -113q112 -96 259 -96q458 0 552 439l122 572q16 70 16 126 q0 163 -158 163h-28q-21 0 -21 15v10q0 15 19 15h450zM972 1562h-50l280 386h106v-388h-50l-44 247z" />
<glyph unicode="&#xdc;" horiz-adv-x="1618" d="M1763 1410q15 0 15 -13v-11q0 -12 -29 -16t-43.5 -7t-33 -8t-32.5 -15q-30 -22 -43 -80l-31 -143q-8 -35 -22.5 -105t-33.5 -160q-52 -248 -79.5 -375t-78.5 -212.5t-126 -144.5q-153 -120 -380 -120q-229 0 -404 104q-191 115 -191 299q0 45 72.5 379t82.5 382l15 72 q7 34 7 51.5t-16.5 36t-41.5 28.5q-45 18 -113 18q-6 0 -6 8l5 24q2 8 10 8h521q6 0 6 -8l-5 -24q-2 -8 -23.5 -8t-51 -4.5t-52.5 -19.5q-48 -31 -66 -119l-155 -719q-9 -42 -9 -102.5t33.5 -126.5t87.5 -113q112 -96 259 -96q458 0 552 439l122 572q16 70 16 126 q0 163 -158 163h-28q-21 0 -21 15v10q0 15 19 15h450zM1387 1759q-28 -28 -60 -28t-50.5 7.5t-31.5 20.5q-29 29 -29 70q0 67 61 93q18 8 50 8t60 -29.5t28 -71.5t-28 -70zM1027.5 1759q-28.5 -28 -60.5 -28t-50 7.5t-32 20.5q-28 29 -28 70q0 66 60 93q18 8 39 8 q42 0 63 -21q37 -37 37 -79.5t-28.5 -70.5z" />
<glyph unicode="&#xdd;" horiz-adv-x="1484" d="M395 0q-20 0 -20 15v12q0 13 20 13h60q71 0 126 54q40 38 49.5 90t19.5 99.5t18 88.5q18 84 32 179q0 16 -5.5 27t-18 40t-34.5 80.5t-53 123t-73.5 170t-79 182t-51.5 109t-33 44.5q-38 42 -69.5 42t-31.5 13v13q0 11 19 14h441q19 0 19 -14v-13q0 -13 -16 -13h-38 q-49 0 -72 -41q-9 -15 -9 -38t23 -74.5t49.5 -112.5t52.5 -123q67 -159 93 -217t29 -65.5t6 -14.5q9 -17 18 -17q15 0 36 26t39.5 47.5t34.5 40.5t27 32t57 67t124.5 149.5t123 147t51.5 71.5t7 47t-20 51t-60 24h-37q-20 0 -20 14v13q0 14 20 14h370q7 0 11 -4.5t4 -7.5 v-13q0 -11 -6 -14t-16 -5q-35 -8 -51.5 -18.5t-36.5 -30t-40 -41.5q-29 -31 -116.5 -136.5t-223.5 -265.5t-262 -311q-18 -92 -38 -181q-42 -192 -42 -234.5t44 -75t125 -32.5h47q18 0 18 -13v-14q0 -13 -16 -13h-625zM1001 1594q-4 4 -4 6t4 6l213 295q36 49 71 49 t55.5 -22.5t20.5 -52.5q0 -46 -55 -93l-269 -217q-5 -3 -8 -3t-6 3z" />
<glyph unicode="&#xde;" horiz-adv-x="1068" d="M389 160q-4 -16 -4 -40t18 -42t46 -26q38 -12 122 -12q6 0 6 -8l-5 -24q-3 -8 -9 -8h-536q-7 0 -7 8l5 24q4 8 24.5 8t50 4.5t52.5 19.5q49 32 67 119l228 1067q3 12 3 34t-16.5 40t-41.5 28q-45 18 -112 18q-6 0 -6 8l5 24q2 8 10 8h521q6 0 6 -8l-5 -24q-2 -8 -23.5 -8 t-51 -7.5t-52.5 -25.5q-47 -37 -66 -128l-10 -45h11q175 0 317 -89q162 -101 162 -278q0 -332 -346 -433q-136 -39 -318 -39h-9zM598 1117l-161 -737q345 0 443 231q34 80 34 171t-21.5 149t-60.5 99q-84 87 -221 87h-13z" />
<glyph unicode="&#xdf;" horiz-adv-x="1253" d="M938 1645q89 0 152 -22t108 -61q95 -84 95 -212q0 -230 -257 -376q-80 -45 -175 -78l-1 -4q229 -47 312 -220q30 -62 30 -146.5t-26.5 -161t-70 -138t-99 -109t-112.5 -79.5q-117 -65 -210 -65q-45 0 -71.5 18t-26.5 40t6.5 36.5t17.5 25.5q23 25 45 25t37.5 -8.5 t31.5 -18.5q76 -49 130 -1q84 75 134 272q31 119 31 212q0 149 -80 220.5t-246 71.5l7 37q188 14 308 141q119 124 119 308q0 166 -125 218q-41 16 -87.5 16t-87.5 -5t-77 -21q-81 -36 -115 -122q-34 -124 -87 -370l-238 -1128q-39 -187 -152 -355q-91 -134 -219 -193 q-67 -31 -122 -31t-79.5 9t-41.5 23q-36 28 -36 56q0 66 52 66q36 0 81 -29.5t70.5 -43t53 -13.5t52 14t45.5 36q38 41 65 107q53 155 95 352l236 1129q67 326 227 467q127 111 301 111z" />
<glyph unicode="&#xe0;" horiz-adv-x="893" d="M584 186.5q4 16.5 5 33.5t-7 17q-11 0 -49 -33.5t-70 -61.5t-67.5 -58t-69.5 -54q-77 -57 -113 -57t-58.5 30t-34.5 71q-20 70 -20 135q0 208 158 399q151 180 371 255q109 37 222 37q17 0 17 -28l-151 -692l-2 -16q-2 -14 -2 -26.5t8 -24.5t17.5 -12t24 11.5t29.5 25.5 q42 36 52 36q16 0 16 -18q0 -19 -108 -102q-109 -85 -137 -85q-31 0 -43 41q-6 22 -6 49.5t3 50.5t7 41.5t8 35zM707 770q0 16 -38 16t-89 -13.5t-98 -38.5q-173 -91 -222 -308q-21 -94 -23.5 -151t-0.5 -84t10 -51q20 -56 74 -56q72 37 155.5 112t132.5 119zM803 1067 q-4 -4 -7 -4t-7 4l-269 217q-55 47 -55 85t20.5 60.5t45.5 22.5q45 0 81 -49l213 -295q4 -4 4 -6t-4 -6z" />
<glyph unicode="&#xe1;" horiz-adv-x="893" d="M584 186.5q4 16.5 5 33.5t-7 17q-11 0 -49 -33.5t-70 -61.5t-67.5 -58t-69.5 -54q-77 -57 -113 -57t-58.5 30t-34.5 71q-20 70 -20 135q0 208 158 399q151 180 371 255q109 37 222 37q17 0 17 -28l-151 -692l-2 -16q-2 -14 -2 -26.5t8 -24.5t17.5 -12t24 11.5t29.5 25.5 q42 36 52 36q16 0 16 -18q0 -19 -108 -102q-109 -85 -137 -85q-31 0 -43 41q-6 22 -6 49.5t3 50.5t7 41.5t8 35zM707 770q0 16 -38 16t-89 -13.5t-98 -38.5q-173 -91 -222 -308q-21 -94 -23.5 -151t-0.5 -84t10 -51q20 -56 74 -56q72 37 155.5 112t132.5 119zM605 1096 q-4 4 -4 6t4 6l213 295q36 49 71 49t55.5 -22.5t20.5 -52.5q0 -46 -55 -93l-269 -217q-5 -3 -8 -3t-6 3z" />
<glyph unicode="&#xe2;" horiz-adv-x="893" d="M584 186.5q4 16.5 5 33.5t-7 17q-11 0 -49 -33.5t-70 -61.5t-67.5 -58t-69.5 -54q-77 -57 -113 -57t-58.5 30t-34.5 71q-20 70 -20 135q0 208 158 399q151 180 371 255q109 37 222 37q17 0 17 -28l-151 -692l-2 -16q-2 -14 -2 -26.5t8 -24.5t17.5 -12t24 11.5t29.5 25.5 q42 36 52 36q16 0 16 -18q0 -19 -108 -102q-109 -85 -137 -85q-31 0 -43 41q-6 22 -6 49.5t3 50.5t7 41.5t8 35zM707 770q0 16 -38 16t-89 -13.5t-98 -38.5q-173 -91 -222 -308q-21 -94 -23.5 -151t-0.5 -84t10 -51q20 -56 74 -56q72 37 155.5 112t132.5 119zM498 1065h-50 l280 386h106v-388h-50l-44 247z" />
<glyph unicode="&#xe3;" horiz-adv-x="893" d="M584 186.5q4 16.5 5 33.5t-7 17q-11 0 -49 -33.5t-70 -61.5t-67.5 -58t-69.5 -54q-77 -57 -113 -57t-58.5 30t-34.5 71q-20 70 -20 135q0 208 158 399q151 180 371 255q109 37 222 37q17 0 17 -28l-151 -692l-2 -16q-2 -14 -2 -26.5t8 -24.5t17.5 -12t24 11.5t29.5 25.5 q42 36 52 36q16 0 16 -18q0 -19 -108 -102q-109 -85 -137 -85q-31 0 -43 41q-6 22 -6 49.5t3 50.5t7 41.5t8 35zM707 770q0 16 -38 16t-89 -13.5t-98 -38.5q-173 -91 -222 -308q-21 -94 -23.5 -151t-0.5 -84t10 -51q20 -56 74 -56q72 37 155.5 112t132.5 119zM925.5 1318.5 q4.5 20.5 4.5 35t16 14.5h19q14 0 14 -37t-11 -69t-32 -56q-48 -56 -119 -56q-57 0 -123.5 35.5t-103.5 52t-63.5 16.5t-42 -11.5t-28.5 -29.5q-30 -42 -30 -89q0 -12 -16 -12h-21q-8 0 -8 31t11 70.5t31 68.5q42 60 114 60q55 0 128 -36t112.5 -52.5t68 -16.5t42.5 12.5 t23.5 30.5t14 38.5z" />
<glyph unicode="&#xe4;" horiz-adv-x="893" d="M584 186.5q4 16.5 5 33.5t-7 17q-11 0 -49 -33.5t-70 -61.5t-67.5 -58t-69.5 -54q-77 -57 -113 -57t-58.5 30t-34.5 71q-20 70 -20 135q0 208 158 399q151 180 371 255q109 37 222 37q17 0 17 -28l-151 -692l-2 -16q-2 -14 -2 -26.5t8 -24.5t17.5 -12t24 11.5t29.5 25.5 q42 36 52 36q16 0 16 -18q0 -19 -108 -102q-109 -85 -137 -85q-31 0 -43 41q-6 22 -6 49.5t3 50.5t7 41.5t8 35zM707 770q0 16 -38 16t-89 -13.5t-98 -38.5q-173 -91 -222 -308q-21 -94 -23.5 -151t-0.5 -84t10 -51q20 -56 74 -56q72 37 155.5 112t132.5 119zM938 1188 q-28 -28 -60 -28t-50.5 7.5t-31.5 20.5q-29 29 -29 70q0 67 61 93q18 8 50 8t60 -29.5t28 -71.5t-28 -70zM578.5 1188q-28.5 -28 -60.5 -28t-50 7.5t-32 20.5q-28 29 -28 70q0 66 60 93q18 8 39 8q42 0 63 -21q37 -37 37 -79.5t-28.5 -70.5z" />
<glyph unicode="&#xe5;" horiz-adv-x="893" d="M584 186.5q4 16.5 5 33.5t-7 17q-11 0 -49 -33.5t-70 -61.5t-67.5 -58t-69.5 -54q-77 -57 -113 -57t-58.5 30t-34.5 71q-20 70 -20 135q0 208 158 399q151 180 371 255q109 37 222 37q17 0 17 -28l-151 -692l-2 -16q-2 -14 -2 -26.5t8 -24.5t17.5 -12t24 11.5t29.5 25.5 q42 36 52 36q16 0 16 -18q0 -19 -108 -102q-109 -85 -137 -85q-31 0 -43 41q-6 22 -6 49.5t3 50.5t7 41.5t8 35zM707 770q0 16 -38 16t-89 -13.5t-98 -38.5q-173 -91 -222 -308q-21 -94 -23.5 -151t-0.5 -84t10 -51q20 -56 74 -56q72 37 155.5 112t132.5 119zM542 1262 q0 38 14.5 71.5t39.5 58.5q55 55 131 55q77 0 130 -55q54 -55 54 -129q0 -76 -54 -130t-130 -54q-75 0 -131 54q-54 53 -54 129zM626 1308.5q-9 -20.5 -9 -44t9 -44.5t24 -36q34 -34 69.5 -34t56 9t36.5 25q33 33 33 68.5t-9 56t-24 35.5q-34 34 -69 34t-56 -9t-36.5 -24.5 t-24.5 -36z" />
<glyph unicode="&#xe6;" horiz-adv-x="1261" d="M919 54q95 0 232 84l14 -25q-105 -81 -238 -122q-58 -18 -118 -18q-111 0 -169 90q-51 78 -53 205l-47 -42q-14 -11 -39.5 -34t-57.5 -51t-67.5 -58t-69.5 -55q-75 -55 -112 -55t-59.5 30t-34.5 71q-20 70 -20 135q0 208 158 399q151 180 371 255q109 37 222 37 q17 0 17 -28q-8 -42 -20 -93q134 121 292 121q68 0 103 -28q63 -51 63 -113.5t-26.5 -107.5t-69.5 -78t-98 -57t-111.5 -42t-111 -32.5t-95.5 -29.5q-32 -75 -32 -153q0 -140 96 -188q33 -17 81 -17zM687 770q0 16 -38 16t-89 -13.5t-98 -38.5q-173 -91 -222 -308 q-21 -94 -23.5 -151t-0.5 -84t10 -51q20 -56 74 -56q72 37 155.5 112t132.5 119zM791 472q0 -10 4 -13.5t20 -3.5q151 44 216 89.5t98.5 95.5t33.5 120q0 71 -43 93q-16 8 -48.5 8t-69.5 -19.5t-67 -52t-54 -73.5t-42 -84q-30 -72 -51 -160h3z" />
<glyph unicode="&#xe7;" horiz-adv-x="680" d="M656.5 882.5q23.5 -19.5 23.5 -79.5t-35 -60q-29 0 -65.5 22.5t-56 33t-50.5 10.5t-65 -33.5t-62.5 -86t-50 -117.5t-35.5 -129q-30 -130 -30 -186t7 -88.5t23 -58.5q34 -56 103 -56q55 0 102 32t74 53.5t53 38.5l21 -26q-81 -81 -122 -109q-81 -55 -165 -66l-32 -131 q112 -30 142 -109q9 -22 9 -61t-29 -79.5t-75 -66.5q-81 -47 -215 -62q-56 0 -56 40q0 4 10 14.5t26 13.5q138 26 160.5 37.5t37.5 26.5q34 34 34 67.5t-12.5 53t-30.5 33.5q-33 26 -78 31l45 188q-140 6 -174 135q-11 39 -11 113t22 166.5t60 171.5t88 142.5t106 108.5 q116 92 229 92q51 0 74.5 -19.5z" />
<glyph unicode="&#xe8;" horiz-adv-x="789" d="M432 54q95 0 232 84l14 -25q-105 -81 -238 -122q-58 -18 -118.5 -18t-102.5 25.5t-69 68.5q-50 82 -50 212q20 222 160 411q95 128 228 182q68 28 122.5 28t84.5 -9.5t53 -28.5q51 -41 51 -103.5t-26.5 -107.5t-69.5 -78t-98 -57t-111.5 -42t-111 -32.5t-95.5 -29.5 q-32 -75 -32 -153q0 -140 95 -188q34 -17 82 -17zM301 472q0 -17 27 -17q151 44 216 89.5t98.5 95.5t33.5 120q0 71 -44 93q-15 8 -47.5 8t-69.5 -19.5t-67 -52t-54 -73.5t-42 -84q-30 -72 -51 -160zM676 1067q-4 -4 -7 -4t-7 4l-269 217q-55 47 -55 85t20.5 60.5t45.5 22.5 q45 0 81 -49l213 -295q4 -4 4 -6t-4 -6z" />
<glyph unicode="&#xe9;" horiz-adv-x="789" d="M432 54q95 0 232 84l14 -25q-105 -81 -238 -122q-58 -18 -118.5 -18t-102.5 25.5t-69 68.5q-50 82 -50 212q20 222 160 411q95 128 228 182q68 28 122.5 28t84.5 -9.5t53 -28.5q51 -41 51 -103.5t-26.5 -107.5t-69.5 -78t-98 -57t-111.5 -42t-111 -32.5t-95.5 -29.5 q-32 -75 -32 -153q0 -140 95 -188q34 -17 82 -17zM301 472q0 -17 27 -17q151 44 216 89.5t98.5 95.5t33.5 120q0 71 -44 93q-15 8 -47.5 8t-69.5 -19.5t-67 -52t-54 -73.5t-42 -84q-30 -72 -51 -160zM532 1096q-4 4 -4 6t4 6l213 295q36 49 71 49t55.5 -22.5t20.5 -52.5 q0 -46 -55 -93l-269 -217q-5 -3 -8 -3t-6 3z" />
<glyph unicode="&#xea;" horiz-adv-x="795" d="M432 54q95 0 232 84l14 -25q-105 -81 -238 -122q-58 -18 -118.5 -18t-102.5 25.5t-69 68.5q-50 82 -50 212q20 222 160 411q95 128 228 182q68 28 122.5 28t84.5 -9.5t53 -28.5q51 -41 51 -103.5t-26.5 -107.5t-69.5 -78t-98 -57t-111.5 -42t-111 -32.5t-95.5 -29.5 q-32 -75 -32 -153q0 -140 95 -188q34 -17 82 -17zM301 472q0 -17 27 -17q151 44 216 89.5t98.5 95.5t33.5 120q0 71 -44 93q-15 8 -47.5 8t-69.5 -19.5t-67 -52t-54 -73.5t-42 -84q-30 -72 -51 -160zM469 1065h-50l280 386h106v-388h-50l-44 247z" />
<glyph unicode="&#xeb;" horiz-adv-x="789" d="M432 54q95 0 232 84l14 -25q-105 -81 -238 -122q-58 -18 -118.5 -18t-102.5 25.5t-69 68.5q-50 82 -50 212q20 222 160 411q95 128 228 182q68 28 122.5 28t84.5 -9.5t53 -28.5q51 -41 51 -103.5t-26.5 -107.5t-69.5 -78t-98 -57t-111.5 -42t-111 -32.5t-95.5 -29.5 q-32 -75 -32 -153q0 -140 95 -188q34 -17 82 -17zM301 472q0 -17 27 -17q151 44 216 89.5t98.5 95.5t33.5 120q0 71 -44 93q-15 8 -47.5 8t-69.5 -19.5t-67 -52t-54 -73.5t-42 -84q-30 -72 -51 -160zM891 1188q-28 -28 -60 -28t-50.5 7.5t-31.5 20.5q-29 29 -29 70 q0 67 61 93q18 8 50 8t60 -29.5t28 -71.5t-28 -70zM531.5 1188q-28.5 -28 -60.5 -28t-50 7.5t-32 20.5q-28 29 -28 70q0 66 60 93q18 8 39 8q42 0 63 -21q37 -37 37 -79.5t-28.5 -70.5z" />
<glyph unicode="&#xec;" horiz-adv-x="557" d="M316 780q0 22 -25 22q-43 0 -131 -95q-18 -20 -26 -27l-19 19q20 39 113 115q107 86 161 86q30 0 52.5 -23.5t22.5 -49.5t-3 -39l-147 -692v-4q0 -22 25 -22q40 0 141 106l16 16l19 -19q-20 -39 -113 -115q-107 -86 -161 -86q-30 0 -52.5 23.5t-22.5 49t3 39.5l147 692v4 zM464 1067q-4 -4 -7 -4t-7 4l-269 217q-55 47 -55 85t20.5 60.5t45.5 22.5q45 0 81 -49l213 -295q4 -4 4 -6t-4 -6z" />
<glyph unicode="&#xed;" horiz-adv-x="557" d="M316 780q0 22 -25 22q-43 0 -131 -95q-18 -20 -26 -27l-19 19q20 39 113 115q107 86 161 86q30 0 52.5 -23.5t22.5 -49.5t-3 -39l-147 -692v-4q0 -22 25 -22q40 0 141 106l16 16l19 -19q-20 -39 -113 -115q-107 -86 -161 -86q-30 0 -52.5 23.5t-22.5 49t3 39.5l147 692v4 zM292 1096q-4 4 -4 6t4 6l213 295q36 49 71 49t55.5 -22.5t20.5 -52.5q0 -46 -55 -93l-269 -217q-5 -3 -8 -3t-6 3z" />
<glyph unicode="&#xee;" horiz-adv-x="557" d="M316 780q0 22 -25 22q-43 0 -131 -95q-18 -20 -26 -27l-19 19q20 39 113 115q107 86 161 86q30 0 52.5 -23.5t22.5 -49.5t-3 -39l-147 -692v-4q0 -22 25 -22q40 0 141 106l16 16l19 -19q-20 -39 -113 -115q-107 -86 -161 -86q-30 0 -52.5 23.5t-22.5 49t3 39.5l147 692v4 zM216 1065h-50l280 386h106v-388h-50l-44 247z" />
<glyph unicode="&#xef;" horiz-adv-x="557" d="M316 780q0 22 -25 22q-43 0 -131 -95q-18 -20 -26 -27l-19 19q20 39 113 115q107 86 161 86q30 0 52.5 -23.5t22.5 -49.5t-3 -39l-147 -692v-4q0 -22 25 -22q40 0 141 106l16 16l19 -19q-20 -39 -113 -115q-107 -86 -161 -86q-30 0 -52.5 23.5t-22.5 49t3 39.5l147 692v4 zM671 1188q-28 -28 -60 -28t-50.5 7.5t-31.5 20.5q-29 29 -29 70q0 67 61 93q18 8 50 8t60 -29.5t28 -71.5t-28 -70zM311.5 1188q-28.5 -28 -60.5 -28t-50 7.5t-32 20.5q-28 29 -28 70q0 66 60 93q18 8 39 8q42 0 63 -21q37 -37 37 -79.5t-28.5 -70.5z" />
<glyph unicode="&#xf0;" horiz-adv-x="920" d="M578 1352q-100 159 -186 229l13 64q23 0 74 -48q94 -90 170 -203l221 129l40 -69l-219 -128q200 -336 200 -691q0 -281 -165 -469q-169 -193 -435 -193q-54 0 -110 105q-56 107 -56 201t27 178t73 155q91 141 239 221q126 67 247 67q13 0 27 -6q0 165 -119 389l-227 -132 l-40 69zM284.5 407.5q-9.5 -62.5 -9.5 -106.5t8 -85.5t26 -79.5q43 -89 118 -89q136 0 225 174q79 155 79 339q0 123 -55 210q-36 56 -86 56t-92.5 -24t-77 -64.5t-62 -94.5t-46 -113.5t-28 -122z" />
<glyph unicode="&#xf1;" horiz-adv-x="996" d="M424 900q36 0 36 -67q0 -30 -3.5 -46t-9 -43t-16.5 -80.5t-31 -152.5q0 -11 8.5 -11t16 8.5t23.5 26.5t49.5 56.5t72 80t80 82.5t82.5 74q93 72 154 72q30 0 52.5 -23.5t22.5 -49.5t-3 -39l-178 -692v-4q0 -22 25 -22q40 0 141 106l16 16l19 -19q-20 -39 -113 -115 q-107 -86 -161 -86q-30 0 -52.5 23.5t-22.5 49t3 39.5l178 692v4q0 9 -8.5 15.5t-22 6t-45 -24t-69.5 -60.5t-79.5 -82t-79.5 -89q-104 -120 -121.5 -146.5t-23.5 -55.5l-72 -333q-69 -40 -106 -40t-37 29q0 13 5 34q9 40 11 51l134 634v4q0 28 -23 28q-15 0 -50 -35.5 t-92 -93.5l-24 25q22 45 160 161q110 92 154 92zM919.5 1318.5q4.5 20.5 4.5 35t16 14.5h19q14 0 14 -37t-11 -69t-32 -56q-48 -56 -119 -56q-57 0 -123.5 35.5t-103.5 52t-63.5 16.5t-42 -11.5t-28.5 -29.5q-30 -42 -30 -89q0 -12 -16 -12h-21q-8 0 -8 31t11 70.5t31 68.5 q42 60 114 60q55 0 128 -36t112.5 -52.5t68 -16.5t42.5 12.5t23.5 30.5t14 38.5z" />
<glyph unicode="&#xf2;" horiz-adv-x="953" d="M741 900q59 0 113 -104q57 -108 57 -216.5t-25 -183t-67.5 -138.5t-100.5 -116.5t-124 -89.5q-137 -79 -273 -79q-54 0 -110 105q-56 107 -56 199t24.5 172.5t67 149t99.5 124.5t122 95q137 82 273 82zM314.5 407.5q-9.5 -62.5 -9.5 -106.5t8 -85.5t26 -79.5 q43 -89 118 -89q136 0 225 174q79 155 79 339q0 123 -55 210q-36 56 -86 56t-92.5 -24t-77 -64.5t-62 -94.5t-46 -113.5t-28 -122zM758 1067q-4 -4 -7 -4t-7 4l-269 217q-55 47 -55 85t20.5 60.5t45.5 22.5q45 0 81 -49l213 -295q4 -4 4 -6t-4 -6z" />
<glyph unicode="&#xf3;" horiz-adv-x="953" d="M741 900q59 0 113 -104q57 -108 57 -216.5t-25 -183t-67.5 -138.5t-100.5 -116.5t-124 -89.5q-137 -79 -273 -79q-54 0 -110 105q-56 107 -56 199t24.5 172.5t67 149t99.5 124.5t122 95q137 82 273 82zM314.5 407.5q-9.5 -62.5 -9.5 -106.5t8 -85.5t26 -79.5 q43 -89 118 -89q136 0 225 174q79 155 79 339q0 123 -55 210q-36 56 -86 56t-92.5 -24t-77 -64.5t-62 -94.5t-46 -113.5t-28 -122zM642 1096q-4 4 -4 6t4 6l213 295q36 49 71 49t55.5 -22.5t20.5 -52.5q0 -46 -55 -93l-269 -217q-5 -3 -8 -3t-6 3z" />
<glyph unicode="&#xf4;" horiz-adv-x="953" d="M741 900q59 0 113 -104q57 -108 57 -216.5t-25 -183t-67.5 -138.5t-100.5 -116.5t-124 -89.5q-137 -79 -273 -79q-54 0 -110 105q-56 107 -56 199t24.5 172.5t67 149t99.5 124.5t122 95q137 82 273 82zM314.5 407.5q-9.5 -62.5 -9.5 -106.5t8 -85.5t26 -79.5 q43 -89 118 -89q136 0 225 174q79 155 79 339q0 123 -55 210q-36 56 -86 56t-92.5 -24t-77 -64.5t-62 -94.5t-46 -113.5t-28 -122zM533 1065h-50l280 386h106v-388h-50l-44 247z" />
<glyph unicode="&#xf5;" horiz-adv-x="953" d="M741 900q59 0 113 -104q57 -108 57 -216.5t-25 -183t-67.5 -138.5t-100.5 -116.5t-124 -89.5q-137 -79 -273 -79q-54 0 -110 105q-56 107 -56 199t24.5 172.5t67 149t99.5 124.5t122 95q137 82 273 82zM314.5 407.5q-9.5 -62.5 -9.5 -106.5t8 -85.5t26 -79.5 q43 -89 118 -89q136 0 225 174q79 155 79 339q0 123 -55 210q-36 56 -86 56t-92.5 -24t-77 -64.5t-62 -94.5t-46 -113.5t-28 -122zM989.5 1318.5q4.5 20.5 4.5 35t16 14.5h19q14 0 14 -37t-11 -69t-32 -56q-48 -56 -119 -56q-57 0 -123.5 35.5t-103.5 52t-63.5 16.5 t-42 -11.5t-28.5 -29.5q-30 -42 -30 -89q0 -12 -16 -12h-21q-8 0 -8 31t11 70.5t31 68.5q42 60 114 60q55 0 128 -36t112.5 -52.5t68 -16.5t42.5 12.5t23.5 30.5t14 38.5z" />
<glyph unicode="&#xf6;" horiz-adv-x="953" d="M741 900q59 0 113 -104q57 -108 57 -216.5t-25 -183t-67.5 -138.5t-100.5 -116.5t-124 -89.5q-137 -79 -273 -79q-54 0 -110 105q-56 107 -56 199t24.5 172.5t67 149t99.5 124.5t122 95q137 82 273 82zM314.5 407.5q-9.5 -62.5 -9.5 -106.5t8 -85.5t26 -79.5 q43 -89 118 -89q136 0 225 174q79 155 79 339q0 123 -55 210q-36 56 -86 56t-92.5 -24t-77 -64.5t-62 -94.5t-46 -113.5t-28 -122zM970 1188q-28 -28 -60 -28t-50.5 7.5t-31.5 20.5q-29 29 -29 70q0 67 61 93q18 8 50 8t60 -29.5t28 -71.5t-28 -70zM610.5 1188 q-28.5 -28 -60.5 -28t-50 7.5t-32 20.5q-28 29 -28 70q0 66 60 93q18 8 39 8q42 0 63 -21q37 -37 37 -79.5t-28.5 -70.5z" />
<glyph unicode="&#xf7;" horiz-adv-x="1049" d="M88 690h872v-127h-872v127zM419 225q-9 21 -9 45.5t9 46t25 37.5q33 35 70 35t58 -9.5t37 -25.5q34 -34 34 -71t-9 -58t-25 -37q-36 -34 -71.5 -34t-57 9.5t-37 25t-24.5 36.5zM419 928.5q-9 21.5 -9 46t9 46t25 37.5q32 34 69.5 34t58.5 -9t37 -25q34 -34 34 -71 t-9 -58.5t-25 -37.5q-35 -35 -71 -35t-57.5 9.5t-37 25.5t-24.5 37.5z" />
<glyph unicode="&#xf8;" horiz-adv-x="945" d="M187 108q-41 96 -41 178.5t24.5 163t67 149t99.5 124.5t122 95q137 82 273 82q55 0 107 -93l114 122l51 -51l-133 -143q31 -91 31 -177.5t-25 -161t-67.5 -138.5t-100.5 -116.5t-123 -89.5q-138 -79 -274 -79q-43 0 -88 69l-113 -121l-51 50zM731 691q-43 135 -121 135 q-137 0 -230 -183q-84 -164 -84 -355q0 -18 5 -58zM324 149q41 -102 124 -102q136 0 225 174q79 155 79 339q0 17 -3 44z" />
<glyph unicode="&#xf9;" horiz-adv-x="1052" d="M988 876v-6q0 -3 -153 -719q0 -32 23 -32q15 0 49 35.5t91 93.5l24 -25q-13 -26 -78 -86q-177 -164 -236 -164q-37 0 -37 63q0 30 8 67l73 336q0 11 -8.5 11t-16 -8.5t-23 -26t-42 -46t-53.5 -58.5q-76 -84 -95 -106.5t-38.5 -45t-42.5 -47.5t-48.5 -50t-50.5 -44 q-57 -45 -90.5 -45t-52.5 26.5t-19 46.5v24q0 6 2 12l147 692v4q0 22 -25 22q-43 0 -130 -95q-19 -20 -27 -27l-19 19q20 39 114 115q106 86 160 86q30 0 52.5 -23.5t22.5 -50t-141 -691.5v-4q0 -22 25 -22q33 0 124 108q23 27 49 57l52 60q56 66 100 119q101 123 120 210 l43 199q7 40 32 40h91q24 0 24 -24zM828 1067q-4 -4 -7 -4t-7 4l-269 217q-55 47 -55 85t20.5 60.5t45.5 22.5q45 0 81 -49l213 -295q4 -4 4 -6t-4 -6z" />
<glyph unicode="&#xfa;" horiz-adv-x="1052" d="M988 876v-6q0 -3 -153 -719q0 -32 23 -32q15 0 49 35.5t91 93.5l24 -25q-13 -26 -78 -86q-177 -164 -236 -164q-37 0 -37 63q0 30 8 67l73 336q0 11 -8.5 11t-16 -8.5t-23 -26t-42 -46t-53.5 -58.5q-76 -84 -95 -106.5t-38.5 -45t-42.5 -47.5t-48.5 -50t-50.5 -44 q-57 -45 -90.5 -45t-52.5 26.5t-19 46.5v24q0 6 2 12l147 692v4q0 22 -25 22q-43 0 -130 -95q-19 -20 -27 -27l-19 19q20 39 114 115q106 86 160 86q30 0 52.5 -23.5t22.5 -50t-141 -691.5v-4q0 -22 25 -22q33 0 124 108q23 27 49 57l52 60q56 66 100 119q101 123 120 210 l43 199q7 40 32 40h91q24 0 24 -24zM652 1096q-4 4 -4 6t4 6l213 295q36 49 71 49t55.5 -22.5t20.5 -52.5q0 -46 -55 -93l-269 -217q-5 -3 -8 -3t-6 3z" />
<glyph unicode="&#xfb;" horiz-adv-x="1052" d="M988 876v-6q0 -3 -153 -719q0 -32 23 -32q15 0 49 35.5t91 93.5l24 -25q-13 -26 -78 -86q-177 -164 -236 -164q-37 0 -37 63q0 30 8 67l73 336q0 11 -8.5 11t-16 -8.5t-23 -26t-42 -46t-53.5 -58.5q-76 -84 -95 -106.5t-38.5 -45t-42.5 -47.5t-48.5 -50t-50.5 -44 q-57 -45 -90.5 -45t-52.5 26.5t-19 46.5v24q0 6 2 12l147 692v4q0 22 -25 22q-43 0 -130 -95q-19 -20 -27 -27l-19 19q20 39 114 115q106 86 160 86q30 0 52.5 -23.5t22.5 -50t-141 -691.5v-4q0 -22 25 -22q33 0 124 108q23 27 49 57l52 60q56 66 100 119q101 123 120 210 l43 199q7 40 32 40h91q24 0 24 -24zM558 1065h-50l280 386h106v-388h-50l-44 247z" />
<glyph unicode="&#xfc;" horiz-adv-x="1052" d="M988 876v-6q0 -3 -153 -719q0 -32 23 -32q15 0 49 35.5t91 93.5l24 -25q-13 -26 -78 -86q-177 -164 -236 -164q-37 0 -37 63q0 30 8 67l73 336q0 11 -8.5 11t-16 -8.5t-23 -26t-42 -46t-53.5 -58.5q-76 -84 -95 -106.5t-38.5 -45t-42.5 -47.5t-48.5 -50t-50.5 -44 q-57 -45 -90.5 -45t-52.5 26.5t-19 46.5v24q0 6 2 12l147 692v4q0 22 -25 22q-43 0 -130 -95q-19 -20 -27 -27l-19 19q20 39 114 115q106 86 160 86q30 0 52.5 -23.5t22.5 -50t-141 -691.5v-4q0 -22 25 -22q33 0 124 108q23 27 49 57l52 60q56 66 100 119q101 123 120 210 l43 199q7 40 32 40h91q24 0 24 -24zM980 1188q-28 -28 -60 -28t-50.5 7.5t-31.5 20.5q-29 29 -29 70q0 67 61 93q18 8 50 8t60 -29.5t28 -71.5t-28 -70zM620.5 1188q-28.5 -28 -60.5 -28t-50 7.5t-32 20.5q-28 29 -28 70q0 66 60 93q18 8 39 8q42 0 63 -21q37 -37 37 -79.5 t-28.5 -70.5z" />
<glyph unicode="&#xfd;" horiz-adv-x="1042" d="M194 -543q25 25 72.5 126.5t67.5 146.5t38 90q85 212 85 321q0 207 -15 289q-46 245 -62.5 282.5t-28.5 53t-28 17.5q-19 -3 -55 -51q-69 -92 -82 -92q-6 0 -12 5t-6 19t21 44t48.5 60.5t53.5 56t32 33t14.5 14t19.5 12.5q26 16 43 16q36 0 46 -19q145 -249 145 -695 q0 -36 19 -49l78 137q117 199 168 347q19 55 19 81.5t-5 39t-12 22.5q-16 27 -16 43.5t6 33t18 29.5q26 30 59.5 30t52.5 -9.5t30 -26.5q20 -31 20 -80t-24.5 -103t-63 -119.5t-86.5 -138t-95 -143.5q-119 -180 -154 -247q-35 -79 -78 -188.5t-105 -246.5l-38 -84 q-2 -4 -4 -11t-4 -15q-6 -16 -6 -31.5t7 -26.5q13 -19 69 -18q9 1 25.5 1t44.5 -1l-7 -32h-469l7 32q71 0 96.5 10t50.5 35zM682 1096q-4 4 -4 6t4 6l213 295q36 49 71 49t55.5 -22.5t20.5 -52.5q0 -46 -55 -93l-269 -217q-5 -3 -8 -3t-6 3z" />
<glyph unicode="&#xfe;" horiz-adv-x="962" d="M580 -0.5q-68 -26.5 -142 -26.5t-144 37l-105 -496q-4 -16 -4 -26q0 -46 45.5 -61t130.5 -15l-7 -32h-489l7 32q99 0 141 56q32 44 59 171l388 1818q4 16 4 26q0 25 -22 25q-19 0 -50.5 -15t-67.5 -32l-13 31q70 37 118.5 63t81 43t50.5 26.5t28 13.5q14 7 21 7 q23 0 23 -23.5t-15 -91t-38.5 -176t-47.5 -220t-49.5 -232t-41 -192.5t-15.5 -78q0 -17 11 -17q15 0 28 11t38.5 36t57 55.5t66.5 63t69 59.5q76 60 112.5 60t60 -30t36.5 -72q22 -70 22 -153.5t-14.5 -165.5t-43 -156.5t-70.5 -138.5t-96.5 -111t-122.5 -73.5zM772.5 481.5 q15.5 75.5 15.5 124.5t-2 76t-10 51q-20 56 -74 56q-53 -27 -111.5 -86.5t-100 -103t-90.5 -91.5l-72 -340q-4 -16 -4 -34t5.5 -39t18.5 -39q32 -42 82.5 -42t89.5 24.5t77 68t72.5 102.5t61 128t42 144.5z" />
<glyph unicode="&#xff;" horiz-adv-x="1028" d="M194 -543q25 25 72.5 126.5t67.5 146.5t38 90q85 212 85 321q0 207 -15 289q-46 245 -62.5 282.5t-28.5 53t-28 17.5q-19 -3 -55 -51q-69 -92 -82 -92q-6 0 -12 5t-6 19t21 44t48.5 60.5t53.5 56t32 33t14.5 14t19.5 12.5q26 16 43 16q36 0 46 -19q145 -249 145 -695 q0 -36 19 -49l78 137q117 199 168 347q19 55 19 81.5t-5 39t-12 22.5q-16 27 -16 43.5t6 33t18 29.5q26 30 59.5 30t52.5 -9.5t30 -26.5q20 -31 20 -80t-24.5 -103t-63 -119.5t-86.5 -138t-95 -143.5q-119 -180 -154 -247q-35 -79 -78 -188.5t-105 -246.5l-38 -84 q-2 -4 -4 -11t-4 -15q-6 -16 -6 -31.5t7 -26.5q13 -19 69 -18q9 1 25.5 1t44.5 -1l-7 -32h-469l7 32q71 0 96.5 10t50.5 35zM950 1188q-28 -28 -60 -28t-50.5 7.5t-31.5 20.5q-29 29 -29 70q0 67 61 93q18 8 50 8t60 -29.5t28 -71.5t-28 -70zM590.5 1188 q-28.5 -28 -60.5 -28t-50 7.5t-32 20.5q-28 29 -28 70q0 66 60 93q18 8 39 8q42 0 63 -21q37 -37 37 -79.5t-28.5 -70.5z" />
<glyph unicode="&#x100;" horiz-adv-x="1560" d="M-20 12q0 28 21 28h22q38 0 58 14.5t70 80t139.5 181.5t180 234t180 235t172 224.5t155 202t105.5 137.5t48.5 55.5t38.5 12.5h26q29 0 37 -15.5t9 -38.5l29 -1213q3 -84 103 -104q27 -6 52 -6h44q13 0 13 -15v-11q0 -14 -14 -14h-621q-14 0 -14 11v19q0 10 25 10t52.5 2 t46.5 6q72 12 94 41t30 55q12 38 12 108l-7 288v18q0 44 -53 44h-402q-40 0 -65 -34q-51 -69 -103.5 -136t-84.5 -109.5t-45 -60.5t-24 -37q-25 -43 -25 -86t37.5 -71t98.5 -28h49q13 0 13 -11q-4 -25 -9.5 -27t-15.5 -2h-459q-19 0 -19 12zM1083 727l-11 448q0 27 -10 27 q-11 -1 -30 -27t-59 -79t-88 -114q-106 -136 -151 -195.5t-50 -66t-10 -13.5q-13 -18 -13 -24t5 -6h369q22 0 35 13.5t13 36.5zM858 1849h627l-27 -99h-627z" />
<glyph unicode="&#x101;" horiz-adv-x="893" d="M584 186.5q4 16.5 5 33.5t-7 17q-11 0 -49 -33.5t-70 -61.5t-67.5 -58t-69.5 -54q-77 -57 -113 -57t-58.5 30t-34.5 71q-20 70 -20 135q0 208 158 399q151 180 371 255q109 37 222 37q17 0 17 -28l-151 -692l-2 -16q-2 -14 -2 -26.5t8 -24.5t17.5 -12t24 11.5t29.5 25.5 q42 36 52 36q16 0 16 -18q0 -19 -108 -102q-109 -85 -137 -85q-31 0 -43 41q-6 22 -6 49.5t3 50.5t7 41.5t8 35zM707 770q0 16 -38 16t-89 -13.5t-98 -38.5q-173 -91 -222 -308q-21 -94 -23.5 -151t-0.5 -84t10 -51q20 -56 74 -56q72 37 155.5 112t132.5 119zM346 1307h627 l-27 -99h-627z" />
<glyph unicode="&#x102;" horiz-adv-x="1558" d="M-20 12q0 28 21 28h22q38 0 58 14.5t70 80t139.5 181.5t180 234t180 235t172 224.5t155 202t105.5 137.5t48.5 55.5t38.5 12.5h26q29 0 37 -15.5t9 -38.5l29 -1213q3 -84 103 -104q27 -6 52 -6h44q13 0 13 -15v-11q0 -14 -14 -14h-621q-14 0 -14 11v19q0 10 25 10t52.5 2 t46.5 6q72 12 94 41t30 55q12 38 12 108l-7 288v18q0 44 -53 44h-402q-40 0 -65 -34q-51 -69 -103.5 -136t-84.5 -109.5t-45 -60.5t-24 -37q-25 -43 -25 -86t37.5 -71t98.5 -28h49q13 0 13 -11q-4 -25 -9.5 -27t-15.5 -2h-459q-19 0 -19 12zM1083 727l-11 448q0 27 -10 27 q-11 -1 -30 -27t-59 -79t-88 -114q-106 -136 -151 -195.5t-50 -66t-10 -13.5q-13 -18 -13 -24t5 -6h369q22 0 35 13.5t13 36.5zM1158 1638q-56 0 -101 26t-77 70q-64 89 -64 216h31q0 -87 69 -141q65 -52 159 -52q76 0 162 67q87 67 87 126h33q0 -112 -94 -212 q-95 -100 -205 -100z" />
<glyph unicode="&#x103;" horiz-adv-x="893" d="M584 186.5q4 16.5 5 33.5t-7 17q-11 0 -49 -33.5t-70 -61.5t-67.5 -58t-69.5 -54q-77 -57 -113 -57t-58.5 30t-34.5 71q-20 70 -20 135q0 208 158 399q151 180 371 255q109 37 222 37q17 0 17 -28l-151 -692l-2 -16q-2 -14 -2 -26.5t8 -24.5t17.5 -12t24 11.5t29.5 25.5 q42 36 52 36q16 0 16 -18q0 -19 -108 -102q-109 -85 -137 -85q-31 0 -43 41q-6 22 -6 49.5t3 50.5t7 41.5t8 35zM707 770q0 16 -38 16t-89 -13.5t-98 -38.5q-173 -91 -222 -308q-21 -94 -23.5 -151t-0.5 -84t10 -51q20 -56 74 -56q72 37 155.5 112t132.5 119zM665 1096 q-56 0 -101 26t-77 70q-64 89 -64 216h31q0 -87 69 -141q65 -52 159 -52q76 0 162 67q87 67 87 126h33q0 -112 -94 -212q-95 -100 -205 -100z" />
<glyph unicode="&#x104;" horiz-adv-x="1558" d="M-20 12q0 28 21 28h22q38 0 58 14.5t70 80t139.5 181.5t180 234t180 235t172 224.5t155 202t105.5 137.5t48.5 55.5t38.5 12.5h26q29 0 37 -15.5t9 -38.5l29 -1213q3 -84 103 -104q27 -6 52 -6h44q13 0 13 -15v-11q0 -14 -14 -14h-621q-14 0 -14 11v19q0 10 25 10t52.5 2 t46.5 6q72 12 94 41t30 55q12 38 12 108l-7 288v18q0 44 -53 44h-402q-40 0 -65 -34q-51 -69 -103.5 -136t-84.5 -109.5t-45 -60.5t-24 -37q-25 -43 -25 -86t37.5 -71t98.5 -28h49q13 0 13 -11q-4 -25 -9.5 -27t-15.5 -2h-459q-19 0 -19 12zM1083 727l-11 448q0 27 -10 27 q-11 -1 -30 -27t-59 -79t-88 -114q-106 -136 -151 -195.5t-50 -66t-10 -13.5q-13 -18 -13 -24t5 -6h369q22 0 35 13.5t13 36.5zM1261 0q-162 -181 -162 -305q0 -66 29 -100q52 -60 129 -60q53 0 79.5 10.5t34.5 10.5t8 -12t-13.5 -29.5t-35.5 -30.5q-46 -30 -100 -30t-99 13 t-79 39q-71 54 -71 152q0 88 76 192q62 86 152 150h52z" />
<glyph unicode="&#x105;" horiz-adv-x="893" d="M584 186.5q4 16.5 5 33.5t-7 17q-11 0 -49 -33.5t-70 -61.5t-67.5 -58t-69.5 -54q-77 -57 -113 -57t-58.5 30t-34.5 71q-20 70 -20 135q0 208 158 399q151 180 371 255q109 37 222 37q17 0 17 -28l-151 -692l-2 -16q-2 -14 -2 -26.5t8 -24.5t17.5 -12t24 11.5t29.5 25.5 q42 36 52 36q16 0 16 -18q0 -19 -108 -102q-109 -85 -137 -85q-31 0 -43 41q-6 22 -6 49.5t3 50.5t7 41.5t8 35zM707 770q0 16 -38 16t-89 -13.5t-98 -38.5q-173 -91 -222 -308q-21 -94 -23.5 -151t-0.5 -84t10 -51q20 -56 74 -56q72 37 155.5 112t132.5 119zM675 0 q-162 -181 -162 -305q0 -66 29 -100q52 -60 129 -60q53 0 79.5 10.5t34.5 10.5t8 -12t-13.5 -29.5t-35.5 -30.5q-46 -30 -100 -30t-99 13t-79 39q-71 54 -71 152q0 88 76 192q62 86 152 150h52z" />
<glyph unicode="&#x106;" horiz-adv-x="1531" d="M1299 20l-83 12q-67 0 -142 -22q-140 -40 -211 -40t-158.5 12.5t-172.5 42t-161.5 78.5t-134.5 122q-126 159 -126 404q0 235 147 433q134 180 358 286q217 104 445 104q127 0 240 -21t164 -38q117 -39 117 -95q0 -73 -30.5 -167t-40.5 -116t-21 -22q-20 0 -23 17 q-3 51 -6.5 101.5t-25.5 93.5t-58 76.5t-80 57.5q-94 51 -193.5 51t-200.5 -28.5t-191 -80.5t-166 -124t-131 -159q-118 -186 -118 -393q0 -245 148 -407q154 -167 401 -167q159 0 301 105q124 92 171 215q7 19 15.5 31.5t25.5 12.5q35 0 35 -17q-1 -2 -1.5 -6.5t-2.5 -16.5 t-6.5 -34.5t-13 -60.5t-21 -94.5t-22 -99.5t-15 -44.5t-12.5 -1.5zM1111 1594q-4 4 -4 6t4 6l213 295q36 49 71 49t55.5 -22.5t20.5 -52.5q0 -46 -55 -93l-269 -217q-5 -3 -8 -3t-6 3z" />
<glyph unicode="&#x107;" horiz-adv-x="606" d="M656.5 882.5q23.5 -19.5 23.5 -79.5t-35 -60q-29 0 -65.5 22.5t-56 33t-50.5 10.5t-65 -33.5t-62.5 -86t-50 -117.5t-35.5 -129q-30 -130 -30 -186t7 -88.5t23 -58.5q34 -56 103 -56q55 0 102 32t74 53.5t53 38.5l21 -26q-92 -92 -140 -121q-96 -58 -197 -58 q-199 0 -199 219q0 294 170 510q100 127 221 176q59 24 112 24t76.5 -19.5zM536 1096q-4 4 -4 6t4 6l213 295q36 49 71 49t55.5 -22.5t20.5 -52.5q0 -46 -55 -93l-269 -217q-5 -3 -8 -3t-6 3z" />
<glyph unicode="&#x108;" horiz-adv-x="1531" d="M1299 20l-83 12q-67 0 -142 -22q-140 -40 -211 -40t-158.5 12.5t-172.5 42t-161.5 78.5t-134.5 122q-126 159 -126 404q0 235 147 433q134 180 358 286q217 104 445 104q127 0 240 -21t164 -38q117 -39 117 -95q0 -73 -30.5 -167t-40.5 -116t-21 -22q-20 0 -23 17 q-3 51 -6.5 101.5t-25.5 93.5t-58 76.5t-80 57.5q-94 51 -193.5 51t-200.5 -28.5t-191 -80.5t-166 -124t-131 -159q-118 -186 -118 -393q0 -245 148 -407q154 -167 401 -167q159 0 301 105q124 92 171 215q7 19 15.5 31.5t25.5 12.5q35 0 35 -17q-1 -2 -1.5 -6.5t-2.5 -16.5 t-6.5 -34.5t-13 -60.5t-21 -94.5t-22 -99.5t-15 -44.5t-12.5 -1.5zM954 1562h-50l280 386h106v-388h-50l-44 247z" />
<glyph unicode="&#x109;" horiz-adv-x="606" d="M656.5 882.5q23.5 -19.5 23.5 -79.5t-35 -60q-29 0 -65.5 22.5t-56 33t-50.5 10.5t-65 -33.5t-62.5 -86t-50 -117.5t-35.5 -129q-30 -130 -30 -186t7 -88.5t23 -58.5q34 -56 103 -56q55 0 102 32t74 53.5t53 38.5l21 -26q-92 -92 -140 -121q-96 -58 -197 -58 q-199 0 -199 219q0 294 170 510q100 127 221 176q59 24 112 24t76.5 -19.5zM425 1065h-50l280 386h106v-388h-50l-44 247z" />
<glyph unicode="&#x10a;" horiz-adv-x="1531" d="M1299 20l-83 12q-67 0 -142 -22q-140 -40 -211 -40t-158.5 12.5t-172.5 42t-161.5 78.5t-134.5 122q-126 159 -126 404q0 235 147 433q134 180 358 286q217 104 445 104q127 0 240 -21t164 -38q117 -39 117 -95q0 -73 -30.5 -167t-40.5 -116t-21 -22q-20 0 -23 17 q-3 51 -6.5 101.5t-25.5 93.5t-58 76.5t-80 57.5q-94 51 -193.5 51t-200.5 -28.5t-191 -80.5t-166 -124t-131 -159q-118 -186 -118 -393q0 -245 148 -407q154 -167 401 -167q159 0 301 105q124 92 171 215q7 19 15.5 31.5t25.5 12.5q35 0 35 -17q-1 -2 -1.5 -6.5t-2.5 -16.5 t-6.5 -34.5t-13 -60.5t-21 -94.5t-22 -99.5t-15 -44.5t-12.5 -1.5zM1122.5 1692q-21.5 -9 -46 -9t-46 9t-37.5 25q-34 32 -34 69t9 58.5t25 37.5q35 35 71.5 35t58 -9.5t37.5 -25.5q33 -33 33 -70.5t-8.5 -58.5t-24.5 -36.5t-37.5 -24.5z" />
<glyph unicode="&#x10b;" horiz-adv-x="606" d="M656.5 882.5q23.5 -19.5 23.5 -79.5t-35 -60q-29 0 -65.5 22.5t-56 33t-50.5 10.5t-65 -33.5t-62.5 -86t-50 -117.5t-35.5 -129q-30 -130 -30 -186t7 -88.5t23 -58.5q34 -56 103 -56q55 0 102 32t74 53.5t53 38.5l21 -26q-92 -92 -140 -121q-96 -58 -197 -58 q-199 0 -199 219q0 294 170 510q100 127 221 176q59 24 112 24t76.5 -19.5zM594.5 1121q-21.5 -9 -46 -9t-46 9t-37.5 25q-34 32 -34 69t9 58.5t25 37.5q35 35 71.5 35t58 -9.5t37.5 -25.5q33 -33 33 -70.5t-8.5 -58.5t-24.5 -36.5t-37.5 -24.5z" />
<glyph unicode="&#x10c;" horiz-adv-x="1531" d="M1299 20l-83 12q-67 0 -142 -22q-140 -40 -211 -40t-158.5 12.5t-172.5 42t-161.5 78.5t-134.5 122q-126 159 -126 404q0 235 147 433q134 180 358 286q217 104 445 104q127 0 240 -21t164 -38q117 -39 117 -95q0 -73 -30.5 -167t-40.5 -116t-21 -22q-20 0 -23 17 q-3 51 -6.5 101.5t-25.5 93.5t-58 76.5t-80 57.5q-94 51 -193.5 51t-200.5 -28.5t-191 -80.5t-166 -124t-131 -159q-118 -186 -118 -393q0 -245 148 -407q154 -167 401 -167q159 0 301 105q124 92 171 215q7 19 15.5 31.5t25.5 12.5q35 0 35 -17q-1 -2 -1.5 -6.5t-2.5 -16.5 t-6.5 -34.5t-13 -60.5t-21 -94.5t-22 -99.5t-15 -44.5t-12.5 -1.5zM1360 1946h50l-280 -386h-106v388h50l44 -247z" />
<glyph unicode="&#x10d;" horiz-adv-x="606" d="M656.5 882.5q23.5 -19.5 23.5 -79.5t-35 -60q-29 0 -65.5 22.5t-56 33t-50.5 10.5t-65 -33.5t-62.5 -86t-50 -117.5t-35.5 -129q-30 -130 -30 -186t7 -88.5t23 -58.5q34 -56 103 -56q55 0 102 32t74 53.5t53 38.5l21 -26q-92 -92 -140 -121q-96 -58 -197 -58 q-199 0 -199 219q0 294 170 510q100 127 221 176q59 24 112 24t76.5 -19.5zM844 1449h50l-280 -386h-106v388h50l44 -247z" />
<glyph unicode="&#x10e;" horiz-adv-x="1619" d="M1351 1946h50l-280 -386h-106v388h50l44 -247zM235 1400q0 10 10 10h578q306 0 529 -132q166 -99 232 -262q35 -84 35 -190t-23 -207.5t-73 -193.5t-128 -169.5t-189 -134.5q-236 -121 -584 -121h-615q-7 0 -7 8l7 34q4 8 21 8t49.5 3.5t61.5 16.5q67 30 83 106l225 1055 q5 23 5 50t-12 43.5t-33 23.5q-29 11 -109 11h-63q-7 0 -7 8zM409 221q-2 -10 -2 -32.5t21 -50t54 -46.5q71 -40 161 -40q123 0 235.5 36.5t182.5 74.5t136 95t117 138q113 179 113 435q0 370 -359 487q-143 47 -329 47q-45 0 -68 -10.5t-30 -42.5z" />
<glyph unicode="&#x10f;" horiz-adv-x="1298" d="M733 1492q282 153 301.5 153t19.5 -33q0 -11 -2 -31l-305 -1401l-2 -16q-2 -14 -2 -26.5t8 -24.5t17.5 -12t24 11.5t29.5 25.5q42 36 52 36q16 0 16 -18q0 -19 -108 -102q-109 -85 -137 -85q-31 0 -43 41q-6 22 -6 49.5t3 50.5t7 41.5t8 35t5 33.5t-7 17q-11 0 -49 -33.5 t-70 -61.5t-67.5 -58t-69.5 -54q-77 -57 -113 -57t-58.5 30t-34.5 71q-20 70 -20 141.5t18.5 144t52 147t80 145t103.5 125.5q126 122 257 122q34 0 53 -15q36 -27 49 -27t15 11l124 589q4 16 4 26q0 25 -22 25q-19 0 -50.5 -15t-67.5 -32zM361 599q-108 -235 -95 -408 q5 -61 29 -84t55 -23q72 37 155.5 112t132.5 119l85 385q3 16 3 28.5t-8.5 31.5t-24.5 36q-39 41 -96 41q-56 0 -97 -37q-79 -71 -139 -201zM1142 1120q-27 0 -27 32q0 15 28 32.5t62 41t61 52.5q61 67 61 149q0 36 -20 75q-39 72 -39 107q0 20 13 44q29 49 60 49 t51.5 -11.5t36.5 -30.5q34 -39 34 -100t-23.5 -128.5t-64.5 -125.5q-82 -113 -223 -183q-6 -3 -10 -3z" />
<glyph unicode="&#x111;" horiz-adv-x="1014" d="M614 186.5q4 16.5 5 33.5t-7 17q-11 0 -49 -33.5t-70 -61.5t-67.5 -58t-69.5 -54q-77 -57 -113 -57t-58.5 30t-34.5 71q-20 70 -20 141.5t18.5 144t52 147t80 145t103.5 125.5q126 122 257 122q34 0 53 -15q36 -27 49 -27t15 11l60 287h-317q-10 0 -16.5 7t-4.5 18l5 25 q5 25 22 25h327l48 227q4 16 4 26q0 25 -22 25q-19 0 -50.5 -15t-67.5 -32l-13 31q282 153 301.5 153t19.5 -33q0 -11 -2 -31l-76 -351h116q9 0 16 -7t5 -18l-6 -25q-5 -25 -21 -25h-127l-212 -975l-2 -16q-2 -14 -2 -26.5t8 -24.5t17.5 -12t24 11.5t29.5 25.5q42 36 52 36 q16 0 16 -18q0 -19 -108 -102q-109 -85 -137 -85q-31 0 -43 41q-6 22 -6 49.5t3 50.5t7 41.5t8 35zM361 599q-108 -235 -95 -408q5 -61 29 -84t55 -23q72 37 155.5 112t132.5 119l85 385q3 16 3 28.5t-8.5 31.5t-24.5 36q-39 41 -96 41q-56 0 -97 -37q-79 -71 -139 -201z " />
<glyph unicode="&#x112;" horiz-adv-x="1360" d="M1257 311q0 -12 -25 -69t-42 -110t-28 -82t-24 -39.5t-41 -10.5h-1090q-7 0 -7 8l5 24q4 8 24.5 8t50 4.5t52.5 19.5q49 32 67 119q43 201 75.5 353.5t57 264.5t41 188t27.5 126t17 77.5t9 42.5q3 21 3 42.5t-19.5 41t-49.5 31.5q-52 20 -125 20q-6 0 -6 8l5 24q2 8 10 8 h1046q23 0 36.5 -4.5t13.5 -16t-0.5 -17.5t-4.5 -31q-4 -27 -33 -238q-2 -14 -16 -14q-28 0 -32 23q-3 15 -3 34.5t-3.5 45t-17.5 58t-37 55.5q-50 50 -127 50h-367q-55 0 -65 -8q-13 -10 -23 -57l-105 -500q-2 -8 -2 -12q0 -25 42 -25h367q65 0 127 47q47 37 79 96 q7 13 17 13h17q9 0 9 -7t-0.5 -7t-0.5 -2l-80 -373q-4 -21 -20 -21q-11 0 -14.5 3.5t-5.5 16.5t-2.5 30t-6.5 41.5t-19.5 42.5t-32.5 28q-34 17 -98 17h-361q-8 0 -23 -7t-21 -26t-9.5 -37.5t-15.5 -70.5t-27 -128t-26 -125q-15 -68 -15 -109.5t16.5 -64t45.5 -33.5 q42 -16 141 -16t164.5 4t114.5 12.5t85.5 23t67.5 35.5q42 30 90 79t59 62.5t22 24.5q26 28 46.5 28t20.5 -19zM618 1849h627l-27 -99h-627z" />
<glyph unicode="&#x113;" horiz-adv-x="789" d="M432 54q95 0 232 84l14 -25q-105 -81 -238 -122q-58 -18 -118.5 -18t-102.5 25.5t-69 68.5q-50 82 -50 212q20 222 160 411q95 128 228 182q68 28 122.5 28t84.5 -9.5t53 -28.5q51 -41 51 -103.5t-26.5 -107.5t-69.5 -78t-98 -57t-111.5 -42t-111 -32.5t-95.5 -29.5 q-32 -75 -32 -153q0 -140 95 -188q34 -17 82 -17zM301 472q0 -17 27 -17q151 44 216 89.5t98.5 95.5t33.5 120q0 71 -44 93q-15 8 -47.5 8t-69.5 -19.5t-67 -52t-54 -73.5t-42 -84q-30 -72 -51 -160zM319 1307h627l-27 -99h-627z" />
<glyph unicode="&#x114;" horiz-adv-x="1360" d="M1257 311q0 -12 -25 -69t-42 -110t-28 -82t-24 -39.5t-41 -10.5h-1090q-7 0 -7 8l5 24q4 8 24.5 8t50 4.5t52.5 19.5q49 32 67 119q43 201 75.5 353.5t57 264.5t41 188t27.5 126t17 77.5t9 42.5q3 21 3 42.5t-19.5 41t-49.5 31.5q-52 20 -125 20q-6 0 -6 8l5 24q2 8 10 8 h1046q23 0 36.5 -4.5t13.5 -16t-0.5 -17.5t-4.5 -31q-4 -27 -33 -238q-2 -14 -16 -14q-28 0 -32 23q-3 15 -3 34.5t-3.5 45t-17.5 58t-37 55.5q-50 50 -127 50h-367q-55 0 -65 -8q-13 -10 -23 -57l-105 -500q-2 -8 -2 -12q0 -25 42 -25h367q65 0 127 47q47 37 79 96 q7 13 17 13h17q9 0 9 -7t-0.5 -7t-0.5 -2l-80 -373q-4 -21 -20 -21q-11 0 -14.5 3.5t-5.5 16.5t-2.5 30t-6.5 41.5t-19.5 42.5t-32.5 28q-34 17 -98 17h-361q-8 0 -23 -7t-21 -26t-9.5 -37.5t-15.5 -70.5t-27 -128t-26 -125q-15 -68 -15 -109.5t16.5 -64t45.5 -33.5 q42 -16 141 -16t164.5 4t114.5 12.5t85.5 23t67.5 35.5q42 30 90 79t59 62.5t22 24.5q26 28 46.5 28t20.5 -19zM908 1638q-56 0 -101 26t-77 70q-64 89 -64 216h31q0 -87 69 -141q65 -52 159 -52q76 0 162 67q87 67 87 126h33q0 -112 -94 -212q-95 -100 -205 -100z" />
<glyph unicode="&#x115;" horiz-adv-x="789" d="M432 54q95 0 232 84l14 -25q-105 -81 -238 -122q-58 -18 -118.5 -18t-102.5 25.5t-69 68.5q-50 82 -50 212q20 222 160 411q95 128 228 182q68 28 122.5 28t84.5 -9.5t53 -28.5q51 -41 51 -103.5t-26.5 -107.5t-69.5 -78t-98 -57t-111.5 -42t-111 -32.5t-95.5 -29.5 q-32 -75 -32 -153q0 -140 95 -188q34 -17 82 -17zM301 472q0 -17 27 -17q151 44 216 89.5t98.5 95.5t33.5 120q0 71 -44 93q-15 8 -47.5 8t-69.5 -19.5t-67 -52t-54 -73.5t-42 -84q-30 -72 -51 -160zM572 1096q-56 0 -101 26t-77 70q-64 89 -64 216h31q0 -87 69 -141 q65 -52 159 -52q76 0 162 67q87 67 87 126h33q0 -112 -94 -212q-95 -100 -205 -100z" />
<glyph unicode="&#x116;" horiz-adv-x="1360" d="M1257 311q0 -12 -25 -69t-42 -110t-28 -82t-24 -39.5t-41 -10.5h-1090q-7 0 -7 8l5 24q4 8 24.5 8t50 4.5t52.5 19.5q49 32 67 119q43 201 75.5 353.5t57 264.5t41 188t27.5 126t17 77.5t9 42.5q3 21 3 42.5t-19.5 41t-49.5 31.5q-52 20 -125 20q-6 0 -6 8l5 24q2 8 10 8 h1046q23 0 36.5 -4.5t13.5 -16t-0.5 -17.5t-4.5 -31q-4 -27 -33 -238q-2 -14 -16 -14q-28 0 -32 23q-3 15 -3 34.5t-3.5 45t-17.5 58t-37 55.5q-50 50 -127 50h-367q-55 0 -65 -8q-13 -10 -23 -57l-105 -500q-2 -8 -2 -12q0 -25 42 -25h367q65 0 127 47q47 37 79 96 q7 13 17 13h17q9 0 9 -7t-0.5 -7t-0.5 -2l-80 -373q-4 -21 -20 -21q-11 0 -14.5 3.5t-5.5 16.5t-2.5 30t-6.5 41.5t-19.5 42.5t-32.5 28q-34 17 -98 17h-361q-8 0 -23 -7t-21 -26t-9.5 -37.5t-15.5 -70.5t-27 -128t-26 -125q-15 -68 -15 -109.5t16.5 -64t45.5 -33.5 q42 -16 141 -16t164.5 4t114.5 12.5t85.5 23t67.5 35.5q42 30 90 79t59 62.5t22 24.5q26 28 46.5 28t20.5 -19zM929.5 1692q-21.5 -9 -46 -9t-46 9t-37.5 25q-34 32 -34 69t9 58.5t25 37.5q35 35 71.5 35t58 -9.5t37.5 -25.5q33 -33 33 -70.5t-8.5 -58.5t-24.5 -36.5 t-37.5 -24.5z" />
<glyph unicode="&#x117;" horiz-adv-x="789" d="M432 54q95 0 232 84l14 -25q-105 -81 -238 -122q-58 -18 -118.5 -18t-102.5 25.5t-69 68.5q-50 82 -50 212q20 222 160 411q95 128 228 182q68 28 122.5 28t84.5 -9.5t53 -28.5q51 -41 51 -103.5t-26.5 -107.5t-69.5 -78t-98 -57t-111.5 -42t-111 -32.5t-95.5 -29.5 q-32 -75 -32 -153q0 -140 95 -188q34 -17 82 -17zM301 472q0 -17 27 -17q151 44 216 89.5t98.5 95.5t33.5 120q0 71 -44 93q-15 8 -47.5 8t-69.5 -19.5t-67 -52t-54 -73.5t-42 -84q-30 -72 -51 -160zM713.5 1121q-21.5 -9 -46 -9t-46 9t-37.5 25q-34 32 -34 69t9 58.5 t25 37.5q35 35 71.5 35t58 -9.5t37.5 -25.5q33 -33 33 -70.5t-8.5 -58.5t-24.5 -36.5t-37.5 -24.5z" />
<glyph unicode="&#x118;" horiz-adv-x="1360" d="M1257 311q0 -12 -25 -69t-42 -110t-28 -82t-24 -39.5t-41 -10.5h-1090q-7 0 -7 8l5 24q4 8 24.5 8t50 4.5t52.5 19.5q49 32 67 119q43 201 75.5 353.5t57 264.5t41 188t27.5 126t17 77.5t9 42.5q3 21 3 42.5t-19.5 41t-49.5 31.5q-52 20 -125 20q-6 0 -6 8l5 24q2 8 10 8 h1046q23 0 36.5 -4.5t13.5 -16t-0.5 -17.5t-4.5 -31q-4 -27 -33 -238q-2 -14 -16 -14q-28 0 -32 23q-3 15 -3 34.5t-3.5 45t-17.5 58t-37 55.5q-50 50 -127 50h-367q-55 0 -65 -8q-13 -10 -23 -57l-105 -500q-2 -8 -2 -12q0 -25 42 -25h367q65 0 127 47q47 37 79 96 q7 13 17 13h17q9 0 9 -7t-0.5 -7t-0.5 -2l-80 -373q-4 -21 -20 -21q-11 0 -14.5 3.5t-5.5 16.5t-2.5 30t-6.5 41.5t-19.5 42.5t-32.5 28q-34 17 -98 17h-361q-8 0 -23 -7t-21 -26t-9.5 -37.5t-15.5 -70.5t-27 -128t-26 -125q-15 -68 -15 -109.5t16.5 -64t45.5 -33.5 q42 -16 141 -16t164.5 4t114.5 12.5t85.5 23t67.5 35.5q42 30 90 79t59 62.5t22 24.5q26 28 46.5 28t20.5 -19zM881 0q-162 -181 -162 -305q0 -66 29 -100q52 -60 129 -60q53 0 79.5 10.5t34.5 10.5t8 -12t-13.5 -29.5t-35.5 -30.5q-46 -30 -100 -30t-99 13t-79 39 q-71 54 -71 152q0 88 76 192q62 86 152 150h52z" />
<glyph unicode="&#x119;" horiz-adv-x="789" d="M432 54q95 0 232 84l14 -25q-105 -81 -238 -122q-58 -18 -118.5 -18t-102.5 25.5t-69 68.5q-50 82 -50 212q20 222 160 411q95 128 228 182q68 28 122.5 28t84.5 -9.5t53 -28.5q51 -41 51 -103.5t-26.5 -107.5t-69.5 -78t-98 -57t-111.5 -42t-111 -32.5t-95.5 -29.5 q-32 -75 -32 -153q0 -140 95 -188q34 -17 82 -17zM301 472q0 -17 27 -17q151 44 216 89.5t98.5 95.5t33.5 120q0 71 -44 93q-15 8 -47.5 8t-69.5 -19.5t-67 -52t-54 -73.5t-42 -84q-30 -72 -51 -160zM416 0q-162 -181 -162 -305q0 -66 29 -100q52 -60 129 -60 q53 0 79.5 10.5t34.5 10.5t8 -12t-13.5 -29.5t-35.5 -30.5q-46 -30 -100 -30t-99 13t-79 39q-71 54 -71 152q0 88 76 192q62 86 152 150h52z" />
<glyph unicode="&#x11a;" horiz-adv-x="1360" d="M1257 311q0 -12 -25 -69t-42 -110t-28 -82t-24 -39.5t-41 -10.5h-1090q-7 0 -7 8l5 24q4 8 24.5 8t50 4.5t52.5 19.5q49 32 67 119q43 201 75.5 353.5t57 264.5t41 188t27.5 126t17 77.5t9 42.5q3 21 3 42.5t-19.5 41t-49.5 31.5q-52 20 -125 20q-6 0 -6 8l5 24q2 8 10 8 h1046q23 0 36.5 -4.5t13.5 -16t-0.5 -17.5t-4.5 -31q-4 -27 -33 -238q-2 -14 -16 -14q-28 0 -32 23q-3 15 -3 34.5t-3.5 45t-17.5 58t-37 55.5q-50 50 -127 50h-367q-55 0 -65 -8q-13 -10 -23 -57l-105 -500q-2 -8 -2 -12q0 -25 42 -25h367q65 0 127 47q47 37 79 96 q7 13 17 13h17q9 0 9 -7t-0.5 -7t-0.5 -2l-80 -373q-4 -21 -20 -21q-11 0 -14.5 3.5t-5.5 16.5t-2.5 30t-6.5 41.5t-19.5 42.5t-32.5 28q-34 17 -98 17h-361q-8 0 -23 -7t-21 -26t-9.5 -37.5t-15.5 -70.5t-27 -128t-26 -125q-15 -68 -15 -109.5t16.5 -64t45.5 -33.5 q42 -16 141 -16t164.5 4t114.5 12.5t85.5 23t67.5 35.5q42 30 90 79t59 62.5t22 24.5q26 28 46.5 28t20.5 -19zM1187 1946h50l-280 -386h-106v388h50l44 -247z" />
<glyph unicode="&#x11b;" horiz-adv-x="789" d="M432 54q95 0 232 84l14 -25q-105 -81 -238 -122q-58 -18 -118.5 -18t-102.5 25.5t-69 68.5q-50 82 -50 212q20 222 160 411q95 128 228 182q68 28 122.5 28t84.5 -9.5t53 -28.5q51 -41 51 -103.5t-26.5 -107.5t-69.5 -78t-98 -57t-111.5 -42t-111 -32.5t-95.5 -29.5 q-32 -75 -32 -153q0 -140 95 -188q34 -17 82 -17zM301 472q0 -17 27 -17q151 44 216 89.5t98.5 95.5t33.5 120q0 71 -44 93q-15 8 -47.5 8t-69.5 -19.5t-67 -52t-54 -73.5t-42 -84q-30 -72 -51 -160zM931 1449h50l-280 -386h-106v388h50l44 -247z" />
<glyph unicode="&#x11c;" horiz-adv-x="1625" d="M1477 122q18 0 18 -11q0 -34 -65 -55q-114 -38 -413 -72q-102 -11 -138 -11q-342 0 -554 179q-225 189 -225 522q0 208 142 395q132 172 337 278q204 105 393 105q204 0 271.5 -10.5t104.5 -19.5q104 -25 151.5 -44.5t52.5 -25.5q15 -20 22 -119t7 -148t-16 -49 t-24.5 4.5t-13 13t-7 19.5t-21.5 52.5t-57.5 99t-91.5 97.5q-108 83 -293 83q-187 0 -365 -108q-172 -105 -280 -276q-111 -178 -111 -373q0 -271 133 -436q142 -176 404 -176q230 0 337 70q44 28 54 74l49 221q3 12 3 28t-11.5 32.5t-29.5 26.5q-37 22 -76.5 22t-39.5 18 t29 18h119l196 -1h101t45 -20q0 -15 -37.5 -15t-67 -26.5t-36.5 -57t-14 -64t-14.5 -68t-14.5 -68t-10.5 -49t-3.5 -21.5q0 -34 61 -34zM945 1562h-50l280 386h106v-388h-50l-44 247z" />
<glyph unicode="&#x11d;" horiz-adv-x="914" d="M899 821q0 -15 -18 -15h-118q4 -17 10.5 -37.5t12.5 -46.5q14 -59 14 -126.5t-20.5 -126.5t-54.5 -109q-56 -82 -170 -175q-39 -32 -116.5 -66t-103.5 -50t-26 -44.5t30 -63.5t75.5 -69t98 -69t97.5 -73q106 -88 106 -171q0 -145 -248 -199q-89 -20 -181 -20t-174 7 t-143 27q-135 42 -135 148q0 82 126 169q68 47 125 78t76 43q56 34 65 43q-5 19 -13 38.5t-8 40.5t7 37t18.5 30t26.5 29q37 35 37 41t-10.5 17.5t-24.5 25.5q-30 26 -49.5 47.5t-35 51.5t-25.5 64q-18 66 -18 129.5t22 119.5t60 108t87.5 97t105.5 78q120 71 229 71 q220 0 257 -22q6 -3 6 -11v-46zM-23.5 -370.5q-17.5 -30.5 -17.5 -74.5t24.5 -78.5t70.5 -54.5q78 -33 253 -33q145 0 241 58q63 38 63 96q0 66 -131 155q-36 25 -74 50l-148 100q-16 -12 -44.5 -28t-61.5 -36.5t-67.5 -44.5t-62.5 -51.5t-45.5 -58zM670 644q0 207 -135 207 q-74 0 -139 -81q-85 -110 -114 -296q-9 -55 -9 -95.5t6.5 -78t22.5 -68.5q37 -74 110 -74q47 0 98.5 52.5t79 101.5t45.5 103q35 105 35 229zM505 1065h-50l280 386h106v-388h-50l-44 247z" />
<glyph unicode="&#x11e;" horiz-adv-x="1625" d="M1477 122q18 0 18 -11q0 -34 -65 -55q-114 -38 -413 -72q-102 -11 -138 -11q-342 0 -554 179q-225 189 -225 522q0 208 142 395q132 172 337 278q204 105 393 105q204 0 271.5 -10.5t104.5 -19.5q104 -25 151.5 -44.5t52.5 -25.5q15 -20 22 -119t7 -148t-16 -49 t-24.5 4.5t-13 13t-7 19.5t-21.5 52.5t-57.5 99t-91.5 97.5q-108 83 -293 83q-187 0 -365 -108q-172 -105 -280 -276q-111 -178 -111 -373q0 -271 133 -436q142 -176 404 -176q230 0 337 70q44 28 54 74l49 221q3 12 3 28t-11.5 32.5t-29.5 26.5q-37 22 -76.5 22t-39.5 18 t29 18h119l196 -1h101t45 -20q0 -15 -37.5 -15t-67 -26.5t-36.5 -57t-14 -64t-14.5 -68t-14.5 -68t-10.5 -49t-3.5 -21.5q0 -34 61 -34zM1122 1639q-56 0 -101 26t-77 70q-64 89 -64 216h31q0 -87 69 -141q65 -52 159 -52q76 0 162 67q87 67 87 126h33q0 -112 -94 -212 q-95 -100 -205 -100z" />
<glyph unicode="&#x11f;" horiz-adv-x="977" d="M899 821q0 -15 -18 -15h-118q4 -17 10.5 -37.5t12.5 -46.5q14 -59 14 -126.5t-20.5 -126.5t-54.5 -109q-56 -82 -170 -175q-39 -32 -116.5 -66t-103.5 -50t-26 -44.5t30 -63.5t75.5 -69t98 -69t97.5 -73q106 -88 106 -171q0 -145 -248 -199q-89 -20 -181 -20t-174 7 t-143 27q-135 42 -135 148q0 82 126 169q68 47 125 78t76 43q56 34 65 43q-5 19 -13 38.5t-8 40.5t7 37t18.5 30t26.5 29q37 35 37 41t-10.5 17.5t-24.5 25.5q-30 26 -49.5 47.5t-35 51.5t-25.5 64q-18 66 -18 129.5t22 119.5t60 108t87.5 97t105.5 78q120 71 229 71 q220 0 257 -22q6 -3 6 -11v-46zM-23.5 -370.5q-17.5 -30.5 -17.5 -74.5t24.5 -78.5t70.5 -54.5q78 -33 253 -33q145 0 241 58q63 38 63 96q0 66 -131 155q-36 25 -74 50l-148 100q-16 -12 -44.5 -28t-61.5 -36.5t-67.5 -44.5t-62.5 -51.5t-45.5 -58zM670 644q0 207 -135 207 q-74 0 -139 -81q-85 -110 -114 -296q-9 -55 -9 -95.5t6.5 -78t22.5 -68.5q37 -74 110 -74q47 0 98.5 52.5t79 101.5t45.5 103q35 105 35 229zM663 1096q-56 0 -101 26t-77 70q-64 89 -64 216h31q0 -87 69 -141q65 -52 159 -52q76 0 162 67q87 67 87 126h33q0 -112 -94 -212 q-95 -100 -205 -100z" />
<glyph unicode="&#x120;" horiz-adv-x="1625" d="M1477 122q18 0 18 -11q0 -34 -65 -55q-114 -38 -413 -72q-102 -11 -138 -11q-342 0 -554 179q-225 189 -225 522q0 208 142 395q132 172 337 278q204 105 393 105q204 0 271.5 -10.5t104.5 -19.5q104 -25 151.5 -44.5t52.5 -25.5q15 -20 22 -119t7 -148t-16 -49 t-24.5 4.5t-13 13t-7 19.5t-21.5 52.5t-57.5 99t-91.5 97.5q-108 83 -293 83q-187 0 -365 -108q-172 -105 -280 -276q-111 -178 -111 -373q0 -271 133 -436q142 -176 404 -176q230 0 337 70q44 28 54 74l49 221q3 12 3 28t-11.5 32.5t-29.5 26.5q-37 22 -76.5 22t-39.5 18 t29 18h119l196 -1h101t45 -20q0 -15 -37.5 -15t-67 -26.5t-36.5 -57t-14 -64t-14.5 -68t-14.5 -68t-10.5 -49t-3.5 -21.5q0 -34 61 -34zM1173.5 1692q-21.5 -9 -46 -9t-46 9t-37.5 25q-34 32 -34 69t9 58.5t25 37.5q35 35 71.5 35t58 -9.5t37.5 -25.5q33 -33 33 -70.5 t-8.5 -58.5t-24.5 -36.5t-37.5 -24.5z" />
<glyph unicode="&#x121;" horiz-adv-x="914" d="M899 821q0 -15 -18 -15h-118q4 -17 10.5 -37.5t12.5 -46.5q14 -59 14 -126.5t-20.5 -126.5t-54.5 -109q-56 -82 -170 -175q-39 -32 -116.5 -66t-103.5 -50t-26 -44.5t30 -63.5t75.5 -69t98 -69t97.5 -73q106 -88 106 -171q0 -145 -248 -199q-89 -20 -181 -20t-174 7 t-143 27q-135 42 -135 148q0 82 126 169q68 47 125 78t76 43q56 34 65 43q-5 19 -13 38.5t-8 40.5t7 37t18.5 30t26.5 29q37 35 37 41t-10.5 17.5t-24.5 25.5q-30 26 -49.5 47.5t-35 51.5t-25.5 64q-18 66 -18 129.5t22 119.5t60 108t87.5 97t105.5 78q120 71 229 71 q220 0 257 -22q6 -3 6 -11v-46zM-23.5 -370.5q-17.5 -30.5 -17.5 -74.5t24.5 -78.5t70.5 -54.5q78 -33 253 -33q145 0 241 58q63 38 63 96q0 66 -131 155q-36 25 -74 50l-148 100q-16 -12 -44.5 -28t-61.5 -36.5t-67.5 -44.5t-62.5 -51.5t-45.5 -58zM670 644q0 207 -135 207 q-74 0 -139 -81q-85 -110 -114 -296q-9 -55 -9 -95.5t6.5 -78t22.5 -68.5q37 -74 110 -74q47 0 98.5 52.5t79 101.5t45.5 103q35 105 35 229zM743.5 1121q-21.5 -9 -46 -9t-46 9t-37.5 25q-34 32 -34 69t9 58.5t25 37.5q35 35 71.5 35t58 -9.5t37.5 -25.5q33 -33 33 -70.5 t-8.5 -58.5t-24.5 -36.5t-37.5 -24.5z" />
<glyph unicode="&#x122;" horiz-adv-x="1625" d="M1477 122q18 0 18 -11q0 -34 -65 -55q-114 -38 -413 -72q-102 -11 -138 -11q-342 0 -554 179q-225 189 -225 522q0 208 142 395q132 172 337 278q204 105 393 105q204 0 271.5 -10.5t104.5 -19.5q104 -25 151.5 -44.5t52.5 -25.5q15 -20 22 -119t7 -148t-16 -49 t-24.5 4.5t-13 13t-7 19.5t-21.5 52.5t-57.5 99t-91.5 97.5q-108 83 -293 83q-187 0 -365 -108q-172 -105 -280 -276q-111 -178 -111 -373q0 -271 133 -436q142 -176 404 -176q230 0 337 70q44 28 54 74l49 221q3 12 3 28t-11.5 32.5t-29.5 26.5q-37 22 -76.5 22t-39.5 18 t29 18h119l196 -1h101t45 -20q0 -15 -37.5 -15t-67 -26.5t-36.5 -57t-14 -64t-14.5 -68t-14.5 -68t-10.5 -49t-3.5 -21.5q0 -34 61 -34zM985.5 -551q-31.5 -32 -71.5 -60.5t-60 -28.5q-15 0 -15 27q0 16 21.5 30.5t32 24t29.5 28.5t34 41q37 52 37 95q0 29 -11.5 35t-33 6 t-47.5 6.5t-46 20.5q-44 31 -44 96q0 47 27 71q46 42 88.5 42t72.5 -18t50 -47q40 -58 40 -119t-13 -102.5t-36 -78.5t-54.5 -69z" />
<glyph unicode="&#x123;" horiz-adv-x="914" d="M899 821q0 -15 -18 -15h-118q4 -17 10.5 -37.5t12.5 -46.5q14 -59 14 -126.5t-20.5 -126.5t-54.5 -109q-56 -82 -170 -175q-39 -32 -116.5 -66t-103.5 -50t-26 -44.5t30 -63.5t75.5 -69t98 -69t97.5 -73q106 -88 106 -171q0 -145 -248 -199q-89 -20 -181 -20t-174 7 t-143 27q-135 42 -135 148q0 82 126 169q68 47 125 78t76 43q56 34 65 43q-5 19 -13 38.5t-8 40.5t7 37t18.5 30t26.5 29q37 35 37 41t-10.5 17.5t-24.5 25.5q-30 26 -49.5 47.5t-35 51.5t-25.5 64q-18 66 -18 129.5t22 119.5t60 108t87.5 97t105.5 78q120 71 229 71 q220 0 257 -22q6 -3 6 -11v-46zM-23.5 -370.5q-17.5 -30.5 -17.5 -74.5t24.5 -78.5t70.5 -54.5q78 -33 253 -33q145 0 241 58q63 38 63 96q0 66 -131 155q-36 25 -74 50l-148 100q-16 -12 -44.5 -28t-61.5 -36.5t-67.5 -44.5t-62.5 -51.5t-45.5 -58zM670 644q0 207 -135 207 q-74 0 -139 -81q-85 -110 -114 -296q-9 -55 -9 -95.5t6.5 -78t22.5 -68.5q37 -74 110 -74q47 0 98.5 52.5t79 101.5t45.5 103q35 105 35 229zM686 1662q27 0 27 -32q0 -15 -28 -32.5t-62 -41t-61 -52.5q-61 -67 -61 -149q0 -36 20 -75q39 -72 39 -107q0 -20 -13 -44 q-29 -49 -60 -49t-51.5 11.5t-36.5 30.5q-34 39 -34 100t23.5 128.5t64.5 125.5q82 113 223 183q6 3 10 3z" />
<glyph unicode="&#x124;" horiz-adv-x="1626" d="M1409 1274q0 96 -170 96q-6 0 -6 8l5 24q2 8 10 8h521q6 0 6 -8l-5 -24q-2 -8 -23.5 -8t-51.5 -4.5t-53 -19.5q-50 -31 -68 -119l-226 -1067q-4 -16 -4 -40t18 -42t46 -26q38 -12 122 -12q6 0 6 -8l-5 -24q-3 -8 -9 -8h-536q-7 0 -7 8l5 24q4 8 24.5 8t50 4.5t52.5 19.5 q49 32 69.5 128.5t36 169.5t26 121.5t16 76t7.5 42.5q4 20 4 25q0 61 -52 61h-663q-50 0 -69 -76q-11 -48 -37 -172t-36 -171t-15.5 -74t-7.5 -41q-4 -18 -4 -37t18 -37.5t46 -27.5q36 -12 121 -12q6 0 6 -8l-5 -24q-3 -8 -9 -8h-536q-7 0 -7 8l5 24q4 8 24.5 8t50 4.5 t52.5 19.5q49 32 67 119l227 1067q4 16 4 27q0 93 -166 93q-10 0 -10 10l5 22q2 8 10 8h521q6 0 6 -8l-5 -24q-2 -8 -23.5 -8t-51.5 -4.5t-53 -19.5q-49 -32 -68.5 -127t-35 -166t-25.5 -118.5t-15.5 -74t-8.5 -39.5t-4 -17q-3 -12 -3 -18q0 -22 31 -22h712q36 0 58.5 104.5 t36.5 170.5t23 109.5t14 67.5t8 36q3 18 3 22zM943 1562h-50l280 386h106v-388h-50l-44 247z" />
<glyph unicode="&#x125;" horiz-adv-x="982" d="M100 0q0 13 5 34q9 40 11 51l292 1372q4 16 4 26q0 25 -22 25q-17 0 -48.5 -15t-67.5 -32l-13 31q282 153 301.5 153t19.5 -33q0 -3 -6 -30l-227 -1072q0 -10 9 -10q10 0 33.5 26.5t58.5 65t76.5 80t86.5 82.5t89 74q100 72 160 72q30 0 52.5 -23.5t22.5 -49.5t-3 -39 l-178 -692v-4q0 -22 25 -22q40 0 141 106l16 16l19 -19q-19 -37 -80.5 -88t-90.5 -70q-66 -44 -99.5 -44t-56 24t-22.5 49.5t3 39.5l178 692v4q0 9 -8.5 15.5t-22 6t-46.5 -24t-74 -60.5t-86 -82t-86 -89q-98 -105 -122 -139t-30 -63l-71 -333q-69 -40 -106 -40t-37 29z M685 1722h-50l280 386h106v-388h-50l-44 247z" />
<glyph unicode="&#x126;" horiz-adv-x="1626" d="M1409 1274q0 96 -170 96q-6 0 -6 8l5 24q2 8 10 8h521q6 0 6 -8l-5 -24q-2 -8 -23.5 -8t-51.5 -4.5t-53 -19.5q-50 -31 -68 -119l-19 -89h165q21 0 21 -20l-6 -30q-5 -25 -21 -25h-175l-191 -903q-4 -16 -4 -40t18 -42t46 -26q38 -12 122 -12q6 0 6 -8l-5 -24 q-3 -8 -9 -8h-536q-7 0 -7 8l5 24q4 8 24.5 8t50 4.5t52.5 19.5q49 32 69.5 128.5t36 169.5t26 121.5t16 76t7.5 42.5q4 20 4 25q0 61 -52 61h-663q-50 0 -69 -76q-11 -48 -37 -172t-36 -171t-15.5 -74t-7.5 -41q-4 -18 -4 -37t18 -37.5t46 -27.5q36 -12 121 -12q6 0 6 -8 l-5 -24q-3 -8 -9 -8h-536q-7 0 -7 8l5 24q4 8 24.5 8t50 4.5t52.5 19.5q49 32 67 119l187 880h-195q-21 0 -21 20l5 30q5 25 22 25h205l24 112q4 16 4 27q0 93 -166 93q-10 0 -10 10l5 22q2 8 10 8h521q6 0 6 -8l-5 -24q-2 -8 -23.5 -8t-51.5 -4.5t-53 -19.5 q-49 -32 -67 -119l-19 -89h785q27 124 27 136zM523 786q0 -22 31 -22h712q36 0 60 114l40 185h-785z" />
<glyph unicode="&#x127;" horiz-adv-x="982" d="M100 0q0 13 5 34q9 40 11 51l227 1070h-141q-10 0 -16.5 7t-4.5 18l5 25q5 25 22 25h151l49 227q4 16 4 26q0 25 -22 25q-17 0 -48.5 -15t-67.5 -32l-13 31q282 153 301.5 153t19.5 -33q0 -3 -6 -30l-75 -352h311q9 0 16 -7t5 -18l-6 -25q-5 -25 -21 -25h-321l-136 -645 q0 -10 9 -10q10 0 33.5 26.5t58.5 65t76.5 80t86.5 82.5t89 74q100 72 160 72q30 0 52.5 -23.5t22.5 -49.5t-3 -39l-178 -692v-4q0 -22 25 -22q40 0 141 106l16 16l19 -19q-19 -37 -80.5 -88t-90.5 -70q-66 -44 -99.5 -44t-56 24t-22.5 49.5t3 39.5l178 692v4q0 9 -8.5 15.5 t-22 6t-46.5 -24t-74 -60.5t-86 -82t-86 -89q-98 -105 -122 -139t-30 -63l-71 -333q-69 -40 -106 -40t-37 29z" />
<glyph unicode="&#x128;" horiz-adv-x="667" d="M450 1275q0 95 -170 95q-6 0 -6 8l5 24q2 8 10 8h521q6 0 6 -8l-5 -24q-2 -8 -23.5 -8t-51 -4.5t-52.5 -19.5q-50 -31 -68 -119l-227 -1067q-4 -16 -4 -40t18 -42t46 -26q38 -12 122 -12q6 0 6 -8l-5 -24q-3 -8 -9 -8h-536q-7 0 -7 8l5 24q4 8 24.5 8t50 4.5t52.5 19.5 q50 31 68 119q43 202 75.5 355t57 266.5t41 191t27.5 128.5t17 79t8 43q4 21 4 29zM850.5 1878.5q4.5 20.5 4.5 35t16 14.5h19q14 0 14 -37t-11 -69t-32 -56q-48 -56 -119 -56q-57 0 -123.5 35.5t-103.5 52t-63.5 16.5t-42 -11.5t-28.5 -29.5q-30 -42 -30 -89q0 -12 -16 -12 h-21q-8 0 -8 31t11 70.5t31 68.5q42 60 114 60q55 0 128 -36t112.5 -52.5t68 -16.5t42.5 12.5t23.5 30.5t14 38.5z" />
<glyph unicode="&#x129;" horiz-adv-x="557" d="M640.5 1318.5q4.5 20.5 4.5 35t16 14.5h19q14 0 14 -37t-11 -69t-32 -56q-48 -56 -119 -56q-57 0 -123.5 35.5t-103.5 52t-63.5 16.5t-42 -11.5t-28.5 -29.5q-30 -42 -30 -89q0 -12 -16 -12h-21q-8 0 -8 31t11 70.5t31 68.5q42 60 114 60q55 0 128 -36t112.5 -52.5 t68 -16.5t42.5 12.5t23.5 30.5t14 38.5zM316 780q0 22 -25 22q-43 0 -131 -95q-18 -20 -26 -27l-19 19q20 39 113 115q107 86 161 86q30 0 52.5 -23.5t22.5 -49.5t-3 -39l-147 -692v-4q0 -22 25 -22q40 0 141 106l16 16l19 -19q-20 -39 -113 -115q-107 -86 -161 -86 q-30 0 -52.5 23.5t-22.5 49t3 39.5l147 692v4z" />
<glyph unicode="&#x12a;" horiz-adv-x="667" d="M450 1275q0 95 -170 95q-6 0 -6 8l5 24q2 8 10 8h521q6 0 6 -8l-5 -24q-2 -8 -23.5 -8t-51 -4.5t-52.5 -19.5q-50 -31 -68 -119l-227 -1067q-4 -16 -4 -40t18 -42t46 -26q38 -12 122 -12q6 0 6 -8l-5 -24q-3 -8 -9 -8h-536q-7 0 -7 8l5 24q4 8 24.5 8t50 4.5t52.5 19.5 q50 31 68 119q43 202 75.5 355t57 266.5t41 191t27.5 128.5t17 79t8 43q4 21 4 29zM313 1849h627l-27 -99h-627z" />
<glyph unicode="&#x12b;" horiz-adv-x="557" d="M202 1307h507l-27 -99h-507zM316 780q0 22 -25 22q-43 0 -131 -95q-18 -20 -26 -27l-19 19q20 39 113 115q107 86 161 86q30 0 52.5 -23.5t22.5 -49.5t-3 -39l-147 -692v-4q0 -22 25 -22q40 0 141 106l16 16l19 -19q-20 -39 -113 -115q-107 -86 -161 -86 q-30 0 -52.5 23.5t-22.5 49t3 39.5l147 692v4z" />
<glyph unicode="&#x12c;" horiz-adv-x="667" d="M450 1275q0 95 -170 95q-6 0 -6 8l5 24q2 8 10 8h521q6 0 6 -8l-5 -24q-2 -8 -23.5 -8t-51 -4.5t-52.5 -19.5q-50 -31 -68 -119l-227 -1067q-4 -16 -4 -40t18 -42t46 -26q38 -12 122 -12q6 0 6 -8l-5 -24q-3 -8 -9 -8h-536q-7 0 -7 8l5 24q4 8 24.5 8t50 4.5t52.5 19.5 q50 31 68 119q43 202 75.5 355t57 266.5t41 191t27.5 128.5t17 79t8 43q4 21 4 29zM633 1639q-56 0 -101 26t-77 70q-64 89 -64 216h31q0 -87 69 -141q65 -52 159 -52q76 0 162 67q87 67 87 126h33q0 -112 -94 -212q-95 -100 -205 -100z" />
<glyph unicode="&#x12d;" horiz-adv-x="557" d="M316 780q0 22 -25 22q-43 0 -131 -95q-18 -20 -26 -27l-19 19q20 39 113 115q107 86 161 86q30 0 52.5 -23.5t22.5 -49.5t-3 -39l-147 -692v-4q0 -22 25 -22q40 0 141 106l16 16l19 -19q-20 -39 -113 -115q-107 -86 -161 -86q-30 0 -52.5 23.5t-22.5 49t3 39.5l147 692v4 zM408 1096q-56 0 -101 26t-77 70q-64 89 -64 216h31q0 -87 69 -141q65 -52 159 -52q76 0 162 67q87 67 87 126h33q0 -112 -94 -212q-95 -100 -205 -100z" />
<glyph unicode="&#x12e;" horiz-adv-x="667" d="M450 1275q0 95 -170 95q-6 0 -6 8l5 24q2 8 10 8h521q6 0 6 -8l-5 -24q-2 -8 -23.5 -8t-51 -4.5t-52.5 -19.5q-50 -31 -68 -119l-227 -1067q-4 -16 -4 -40t18 -42t46 -26q38 -12 122 -12q6 0 6 -8l-5 -24q-3 -8 -9 -8h-536q-7 0 -7 8l5 24q4 8 24.5 8t50 4.5t52.5 19.5 q50 31 68 119q43 202 75.5 355t57 266.5t41 191t27.5 128.5t17 79t8 43q4 21 4 29zM327 0q-162 -181 -162 -305q0 -66 29 -100q52 -60 129 -60q53 0 79.5 10.5t34.5 10.5t8 -12t-13.5 -29.5t-35.5 -30.5q-46 -30 -100 -30t-99 13t-79 39q-71 54 -71 152q0 88 76 192 q62 86 152 150h52z" />
<glyph unicode="&#x12f;" horiz-adv-x="557" d="M464 812l-149 -720q0 -22 24 -22q40 0 141 106l16 16l19 -19q-18 -36 -80 -87t-91 -70q-64 -43 -101.5 -43t-56.5 27.5t-19 47.5q0 28 5 49l144 679v4q0 22 -25 22q-43 0 -131 -95q-18 -20 -26 -27l-19 19q20 39 113 115q107 86 152 86t64.5 -27.5t19.5 -60.5z M407.5 1192.5q-3.5 13.5 -3.5 29.5t6.5 46t19.5 58q30 66 79 66q45 0 59 -50q4 -14 4 -30t-8 -45t-22 -57q-36 -66 -80 -66q-26 0 -38.5 17.5t-16 31zM316 0q-162 -181 -162 -305q0 -66 29 -100q52 -60 129 -60q53 0 79.5 10.5t34.5 10.5t8 -12t-13.5 -29.5t-35.5 -30.5 q-46 -30 -100 -30t-99 13t-79 39q-71 54 -71 152q0 88 76 192q62 86 152 150h52z" />
<glyph unicode="&#x130;" horiz-adv-x="667" d="M450 1275q0 95 -170 95q-6 0 -6 8l5 24q2 8 10 8h521q6 0 6 -8l-5 -24q-2 -8 -23.5 -8t-51 -4.5t-52.5 -19.5q-50 -31 -68 -119l-227 -1067q-4 -16 -4 -40t18 -42t46 -26q38 -12 122 -12q6 0 6 -8l-5 -24q-3 -8 -9 -8h-536q-7 0 -7 8l5 24q4 8 24.5 8t50 4.5t52.5 19.5 q50 31 68 119q43 202 75.5 355t57 266.5t41 191t27.5 128.5t17 79t8 43q4 21 4 29zM684.5 1692q-21.5 -9 -46 -9t-46 9t-37.5 25q-34 32 -34 69t9 58.5t25 37.5q35 35 71.5 35t58 -9.5t37.5 -25.5q33 -33 33 -70.5t-8.5 -58.5t-24.5 -36.5t-37.5 -24.5z" />
<glyph unicode="&#x131;" horiz-adv-x="557" d="M316 780q0 22 -25 22q-43 0 -131 -95q-18 -20 -26 -27l-19 19q20 39 113 115q107 86 161 86q30 0 52.5 -23.5t22.5 -49.5t-3 -39l-147 -692v-4q0 -22 25 -22q40 0 141 106l16 16l19 -19q-20 -39 -113 -115q-107 -86 -161 -86q-30 0 -52.5 23.5t-22.5 49t3 39.5l147 692v4 z" />
<glyph unicode="&#x132;" horiz-adv-x="1336" d="M450 1275q0 95 -170 95q-6 0 -6 8l5 24q2 8 10 8h521q6 0 6 -8l-5 -24q-2 -8 -23.5 -8t-51 -4.5t-52.5 -19.5q-50 -31 -68 -119l-227 -1067q-4 -16 -4 -40t18 -42t46 -26q38 -12 122 -12q6 0 6 -8l-5 -24q-3 -8 -9 -8h-536q-7 0 -7 8l5 24q4 8 24.5 8t50 4.5t52.5 19.5 q50 31 68 119q43 202 75.5 355t57 266.5t41 191t27.5 128.5t17 79t8 43q4 21 4 29zM233 -608q0 69 69 87q19 5 42.5 5t55 -7.5t62.5 -16.5q82 -25 116.5 -25t61.5 9.5t50.5 40t46 86t47.5 147.5t55 226t69.5 320t90 430t86 412.5t35.5 189t-12 36.5t-34 24q-35 14 -125 14 q-6 0 -6 8l5 24q2 8 10 8h521q6 0 6 -8l-5 -24q-2 -8 -23.5 -8t-51 -4.5t-53.5 -19.5q-49 -31 -67 -119q-62 -293 -106 -503t-75 -355.5t-50.5 -237.5t-31.5 -148.5t-19.5 -88.5t-18.5 -76.5t-34.5 -106.5t-58.5 -118.5t-82 -105t-109 -83.5q-133 -76 -300 -76t-167 64z" />
<glyph unicode="&#x133;" horiz-adv-x="1096" d="M464 812l-149 -720q0 -22 24 -22q40 0 141 106l16 16l19 -19q-18 -36 -80 -87t-91 -70q-64 -43 -101.5 -43t-56.5 27.5t-19 47.5q0 28 5 49l144 679v4q0 22 -25 22q-43 0 -131 -95q-18 -20 -26 -27l-19 19q20 39 113 115q107 86 152 86t64.5 -27.5t19.5 -60.5z M407.5 1192.5q-3.5 13.5 -3.5 29.5t6.5 46t19.5 58q30 66 79 66q45 0 59 -50q4 -14 4 -30t-8 -45t-22 -57q-36 -66 -80 -66q-26 0 -38.5 17.5t-16 31zM875 777q0 25 -25 25q-43 0 -130 -95q-19 -20 -27 -27l-19 19q20 39 114 115q106 86 160 86q33 0 49 -21q25 -35 25 -70 q0 -15 -68.5 -336t-95.5 -449t-46.5 -188t-49.5 -124t-69.5 -127t-89.5 -113q-111 -111 -241 -111q-56 0 -85 23q-47 37 -47 65q0 66 52 66q36 0 74.5 -29.5t60.5 -43t51 -13.5t55 22.5t47.5 59.5t39 84.5t31.5 97.5q42 150 44 176t20.5 111t45 210.5t46.5 218t33.5 155.5 t22 104t13.5 63.5l7 31.5t2 14zM966.5 1192.5q-3.5 13.5 -3.5 29.5t6.5 46t18.5 58q31 66 80 66q45 0 59 -50q4 -14 4 -30t-8 -45t-23 -57q-35 -66 -79 -66q-26 0 -38.5 17.5t-16 31z" />
<glyph unicode="&#x134;" horiz-adv-x="678" d="M-425 -608q0 69 69 87q19 5 42.5 5t55 -7.5t62.5 -16.5q82 -25 116.5 -25t61.5 9.5t50.5 40t46 86t47.5 147.5t55 226t69.5 320t90 430t86 412.5t35.5 189t-12 36.5t-34 24q-35 14 -125 14q-6 0 -6 8l5 24q2 8 10 8h521q6 0 6 -8l-5 -24q-2 -8 -23.5 -8t-51 -4.5 t-53.5 -19.5q-49 -31 -67 -119q-62 -293 -106 -503t-75 -355.5t-50.5 -237.5t-31.5 -148.5t-19.5 -88.5t-18.5 -76.5t-34.5 -106.5t-58.5 -118.5t-82 -105t-109 -83.5q-133 -76 -300 -76t-167 64zM422 1562h-50l280 386h106v-388h-50l-44 247z" />
<glyph unicode="&#x135;" horiz-adv-x="576" d="M287 1065h-50l280 386h106v-388h-50l-44 247zM355 780q0 22 -25 22q-43 0 -130 -95q-19 -20 -27 -27l-19 19q20 39 114 115q106 86 160 86q30 0 52.5 -23.5t22.5 -49.5t-3 -39l-180 -849q-37 -178 -148 -354q-84 -136 -200 -193q-60 -31 -110 -31t-74.5 9t-41.5 23 q-36 28 -36 56q0 66 52 66q36 0 74.5 -29.5t60.5 -43t45.5 -13.5t44 14t39.5 36q37 45 63 107q40 116 90 353l176 837v4z" />
<glyph unicode="&#x136;" horiz-adv-x="1556" d="M1496 40q9 0 9 -12v-18q0 -10 -13 -10h-343q-13 16 -48 58t-82 99t-102.5 123t-110 131.5t-104 125t-70 84t-28 33.5t-15.5 17q-19 19 -33.5 19t-36.5 -17.5t-32 -55.5l-98 -457q-4 -16 -4 -40t18 -42t46 -26q38 -12 122 -12q6 0 6 -8l-5 -24q-3 -8 -9 -8h-536q-7 0 -7 8 l5 24q4 8 24.5 8t50 4.5t52.5 19.5q49 32 67 119l232 1088q2 10 2 25t-19.5 31.5t-47.5 26.5q-47 16 -106 16q-6 0 -6 8l5 24q2 8 10 8h521q6 0 6 -8l-5 -24q-2 -8 -23.5 -8t-51 -4.5t-52.5 -19.5q-50 -31 -71 -130.5t-37.5 -176.5t-27 -126.5t-16.5 -76.5l-8 -40 q-5 -27 2 -27t27 13.5t45 30.5t47.5 33t41 29t34 25t53 39t83.5 60t96.5 69t96 68.5t82.5 58.5t54 38t27 20t16 17q11 16 11 48.5t-13 42t-44 9.5h-35q-18 0 -18 13v16q0 11 17 11h497q12 0 12 -11v-17q0 -12 -26.5 -12t-49 -4.5t-42.5 -12t-42 -17.5t-47.5 -20t-52 -24 t-64.5 -38q-66 -43 -145 -101.5t-105 -77.5t-62 -44.5t-77.5 -55.5t-81.5 -58.5t-74 -52.5t-53.5 -38.5t-19.5 -19.5q0 -11 10 -24q12 -15 49 -59t91.5 -110t112.5 -135q166 -199 201 -239.5t61 -72t57 -59.5q72 -67 134 -67h66zM817.5 -551q-31.5 -32 -71.5 -60.5 t-60 -28.5q-15 0 -15 27q0 16 21.5 30.5t32 24t29.5 28.5t34 41q37 52 37 95q0 29 -11.5 35t-33 6t-47.5 6.5t-46 20.5q-44 31 -44 96q0 47 27 71q46 42 88.5 42t72.5 -18t50 -47q40 -58 40 -119t-13 -102.5t-36 -78.5t-54.5 -69z" />
<glyph unicode="&#x137;" horiz-adv-x="1013" d="M378 596q0 -14 13 -14q6 0 61.5 45t101 81.5t93.5 72.5t92 65q98 66 134.5 66t58 -18.5t36.5 -45.5q30 -52 30 -105.5t-26.5 -103.5t-81.5 -91q-125 -92 -349 -92q-7 0 -13.5 -6t-6.5 -12t8 -17.5t30 -44t49 -69.5t58.5 -75t63.5 -68q73 -70 124 -70q30 0 56 30.5 t37.5 44.5t24 14t12.5 -16q0 -6 -73 -81.5t-84.5 -83t-22.5 -7.5q-54 0 -111 43.5t-87.5 78.5t-55.5 73t-49 77q-60 97 -109 145l-18 18q-11 11 -16 11q-15 0 -19 -19l-86 -411q-12 -5 -25.5 -12t-27.5 -13q-35 -15 -55 -15q-28 0 -28 33q0 39 9 81l292 1372q4 10 4 26 q0 25 -22 25q-23 0 -61.5 -20.5t-54.5 -26.5l-13 31q44 25 87 47t59 30.5t40 22t47 25.5q52 28 65 28q23 0 23 -32q0 -10 -6 -31l-205 -968q-3 -12 -3 -18zM351 477q43 -3 90 -3q151 0 210.5 20.5t99.5 45.5t69 56q61 65 61 136q0 61 -37 88q-12 8 -35 8q-72 0 -241 -135 q-35 -28 -83.5 -68t-123.5 -101zM535.5 -551q-31.5 -32 -71.5 -60.5t-60 -28.5q-15 0 -15 27q0 16 21.5 30.5t32 24t29.5 28.5t34 41q37 52 37 95q0 29 -11.5 35t-33 6t-47.5 6.5t-46 20.5q-44 31 -44 96q0 47 27 71q46 42 88.5 42t72.5 -18t50 -47q40 -58 40 -119 t-13 -102.5t-36 -78.5t-54.5 -69z" />
<glyph unicode="&#x138;" horiz-adv-x="975" d="M595 0q-10 0 -10 14.5t18 20t39.5 11.5t39.5 14.5t18 23.5q0 26 -30 66l-218 297q-24 32 -56 32q-19 0 -29 -49l-59 -278q-4 -18 -4 -40.5t15.5 -38.5t36 -24t40.5 -11q38 -5 38 -21q-1 -6 -1.5 -10.5t-11.5 -6.5h-432q-8 1 -8 12.5t14 17t39 9t51 13.5q66 27 81 100 l123 578q2 10 2 21.5t-12 23t-29.5 18.5t-38 12t-32.5 9t-13.5 8t-1.5 12q0 12 19 22l267 114q12 6 16 6q13 0 13 -14l-72 -348q0 -30 40 -30q50 0 185 97q79 57 107.5 90t28.5 47.5t-17 18t-38 6t-38 8t-17 27.5t46 22h341q30 0 30 -23q0 -12 -18 -18.5t-47 -14.5 q-83 -21 -130 -53l-343 -228q3 -3 16 -21.5t34 -47t58.5 -79.5t93.5 -127t137 -186q30 -42 87 -60q20 -7 33.5 -11t13.5 -13q0 -18 -24 -18h-391z" />
<glyph unicode="&#x139;" horiz-adv-x="1286" d="M20 12q0 28 28.5 28t56.5 4.5t50 19.5q45 30 63 119q57 268 96 453t64.5 305t39.5 186t20 97q9 42 9 60t-19.5 37t-48.5 30q-50 19 -125 19q-6 0 -6 8l5 24q2 8 10 8h587q6 0 6 -8l-5 -24q-2 -8 -23.5 -8t-57.5 -4.5t-66 -19.5q-69 -34 -87 -119q-40 -187 -70 -329.5 t-52.5 -249t-38 -181t-25.5 -123.5t-15.5 -77.5t-7.5 -43.5q-4 -21 -4 -29q0 -133 186 -133q276 0 376 39q70 27 116.5 71t70 68.5t34.5 38t22 24.5q26 28 46.5 28t20.5 -19q0 -12 -25 -69t-42 -110t-28 -82t-24 -39.5t-41 -10.5h-1085q-11 0 -11 12zM567 1594q-4 4 -4 6 t4 6l213 295q36 49 71 49t55.5 -22.5t20.5 -52.5q0 -46 -55 -93l-269 -217q-5 -3 -8 -3t-6 3z" />
<glyph unicode="&#x13a;" horiz-adv-x="559" d="M278 93q0 -22 25 -22q40 0 141 106l16 16l19 -19q-20 -39 -113 -115q-107 -86 -161 -86q-30 0 -52.5 23.5t-22.5 49t3 39.5l294 1372q4 16 4 26q0 25 -22 25q-19 0 -50.5 -15t-67.5 -32l-13 31q282 153 301.5 153t19.5 -23.5t-31.5 -168t-76 -353.5t-78 -364t-56.5 -263 t-38 -179t-23.5 -110.5t-12 -58.5t-5.5 -28v-4zM365 1712q0 4 4 8l282 230q37 30 69 30t50.5 -23t18.5 -46t-7.5 -38t-19.5 -27q-19 -20 -53 -35l-316 -140q-1 -1 -6 -1t-7 5z" />
<glyph unicode="&#x13b;" horiz-adv-x="1286" d="M20 12q0 28 28.5 28t56.5 4.5t50 19.5q45 30 63 119q57 268 96 453t64.5 305t39.5 186t20 97q9 42 9 60t-19.5 37t-48.5 30q-50 19 -125 19q-6 0 -6 8l5 24q2 8 10 8h587q6 0 6 -8l-5 -24q-2 -8 -23.5 -8t-57.5 -4.5t-66 -19.5q-69 -34 -87 -119q-40 -187 -70 -329.5 t-52.5 -249t-38 -181t-25.5 -123.5t-15.5 -77.5t-7.5 -43.5q-4 -21 -4 -29q0 -133 186 -133q276 0 376 39q70 27 116.5 71t70 68.5t34.5 38t22 24.5q26 28 46.5 28t20.5 -19q0 -12 -25 -69t-42 -110t-28 -82t-24 -39.5t-41 -10.5h-1085q-11 0 -11 12zM690.5 -551 q-31.5 -32 -71.5 -60.5t-60 -28.5q-15 0 -15 27q0 16 21.5 30.5t32 24t29.5 28.5t34 41q37 52 37 95q0 29 -11.5 35t-33 6t-47.5 6.5t-46 20.5q-44 31 -44 96q0 47 27 71q46 42 88.5 42t72.5 -18t50 -47q40 -58 40 -119t-13 -102.5t-36 -78.5t-54.5 -69z" />
<glyph unicode="&#x13c;" horiz-adv-x="559" d="M278 93q0 -22 25 -22q40 0 141 106l16 16l19 -19q-20 -39 -113 -115q-107 -86 -161 -86q-30 0 -52.5 23.5t-22.5 49t3 39.5l294 1372q4 16 4 26q0 25 -22 25q-19 0 -50.5 -15t-67.5 -32l-13 31q282 153 301.5 153t19.5 -23.5t-31.5 -168t-76 -353.5t-78 -364t-56.5 -263 t-38 -179t-23.5 -110.5t-12 -58.5t-5.5 -28v-4zM315.5 -551q-31.5 -32 -71.5 -60.5t-60 -28.5q-15 0 -15 27q0 16 21.5 30.5t32 24t29.5 28.5t34 41q37 52 37 95q0 29 -11.5 35t-33 6t-47.5 6.5t-46 20.5q-44 31 -44 96q0 47 27 71q46 42 88.5 42t72.5 -18t50 -47 q40 -58 40 -119t-13 -102.5t-36 -78.5t-54.5 -69z" />
<glyph unicode="&#x13d;" horiz-adv-x="1286" d="M20 12q0 28 28.5 28t56.5 4.5t50 19.5q45 30 63 119q57 268 96 453t64.5 305t39.5 186t20 97q9 42 9 60t-19.5 37t-48.5 30q-50 19 -125 19q-6 0 -6 8l5 24q2 8 10 8h587q6 0 6 -8l-5 -24q-2 -8 -23.5 -8t-57.5 -4.5t-66 -19.5q-69 -34 -87 -119q-40 -187 -70 -329.5 t-52.5 -249t-38 -181t-25.5 -123.5t-15.5 -77.5t-7.5 -43.5q-4 -21 -4 -29q0 -133 186 -133q276 0 376 39q70 27 116.5 71t70 68.5t34.5 38t22 24.5q26 28 46.5 28t20.5 -19q0 -12 -25 -69t-42 -110t-28 -82t-24 -39.5t-41 -10.5h-1085q-11 0 -11 12zM927 870q-27 0 -27 32 q0 15 28 32.5t62 41t61 52.5q61 67 61 149q0 36 -20 75q-39 72 -39 107q0 20 13 44q29 49 60 49t51.5 -11.5t36.5 -30.5q34 -39 34 -100t-23.5 -128.5t-64.5 -125.5q-82 -113 -223 -183q-6 -3 -10 -3z" />
<glyph unicode="&#x13e;" horiz-adv-x="747" d="M278 93q0 -22 25 -22q40 0 141 106l16 16l19 -19q-20 -39 -113 -115q-107 -86 -161 -86q-30 0 -52.5 23.5t-22.5 49t3 39.5l294 1372q4 16 4 26q0 25 -22 25q-19 0 -50.5 -15t-67.5 -32l-13 31q282 153 301.5 153t19.5 -23.5t-31.5 -168t-76 -353.5t-78 -364t-56.5 -263 t-38 -179t-23.5 -110.5t-12 -58.5t-5.5 -28v-4zM692 1103q-27 0 -27 32q0 15 28 32.5t62 41t61 52.5q61 67 61 149q0 36 -20 75q-39 72 -39 107q0 20 13 44q29 49 60 49t51.5 -11.5t36.5 -30.5q34 -39 34 -100t-23.5 -128.5t-64.5 -125.5q-82 -113 -223 -183q-6 -3 -10 -3z " />
<glyph unicode="&#x13f;" horiz-adv-x="1286" d="M20 12q0 28 28.5 28t56.5 4.5t50 19.5q45 30 63 119q57 268 96 453t64.5 305t39.5 186t20 97q9 42 9 60t-19.5 37t-48.5 30q-50 19 -125 19q-6 0 -6 8l5 24q2 8 10 8h587q6 0 6 -8l-5 -24q-2 -8 -23.5 -8t-57.5 -4.5t-66 -19.5q-69 -34 -87 -119q-40 -187 -70 -329.5 t-52.5 -249t-38 -181t-25.5 -123.5t-15.5 -77.5t-7.5 -43.5q-4 -21 -4 -29q0 -133 186 -133q276 0 376 39q70 27 116.5 71t70 68.5t34.5 38t22 24.5q26 28 46.5 28t20.5 -19q0 -12 -25 -69t-42 -110t-28 -82t-24 -39.5t-41 -10.5h-1085q-11 0 -11 12zM958.5 552 q-21.5 -9 -46 -9t-46 9t-37.5 25q-34 32 -34 69t9 58.5t25 37.5q35 35 71.5 35t58 -9.5t37.5 -25.5q33 -33 33 -70.5t-8.5 -58.5t-24.5 -36.5t-37.5 -24.5z" />
<glyph unicode="&#x140;" horiz-adv-x="783" d="M278 93q0 -22 25 -22q40 0 141 106l16 16l19 -19q-20 -39 -113 -115q-107 -86 -161 -86q-30 0 -52.5 23.5t-22.5 49t3 39.5l294 1372q4 16 4 26q0 25 -22 25q-19 0 -50.5 -15t-67.5 -32l-13 31q282 153 301.5 153t19.5 -23.5t-31.5 -168t-76 -353.5t-78 -364t-56.5 -263 t-38 -179t-23.5 -110.5t-12 -58.5t-5.5 -28v-4zM743.5 572q-21.5 -9 -46 -9t-46 9t-37.5 25q-34 32 -34 69t9 58.5t25 37.5q35 35 71.5 35t58 -9.5t37.5 -25.5q33 -33 33 -70.5t-8.5 -58.5t-24.5 -36.5t-37.5 -24.5z" />
<glyph unicode="&#x141;" horiz-adv-x="1286" d="M20 12q0 28 31 28t58.5 4.5t48.5 19.5q41 30 60 119l81 384l-171 -130l27 124l170 128q30 143 51 240.5t34.5 161t21 99t11.5 52.5q5 22 5 42.5t-20 39t-49 28.5q-48 18 -125 18q-6 0 -6 8l5 24q2 8 10 8h587q6 0 6 -8l-5 -24q-2 -8 -23.5 -8t-57.5 -4.5t-66 -19.5 q-69 -34 -87 -119l-80 -379l342 258l-25 -118l-343 -260l-100 -474q-7 -31 -7 -60q0 -133 186 -133q276 0 376 39q70 27 116.5 71t70 68.5t34.5 38t22 24.5q26 28 46.5 28t20.5 -19q0 -12 -25 -69t-42 -110t-28 -82t-24 -39.5t-41 -10.5h-1085q-11 0 -11 12z" />
<glyph unicode="&#x142;" horiz-adv-x="547" d="M266 1492q282 153 301.5 153t19.5 -23.5t-4 -39.5l-158 -735l212 160l49 -64l-287 -216q-60 -280 -83.5 -392.5t-32 -151.5t-12 -58t-5.5 -28v-4q0 -22 25 -22q40 0 141 106l16 16l19 -19q-20 -39 -113 -115q-107 -86 -161 -86q-30 0 -52.5 23.5t-22.5 49t3 39.5l110 515 l-137 -103l-49 64l212 160l158 736q4 16 4 26q0 25 -22 25q-19 0 -50.5 -15t-67.5 -32z" />
<glyph unicode="&#x143;" horiz-adv-x="1716" d="M1432.5 260q-14.5 -68 -22 -105.5t-14 -73t-10 -47t-9 -22.5t-21 -11t-29 12t-27 30t-26 38.5t-92 137t-186 273t-181 265t-121.5 177t-75 110t-42 62t-23 34.5q-34 47 -44 47q-15 0 -24 -46q-38 -187 -78 -368t-65.5 -303.5t-25.5 -177t8 -98.5t26 -78q40 -76 118 -76 q34 0 43.5 -3t9.5 -14v-9q0 -14 -22 -14h-451q-16 0 -24 3t-8 17.5t6 20.5t15 10t19.5 6.5t26.5 8.5t39 23.5t43 40.5q43 50 55 101l211 994q2 12 6 26.5t4 32.5t-18.5 35.5t-45.5 28.5q-50 22 -90.5 22t-51.5 2.5t-11 16.5t9 17.5t30 3.5h251q57 0 74 -10q21 -11 51 -56 l693 -1018q6 -9 13.5 -20.5t14 -11.5t9.5 13.5t8.5 33.5t10 44.5t12 64.5t23.5 114t34 159q42 190 63.5 291.5t32.5 148t11 81.5q0 68 -51 108q-23 18 -118 18q-14 0 -18.5 8t-4.5 15q0 17 29 17h441q23 0 23 -20t-23 -20h-40q-80 0 -133 -70q-25 -32 -44.5 -129t-31.5 -153 t-27.5 -129.5t-32.5 -154.5t-35 -165t-35 -162.5t-31.5 -146.5zM1092 1594q-4 4 -4 6t4 6l213 295q36 49 71 49t55.5 -22.5t20.5 -52.5q0 -46 -55 -93l-269 -217q-5 -3 -8 -3t-6 3z" />
<glyph unicode="&#x144;" horiz-adv-x="996" d="M424 900q36 0 36 -67q0 -30 -3.5 -46t-9 -43t-16.5 -80.5t-31 -152.5q0 -11 8.5 -11t16 8.5t23.5 26.5t49.5 56.5t72 80t80 82.5t82.5 74q93 72 154 72q30 0 52.5 -23.5t22.5 -49.5t-3 -39l-178 -692v-4q0 -22 25 -22q40 0 141 106l16 16l19 -19q-20 -39 -113 -115 q-107 -86 -161 -86q-30 0 -52.5 23.5t-22.5 49t3 39.5l178 692v4q0 9 -8.5 15.5t-22 6t-45 -24t-69.5 -60.5t-79.5 -82t-79.5 -89q-104 -120 -121.5 -146.5t-23.5 -55.5l-72 -333q-69 -40 -106 -40t-37 29q0 13 5 34q9 40 11 51l134 634v4q0 28 -23 28q-15 0 -50 -35.5 t-92 -93.5l-24 25q22 45 160 161q110 92 154 92zM592 1096q-4 4 -4 6t4 6l213 295q36 49 71 49t55.5 -22.5t20.5 -52.5q0 -46 -55 -93l-269 -217q-5 -3 -8 -3t-6 3z" />
<glyph unicode="&#x145;" horiz-adv-x="1716" d="M1432.5 260q-14.5 -68 -22 -105.5t-14 -73t-10 -47t-9 -22.5t-21 -11t-29 12t-27 30t-26 38.5t-92 137t-186 273t-181 265t-121.5 177t-75 110t-42 62t-23 34.5q-34 47 -44 47q-15 0 -24 -46q-38 -187 -78 -368t-65.5 -303.5t-25.5 -177t8 -98.5t26 -78q40 -76 118 -76 q34 0 43.5 -3t9.5 -14v-9q0 -14 -22 -14h-451q-16 0 -24 3t-8 17.5t6 20.5t15 10t19.5 6.5t26.5 8.5t39 23.5t43 40.5q43 50 55 101l211 994q2 12 6 26.5t4 32.5t-18.5 35.5t-45.5 28.5q-50 22 -90.5 22t-51.5 2.5t-11 16.5t9 17.5t30 3.5h251q57 0 74 -10q21 -11 51 -56 l693 -1018q6 -9 13.5 -20.5t14 -11.5t9.5 13.5t8.5 33.5t10 44.5t12 64.5t23.5 114t34 159q42 190 63.5 291.5t32.5 148t11 81.5q0 68 -51 108q-23 18 -118 18q-14 0 -18.5 8t-4.5 15q0 17 29 17h441q23 0 23 -20t-23 -20h-40q-80 0 -133 -70q-25 -32 -44.5 -129t-31.5 -153 t-27.5 -129.5t-32.5 -154.5t-35 -165t-35 -162.5t-31.5 -146.5zM920.5 -551q-31.5 -32 -71.5 -60.5t-60 -28.5q-15 0 -15 27q0 16 21.5 30.5t32 24t29.5 28.5t34 41q37 52 37 95q0 29 -11.5 35t-33 6t-47.5 6.5t-46 20.5q-44 31 -44 96q0 47 27 71q46 42 88.5 42t72.5 -18 t50 -47q40 -58 40 -119t-13 -102.5t-36 -78.5t-54.5 -69z" />
<glyph unicode="&#x146;" horiz-adv-x="996" d="M424 900q36 0 36 -67q0 -30 -3.5 -46t-9 -43t-16.5 -80.5t-31 -152.5q0 -11 8.5 -11t16 8.5t23.5 26.5t49.5 56.5t72 80t80 82.5t82.5 74q93 72 154 72q30 0 52.5 -23.5t22.5 -49.5t-3 -39l-178 -692v-4q0 -22 25 -22q40 0 141 106l16 16l19 -19q-20 -39 -113 -115 q-107 -86 -161 -86q-30 0 -52.5 23.5t-22.5 49t3 39.5l178 692v4q0 9 -8.5 15.5t-22 6t-45 -24t-69.5 -60.5t-79.5 -82t-79.5 -89q-104 -120 -121.5 -146.5t-23.5 -55.5l-72 -333q-69 -40 -106 -40t-37 29q0 13 5 34q9 40 11 51l134 634v4q0 28 -23 28q-15 0 -50 -35.5 t-92 -93.5l-24 25q22 45 160 161q110 92 154 92zM525.5 -551q-31.5 -32 -71.5 -60.5t-60 -28.5q-15 0 -15 27q0 16 21.5 30.5t32 24t29.5 28.5t34 41q37 52 37 95q0 29 -11.5 35t-33 6t-47.5 6.5t-46 20.5q-44 31 -44 96q0 47 27 71q46 42 88.5 42t72.5 -18t50 -47 q40 -58 40 -119t-13 -102.5t-36 -78.5t-54.5 -69z" />
<glyph unicode="&#x147;" horiz-adv-x="1716" d="M1432.5 260q-14.5 -68 -22 -105.5t-14 -73t-10 -47t-9 -22.5t-21 -11t-29 12t-27 30t-26 38.5t-92 137t-186 273t-181 265t-121.5 177t-75 110t-42 62t-23 34.5q-34 47 -44 47q-15 0 -24 -46q-38 -187 -78 -368t-65.5 -303.5t-25.5 -177t8 -98.5t26 -78q40 -76 118 -76 q34 0 43.5 -3t9.5 -14v-9q0 -14 -22 -14h-451q-16 0 -24 3t-8 17.5t6 20.5t15 10t19.5 6.5t26.5 8.5t39 23.5t43 40.5q43 50 55 101l211 994q2 12 6 26.5t4 32.5t-18.5 35.5t-45.5 28.5q-50 22 -90.5 22t-51.5 2.5t-11 16.5t9 17.5t30 3.5h251q57 0 74 -10q21 -11 51 -56 l693 -1018q6 -9 13.5 -20.5t14 -11.5t9.5 13.5t8.5 33.5t10 44.5t12 64.5t23.5 114t34 159q42 190 63.5 291.5t32.5 148t11 81.5q0 68 -51 108q-23 18 -118 18q-14 0 -18.5 8t-4.5 15q0 17 29 17h441q23 0 23 -20t-23 -20h-40q-80 0 -133 -70q-25 -32 -44.5 -129t-31.5 -153 t-27.5 -129.5t-32.5 -154.5t-35 -165t-35 -162.5t-31.5 -146.5zM1411 1946h50l-280 -386h-106v388h50l44 -247z" />
<glyph unicode="&#x148;" horiz-adv-x="996" d="M424 900q36 0 36 -67q0 -30 -3.5 -46t-9 -43t-16.5 -80.5t-31 -152.5q0 -11 8.5 -11t16 8.5t23.5 26.5t49.5 56.5t72 80t80 82.5t82.5 74q93 72 154 72q30 0 52.5 -23.5t22.5 -49.5t-3 -39l-178 -692v-4q0 -22 25 -22q40 0 141 106l16 16l19 -19q-20 -39 -113 -115 q-107 -86 -161 -86q-30 0 -52.5 23.5t-22.5 49t3 39.5l178 692v4q0 9 -8.5 15.5t-22 6t-45 -24t-69.5 -60.5t-79.5 -82t-79.5 -89q-104 -120 -121.5 -146.5t-23.5 -55.5l-72 -333q-69 -40 -106 -40t-37 29q0 13 5 34q9 40 11 51l134 634v4q0 28 -23 28q-15 0 -50 -35.5 t-92 -93.5l-24 25q22 45 160 161q110 92 154 92zM921 1449h50l-280 -386h-106v388h50l44 -247z" />
<glyph unicode="&#x149;" horiz-adv-x="996" d="M424 900q36 0 36 -67q0 -30 -3.5 -46t-9 -43t-16.5 -80.5t-31 -152.5q0 -11 8.5 -11t16 8.5t23.5 26.5t49.5 56.5t72 80t80 82.5t82.5 74q93 72 154 72q30 0 52.5 -23.5t22.5 -49.5t-3 -39l-178 -692v-4q0 -22 25 -22q40 0 141 106l16 16l19 -19q-20 -39 -113 -115 q-107 -86 -161 -86q-30 0 -52.5 23.5t-22.5 49t3 39.5l178 692v4q0 9 -8.5 15.5t-22 6t-45 -24t-69.5 -60.5t-79.5 -82t-79.5 -89q-104 -120 -121.5 -146.5t-23.5 -55.5l-72 -333q-69 -40 -106 -40t-37 29q0 13 5 34q9 40 11 51l134 634v4q0 28 -23 28q-15 0 -50 -35.5 t-92 -93.5l-24 25q22 45 160 161q110 92 154 92zM63 870q-27 0 -27 32q0 15 28 32.5t62 41t61 52.5q61 67 61 149q0 36 -20 75q-39 72 -39 107q0 20 13 44q29 49 60 49t51.5 -11.5t36.5 -30.5q34 -39 34 -100t-23.5 -128.5t-64.5 -125.5q-82 -113 -223 -183q-6 -3 -10 -3z " />
<glyph unicode="&#x14a;" horiz-adv-x="1716" d="M943 -626q-86 -16 -217.5 -16t-131.5 64q0 69 69 87q19 5 42.5 5t55 -7.5t63.5 -16.5q81 -25 125 -25t86 8.5t75 31t59 62t49 101.5q39 107 94 360q-17 19 -32.5 44.5t-96 144t-187 275t-181 265t-121.5 177t-75 110t-42 62t-23 34.5q-34 47 -44 47q-15 0 -24 -46 q-38 -187 -78 -368t-65.5 -303.5t-25.5 -177t8 -98.5t26 -78q40 -76 118 -76q34 0 43.5 -3t9.5 -14v-9q0 -14 -22 -14h-451q-16 0 -24 3t-8 17.5t6 20.5t15 10t19.5 6.5t26.5 8.5t39 23.5t43 40.5q43 50 55 101l211 994q2 12 6 26.5t4 32.5t-18.5 35.5t-45.5 28.5 q-50 22 -90.5 22t-51.5 2.5t-11 16.5t9 17.5t30 3.5h251q57 0 74 -10q21 -11 51 -56l693 -1018q6 -9 13.5 -20.5t14 -11.5t9.5 13.5t8.5 33.5t10 44.5t12 64.5t23.5 114t34 159q42 190 63.5 291.5t32.5 148t11 81.5q0 68 -51 108q-23 18 -118 18q-14 0 -18.5 8t-4.5 15 q0 17 29 17h441q23 0 23 -20t-23 -20h-40q-80 0 -133 -70q-25 -32 -44.5 -129t-32 -154.5t-28.5 -133.5t-34.5 -161.5t-38 -177.5t-38.5 -181.5t-36 -172.5q-31 -151 -32.5 -155.5t-2 -8.5t-3.5 -12.5t-15 -69.5t-35.5 -152t-55.5 -162t-75.5 -122.5t-106.5 -84.5t-149 -49z " />
<glyph unicode="&#x14b;" horiz-adv-x="976" d="M424 900q36 0 36 -71q0 -30 -7 -62l-53 -256q0 -11 8.5 -11t16 8.5t23.5 26.5t49.5 56.5t72 80t80 82.5t82.5 74q93 72 154 72q30 0 52.5 -23.5t22.5 -49.5t-3 -39l-181 -849q-45 -211 -153 -373q-82 -124 -198 -178q-59 -27 -109 -27t-74.5 9t-42.5 23q-35 28 -35 56 q0 66 52 66q36 0 74.5 -29.5t60.5 -43t45.5 -13.5t44.5 13.5t40 35.5q73 89 114 282q19 89 38 179l175 838l4 3q0 9 -8.5 15.5t-22.5 6t-45 -24t-69 -60.5t-79.5 -82t-79.5 -89q-104 -120 -121.5 -146.5t-23.5 -55.5l-72 -333q-69 -40 -106 -40t-37 29q0 13 5 34q9 40 11 51 l134 634v4q0 28 -23 28q-15 0 -50 -35.5t-92 -93.5l-24 25q22 45 160 161q110 92 154 92z" />
<glyph unicode="&#x14c;" horiz-adv-x="1632" d="M1041 30q-108 -30 -215 -30t-196 23.5t-166 65.5t-139.5 101.5t-106.5 131.5q-93 151 -93 329q0 212 109 399q106 181 286 290q184 112 381.5 112t336 -48t230.5 -132q184 -166 184 -436q0 -226 -112 -422q-169 -292 -499 -384zM808 41q109 0 198.5 36.5t162 100 t127.5 148t92 180.5q76 192 76 396q0 228 -124 366q-134 151 -383 151q-297 0 -473 -252q-160 -229 -160 -542q0 -254 130 -415q135 -169 354 -169zM742 1849h627l-27 -99h-627z" />
<glyph unicode="&#x14d;" horiz-adv-x="953" d="M741 900q59 0 113 -104q57 -108 57 -216.5t-25 -183t-67.5 -138.5t-100.5 -116.5t-124 -89.5q-137 -79 -273 -79q-54 0 -110 105q-56 107 -56 199t24.5 172.5t67 149t99.5 124.5t122 95q137 82 273 82zM314.5 407.5q-9.5 -62.5 -9.5 -106.5t8 -85.5t26 -79.5 q43 -89 118 -89q136 0 225 174q79 155 79 339q0 123 -55 210q-36 56 -86 56t-92.5 -24t-77 -64.5t-62 -94.5t-46 -113.5t-28 -122zM372 1307h627l-27 -99h-627z" />
<glyph unicode="&#x14e;" horiz-adv-x="1632" d="M1041 30q-108 -30 -215 -30t-196 23.5t-166 65.5t-139.5 101.5t-106.5 131.5q-93 151 -93 329q0 212 109 399q106 181 286 290q184 112 381.5 112t336 -48t230.5 -132q184 -166 184 -436q0 -226 -112 -422q-169 -292 -499 -384zM808 41q109 0 198.5 36.5t162 100 t127.5 148t92 180.5q76 192 76 396q0 228 -124 366q-134 151 -383 151q-297 0 -473 -252q-160 -229 -160 -542q0 -254 130 -415q135 -169 354 -169zM1092 1638q-56 0 -101 26t-77 70q-64 89 -64 216h31q0 -87 69 -141q65 -52 159 -52q76 0 162 67q87 67 87 126h33 q0 -112 -94 -212q-95 -100 -205 -100z" />
<glyph unicode="&#x14f;" horiz-adv-x="953" d="M741 900q59 0 113 -104q57 -108 57 -216.5t-25 -183t-67.5 -138.5t-100.5 -116.5t-124 -89.5q-137 -79 -273 -79q-54 0 -110 105q-56 107 -56 199t24.5 172.5t67 149t99.5 124.5t122 95q137 82 273 82zM314.5 407.5q-9.5 -62.5 -9.5 -106.5t8 -85.5t26 -79.5 q43 -89 118 -89q136 0 225 174q79 155 79 339q0 123 -55 210q-36 56 -86 56t-92.5 -24t-77 -64.5t-62 -94.5t-46 -113.5t-28 -122zM702 1096q-56 0 -101 26t-77 70q-64 89 -64 216h31q0 -87 69 -141q65 -52 159 -52q76 0 162 67q87 67 87 126h33q0 -112 -94 -212 q-95 -100 -205 -100z" />
<glyph unicode="&#x150;" horiz-adv-x="1632" d="M1041 30q-108 -30 -215 -30t-196 23.5t-166 65.5t-139.5 101.5t-106.5 131.5q-93 151 -93 329q0 212 109 399q106 181 286 290q184 112 381.5 112t336 -48t230.5 -132q184 -166 184 -436q0 -226 -112 -422q-169 -292 -499 -384zM808 41q109 0 198.5 36.5t162 100 t127.5 148t92 180.5q76 192 76 396q0 228 -124 366q-134 151 -383 151q-297 0 -473 -252q-160 -229 -160 -542q0 -254 130 -415q135 -169 354 -169zM889 1594q-4 4 -4 6t4 6l213 295q36 49 71 49t55.5 -22.5t20.5 -52.5q0 -46 -55 -93l-269 -217q-5 -3 -8 -3t-6 3z M1159 1594q-4 4 -4 6t4 6l213 295q36 49 71 49t55.5 -22.5t20.5 -52.5q0 -46 -55 -93l-269 -217q-5 -3 -8 -3t-6 3z" />
<glyph unicode="&#x151;" horiz-adv-x="953" d="M741 900q59 0 113 -104q57 -108 57 -216.5t-25 -183t-67.5 -138.5t-100.5 -116.5t-124 -89.5q-137 -79 -273 -79q-54 0 -110 105q-56 107 -56 199t24.5 172.5t67 149t99.5 124.5t122 95q137 82 273 82zM314.5 407.5q-9.5 -62.5 -9.5 -106.5t8 -85.5t26 -79.5 q43 -89 118 -89q136 0 225 174q79 155 79 339q0 123 -55 210q-36 56 -86 56t-92.5 -24t-77 -64.5t-62 -94.5t-46 -113.5t-28 -122zM479 1096q-4 4 -4 6t4 6l213 295q36 49 71 49t55.5 -22.5t20.5 -52.5q0 -46 -55 -93l-269 -217q-5 -3 -8 -3t-6 3zM749 1096q-4 4 -4 6t4 6 l213 295q36 49 71 49t55.5 -22.5t20.5 -52.5q0 -46 -55 -93l-269 -217q-5 -3 -8 -3t-6 3z" />
<glyph unicode="&#x152;" horiz-adv-x="2108" d="M2005 311q0 -12 -25 -69t-42 -110t-28 -82t-24 -39.5t-41 -10.5h-1043q-36 -3 -102 -3t-155 23.5t-166 65.5t-139.5 101.5t-107.5 132.5q-92 150 -92 328q0 212 109 399q106 181 285 290q185 112 395 112q161 0 294 -39h915q23 0 36.5 -4.5t13.5 -16t-0.5 -17.5t-4.5 -31 q-4 -27 -33 -238q-2 -14 -16 -14q-28 0 -32 23q-3 15 -3 34.5t-3.5 45t-17.5 58t-37 55.5q-50 50 -127 50h-367q-55 0 -65 -8q-13 -10 -23 -57l-105 -500q-2 -8 -2 -12q0 -25 42 -25h367q65 0 127 47q47 37 79 96q7 13 17 13h17q9 0 9 -7t-0.5 -7t-0.5 -2l-80 -373 q-4 -21 -20 -21q-11 0 -14.5 3.5t-5.5 16.5t-2.5 30t-6.5 41.5t-19.5 42.5t-32.5 28q-34 17 -98 17h-361q-8 0 -23 -7t-21 -26t-9.5 -37.5t-15.5 -70.5t-27 -128t-26 -125q-15 -68 -15 -109.5t16.5 -64t45.5 -33.5q70 -26 306 -12q130 8 183 29t84 42q42 30 90 79t59 62.5 t22 24.5q26 28 46.5 28t20.5 -19zM727 38q103 0 138 18q61 34 82 127l225 1053q4 22 2.5 44t-14.5 40t-32 32q-29 22 -82 41q-80 23 -179 23t-187 -32t-158 -88t-123 -132t-89 -164q-71 -179 -71 -378q0 -254 130 -416q135 -168 358 -168z" />
<glyph unicode="&#x153;" horiz-adv-x="1343" d="M886 -27q-162 0 -209 187q-138 -134 -307 -174q-55 -13 -95.5 -13t-70 30t-53.5 75q-56 107 -56 199t24.5 172.5t67 149t99.5 124.5t122 95q137 82 273 82q40 0 83 -56q42 -55 67 -145q155 201 366 201q68 0 103 -28q63 -51 63 -113.5t-26.5 -107.5t-69.5 -78t-98 -57 t-111.5 -42t-111 -32.5t-95.5 -29.5q-32 -75 -32 -153q0 -140 95 -188q34 -17 82 -17q95 0 232 84l14 -25q-105 -81 -238 -122q-58 -18 -118 -18zM254.5 407.5q-9.5 -62.5 -9.5 -106.5t8 -85.5t26 -79.5q43 -89 118 -89q136 0 225 174q79 155 79 339q0 123 -55 210 q-36 56 -86 56t-92.5 -24t-77 -64.5t-62 -94.5t-46 -113.5t-28 -122zM865 472q0 -17 27 -17q151 44 216 89.5t98.5 95.5t33.5 120q0 71 -44 93q-15 8 -47.5 8t-69.5 -19.5t-67 -52t-54 -73.5t-42 -84q-30 -72 -51 -160z" />
<glyph unicode="&#x154;" horiz-adv-x="1507" d="M635 641l-131 -6q-14 0 -17 -14l-98 -461q-4 -16 -4 -40.5t18 -42t46 -25.5q38 -12 122 -12q6 0 6 -8l-5 -24q-3 -8 -9 -8h-536q-7 0 -7 8l5 24q4 8 24.5 8t50 4.5t52.5 19.5q49 31 67 119q3 16 6 30l7 35q5 21 12 53t17.5 82t26 122.5t37.5 176t51 241.5q73 339 73 358 q0 49 -41 63.5t-126 14.5h-52q-6 0 -6 9l6 26q5 15 13 15h497q264 0 386 -81q130 -85 130 -273q0 -113 -97 -202q-73 -67 -270 -171q-28 -14 -28 -28t11 -32.5t32 -52t49 -76t62.5 -91t73 -96.5t79.5 -92t82 -78q91 -74 158 -74h26q40 0 46 -9t6 -17v-16q0 -20 -31 -20h-75 q-269 0 -468 264q-59 79 -98.5 142t-65 100t-44.5 67.5t-23 38.5t-10 14q-13 15 -36 15zM778 1362l-50 1q-59 0 -75 -17.5t-19 -33.5l-122 -575q-4 -16 -4 -33.5t51.5 -17.5t114.5 13t120.5 37.5t107.5 60t86 79.5q79 95 79 206q0 131 -79 206q-77 74 -210 74zM801 1594 q-4 4 -4 6t4 6l213 295q36 49 71 49t55.5 -22.5t20.5 -52.5q0 -46 -55 -93l-269 -217q-5 -3 -8 -3t-6 3z" />
<glyph unicode="&#x155;" horiz-adv-x="619" d="M653 739l-49 8q-61 0 -126 -63q-86 -85 -110 -186q-10 -44 -20 -89l-86 -398q-12 -5 -27.5 -12t-32.5 -13q-41 -15 -61 -15q-26 0 -26 33q0 17 21 115t46 215.5t41.5 193.5t25 117.5t13.5 60.5q5 24 5 28q0 17 -12 17q-20 0 -40 -20l-84 -82q-5 -5 -9 -5q-22 0 -22 21 q0 20 46 62.5t74.5 67.5t43 38t28 24t28.5 21q37 23 59 23q33 -5 33 -70l-12 -135q0 -21 14 -21q8 0 38.5 41.5t48 62t36.5 42.5t41 39q51 41 100 41q29 0 38 -47q3 -13 3 -25q0 -88 -66 -90zM354 1096q-4 4 -4 6t4 6l213 295q36 49 71 49t55.5 -22.5t20.5 -52.5 q0 -46 -55 -93l-269 -217q-5 -3 -8 -3t-6 3z" />
<glyph unicode="&#x156;" horiz-adv-x="1507" d="M635 641l-131 -6q-14 0 -17 -14l-98 -461q-4 -16 -4 -40.5t18 -42t46 -25.5q38 -12 122 -12q6 0 6 -8l-5 -24q-3 -8 -9 -8h-536q-7 0 -7 8l5 24q4 8 24.5 8t50 4.5t52.5 19.5q49 31 67 119q3 16 6 30l7 35q5 21 12 53t17.5 82t26 122.5t37.5 176t51 241.5q73 339 73 358 q0 49 -41 63.5t-126 14.5h-52q-6 0 -6 9l6 26q5 15 13 15h497q264 0 386 -81q130 -85 130 -273q0 -113 -97 -202q-73 -67 -270 -171q-28 -14 -28 -28t11 -32.5t32 -52t49 -76t62.5 -91t73 -96.5t79.5 -92t82 -78q91 -74 158 -74h26q40 0 46 -9t6 -17v-16q0 -20 -31 -20h-75 q-269 0 -468 264q-59 79 -98.5 142t-65 100t-44.5 67.5t-23 38.5t-10 14q-13 15 -36 15zM778 1362l-50 1q-59 0 -75 -17.5t-19 -33.5l-122 -575q-4 -16 -4 -33.5t51.5 -17.5t114.5 13t120.5 37.5t107.5 60t86 79.5q79 95 79 206q0 131 -79 206q-77 74 -210 74zM814.5 -551 q-31.5 -32 -71.5 -60.5t-60 -28.5q-15 0 -15 27q0 16 21.5 30.5t32 24t29.5 28.5t34 41q37 52 37 95q0 29 -11.5 35t-33 6t-47.5 6.5t-46 20.5q-44 31 -44 96q0 47 27 71q46 42 88.5 42t72.5 -18t50 -47q40 -58 40 -119t-13 -102.5t-36 -78.5t-54.5 -69z" />
<glyph unicode="&#x157;" horiz-adv-x="619" d="M653 739l-49 8q-61 0 -126 -63q-86 -85 -110 -186q-10 -44 -20 -89l-86 -398q-12 -5 -27.5 -12t-32.5 -13q-41 -15 -61 -15q-26 0 -26 33q0 17 21 115t46 215.5t41.5 193.5t25 117.5t13.5 60.5q5 24 5 28q0 17 -12 17q-20 0 -40 -20l-84 -82q-5 -5 -9 -5q-22 0 -22 21 q0 20 46 62.5t74.5 67.5t43 38t28 24t28.5 21q37 23 59 23q33 -5 33 -70l-12 -135q0 -21 14 -21q8 0 38.5 41.5t48 62t36.5 42.5t41 39q51 41 100 41q29 0 38 -47q3 -13 3 -25q0 -88 -66 -90zM276.5 -551q-31.5 -32 -71.5 -60.5t-60 -28.5q-15 0 -15 27q0 16 21.5 30.5 t32 24t29.5 28.5t34 41q37 52 37 95q0 29 -11.5 35t-33 6t-47.5 6.5t-46 20.5q-44 31 -44 96q0 47 27 71q46 42 88.5 42t72.5 -18t50 -47q40 -58 40 -119t-13 -102.5t-36 -78.5t-54.5 -69z" />
<glyph unicode="&#x158;" horiz-adv-x="1507" d="M635 641l-131 -6q-14 0 -17 -14l-98 -461q-4 -16 -4 -40.5t18 -42t46 -25.5q38 -12 122 -12q6 0 6 -8l-5 -24q-3 -8 -9 -8h-536q-7 0 -7 8l5 24q4 8 24.5 8t50 4.5t52.5 19.5q49 31 67 119q3 16 6 30l7 35q5 21 12 53t17.5 82t26 122.5t37.5 176t51 241.5q73 339 73 358 q0 49 -41 63.5t-126 14.5h-52q-6 0 -6 9l6 26q5 15 13 15h497q264 0 386 -81q130 -85 130 -273q0 -113 -97 -202q-73 -67 -270 -171q-28 -14 -28 -28t11 -32.5t32 -52t49 -76t62.5 -91t73 -96.5t79.5 -92t82 -78q91 -74 158 -74h26q40 0 46 -9t6 -17v-16q0 -20 -31 -20h-75 q-269 0 -468 264q-59 79 -98.5 142t-65 100t-44.5 67.5t-23 38.5t-10 14q-13 15 -36 15zM778 1362l-50 1q-59 0 -75 -17.5t-19 -33.5l-122 -575q-4 -16 -4 -33.5t51.5 -17.5t114.5 13t120.5 37.5t107.5 60t86 79.5q79 95 79 206q0 131 -79 206q-77 74 -210 74zM1100 1946h50 l-280 -386h-106v388h50l44 -247z" />
<glyph unicode="&#x159;" horiz-adv-x="619" d="M653 739l-49 8q-61 0 -126 -63q-86 -85 -110 -186q-10 -44 -20 -89l-86 -398q-12 -5 -27.5 -12t-32.5 -13q-41 -15 -61 -15q-26 0 -26 33q0 17 21 115t46 215.5t41.5 193.5t25 117.5t13.5 60.5q5 24 5 28q0 17 -12 17q-20 0 -40 -20l-84 -82q-5 -5 -9 -5q-22 0 -22 21 q0 20 46 62.5t74.5 67.5t43 38t28 24t28.5 21q37 23 59 23q33 -5 33 -70l-12 -135q0 -21 14 -21q8 0 38.5 41.5t48 62t36.5 42.5t41 39q51 41 100 41q29 0 38 -47q3 -13 3 -25q0 -88 -66 -90zM722 1449h50l-280 -386h-106v388h50l44 -247z" />
<glyph unicode="&#x15a;" horiz-adv-x="1130" d="M165 440q0 -194 87 -289.5t271 -95.5q126 0 219 71q99 78 99 198q0 102 -103 211q-29 30 -59.5 58.5t-71 61.5t-81 68.5t-78 73.5t-66.5 80q-65 92 -65 183.5t35 161.5t94 118q122 102 291 102q93 0 142 -20t71 -29t44.5 -9t35 5t22.5 10.5t19 10.5t18 5 q20 -3 19.5 -19.5t-1.5 -26.5t-3 -31q-11 -92 -17 -135t-7.5 -63.5t-5.5 -39.5q-8 -43 -31 -43q-28 0 -30 31q-13 212 -179 279q-56 23 -118 23t-107.5 -19t-80.5 -51q-78 -71 -78 -163q0 -133 154 -260q42 -34 86.5 -73t98 -83.5t97.5 -95.5q102 -116 102 -233t-42.5 -192 t-113.5 -124q-138 -95 -347 -95q-165 0 -335 87q-54 28 -76 46q-24 21 -24 28q8 60 22 117t20.5 92t8.5 48t7 25q10 31 33.5 31t23.5 -35zM692 1594q-4 4 -4 6t4 6l213 295q36 49 71 49t55.5 -22.5t20.5 -52.5q0 -46 -55 -93l-269 -217q-5 -3 -8 -3t-6 3z" />
<glyph unicode="&#x15b;" horiz-adv-x="696" d="M47.5 28q-14.5 18 -16 45t20 46.5t47.5 19.5t59 -15.5t69 -34.5q95 -50 141 -50t77.5 36t31.5 85.5t-19 88.5t-47.5 74.5t-61.5 69t-61 69.5q-67 84 -67 151.5t34 116.5t86 86q111 79 227 79q43 0 66 -27q42 -49 42 -90q0 -90 -66 -90q-28 0 -44 26t-24 44.5t-18 33.5 q-22 37 -49.5 37t-54.5 -13.5t-48 -34.5q-49 -47 -49 -91t18.5 -76t46 -63t59.5 -63.5t59 -69.5q65 -87 65 -179q0 -125 -116 -201q-35 -23 -61.5 -31.5t-40 -13.5t-33.5 -9q-48 -11 -104 -11t-83.5 6.5t-49 18.5t-36 30zM432 1096q-4 4 -4 6t4 6l213 295q36 49 71 49 t55.5 -22.5t20.5 -52.5q0 -46 -55 -93l-269 -217q-5 -3 -8 -3t-6 3z" />
<glyph unicode="&#x15c;" horiz-adv-x="1130" d="M165 440q0 -194 87 -289.5t271 -95.5q126 0 219 71q99 78 99 198q0 102 -103 211q-29 30 -59.5 58.5t-71 61.5t-81 68.5t-78 73.5t-66.5 80q-65 92 -65 183.5t35 161.5t94 118q122 102 291 102q93 0 142 -20t71 -29t44.5 -9t35 5t22.5 10.5t19 10.5t18 5 q20 -3 19.5 -19.5t-1.5 -26.5t-3 -31q-11 -92 -17 -135t-7.5 -63.5t-5.5 -39.5q-8 -43 -31 -43q-28 0 -30 31q-13 212 -179 279q-56 23 -118 23t-107.5 -19t-80.5 -51q-78 -71 -78 -163q0 -133 154 -260q42 -34 86.5 -73t98 -83.5t97.5 -95.5q102 -116 102 -233t-42.5 -192 t-113.5 -124q-138 -95 -347 -95q-165 0 -335 87q-54 28 -76 46q-24 21 -24 28q8 60 22 117t20.5 92t8.5 48t7 25q10 31 33.5 31t23.5 -35zM585 1562h-50l280 386h106v-388h-50l-44 247z" />
<glyph unicode="&#x15d;" horiz-adv-x="696" d="M47.5 28q-14.5 18 -16 45t20 46.5t47.5 19.5t59 -15.5t69 -34.5q95 -50 141 -50t77.5 36t31.5 85.5t-19 88.5t-47.5 74.5t-61.5 69t-61 69.5q-67 84 -67 151.5t34 116.5t86 86q111 79 227 79q43 0 66 -27q42 -49 42 -90q0 -90 -66 -90q-28 0 -44 26t-24 44.5t-18 33.5 q-22 37 -49.5 37t-54.5 -13.5t-48 -34.5q-49 -47 -49 -91t18.5 -76t46 -63t59.5 -63.5t59 -69.5q65 -87 65 -179q0 -125 -116 -201q-35 -23 -61.5 -31.5t-40 -13.5t-33.5 -9q-48 -11 -104 -11t-83.5 6.5t-49 18.5t-36 30zM385 1065h-50l280 386h106v-388h-50l-44 247z" />
<glyph unicode="&#x15e;" horiz-adv-x="1130" d="M326 -532q-56 0 -56 40q0 4 10 14.5t26 13.5q138 26 160.5 37.5t37.5 26.5q34 34 34 67.5t-12.5 53t-30.5 33.5q-33 26 -78 31l47 216h63l-33 -155q112 -30 142 -109q9 -22 9 -61t-29 -79.5t-75 -66.5q-81 -47 -215 -62zM165 440q0 -194 87 -289.5t271 -95.5 q126 0 219 71q99 78 99 198q0 102 -103 211q-29 30 -59.5 58.5t-71 61.5t-81 68.5t-78 73.5t-66.5 80q-65 92 -65 183.5t35 161.5t94 118q122 102 291 102q93 0 142 -20t71 -29t44.5 -9t35 5t22.5 10.5t19 10.5t18 5q20 -3 19.5 -19.5t-1.5 -26.5t-3 -31q-11 -92 -17 -135 t-7.5 -63.5t-5.5 -39.5q-8 -43 -31 -43q-28 0 -30 31q-13 212 -179 279q-56 23 -118 23t-107.5 -19t-80.5 -51q-78 -71 -78 -163q0 -133 154 -260q42 -34 86.5 -73t98 -83.5t97.5 -95.5q102 -116 102 -233t-42.5 -192t-113.5 -124q-138 -95 -347 -95q-165 0 -335 87 q-54 28 -76 46q-24 21 -24 28q8 60 22 117t20.5 92t8.5 48t7 25q10 31 33.5 31t23.5 -35z" />
<glyph unicode="&#x15f;" horiz-adv-x="696" d="M47.5 28q-14.5 18 -16 45t20 46.5t47.5 19.5t59 -15.5t69 -34.5q95 -50 141 -50t77.5 36t31.5 85.5t-19 88.5t-47.5 74.5t-61.5 69t-61 69.5q-67 84 -67 151.5t34 116.5t86 86q111 79 227 79q43 0 66 -27q42 -49 42 -90q0 -90 -66 -90q-28 0 -44 26t-24 44.5t-18 33.5 q-22 37 -49.5 37t-54.5 -13.5t-48 -34.5q-49 -47 -49 -91t18.5 -76t46 -63t59.5 -63.5t59 -69.5q65 -87 65 -179q0 -125 -116 -201q-35 -23 -61.5 -31.5t-40 -13.5t-33.5 -9q-48 -11 -104 -11t-83.5 6.5t-49 18.5t-36 30zM156 -532q-56 0 -56 40q0 4 10 14.5t26 13.5 q138 26 160.5 37.5t37.5 26.5q34 34 34 67.5t-12.5 53t-30.5 33.5q-33 26 -78 31l45 202h63l-31 -141q112 -30 142 -109q9 -22 9 -61t-29 -79.5t-75 -66.5q-81 -47 -215 -62z" />
<glyph unicode="&#x160;" horiz-adv-x="1130" d="M165 440q0 -194 87 -289.5t271 -95.5q126 0 219 71q99 78 99 198q0 102 -103 211q-29 30 -59.5 58.5t-71 61.5t-81 68.5t-78 73.5t-66.5 80q-65 92 -65 183.5t35 161.5t94 118q122 102 291 102q93 0 142 -20t71 -29t44.5 -9t35 5t22.5 10.5t19 10.5t18 5 q20 -3 19.5 -19.5t-1.5 -26.5t-3 -31q-11 -92 -17 -135t-7.5 -63.5t-5.5 -39.5q-8 -43 -31 -43q-28 0 -30 31q-13 212 -179 279q-56 23 -118 23t-107.5 -19t-80.5 -51q-78 -71 -78 -163q0 -133 154 -260q42 -34 86.5 -73t98 -83.5t97.5 -95.5q102 -116 102 -233t-42.5 -192 t-113.5 -124q-138 -95 -347 -95q-165 0 -335 87q-54 28 -76 46q-24 21 -24 28q8 60 22 117t20.5 92t8.5 48t7 25q10 31 33.5 31t23.5 -35zM1071 1946h50l-280 -386h-106v388h50l44 -247z" />
<glyph unicode="&#x161;" horiz-adv-x="696" d="M831 1449h50l-280 -386h-106v388h50l44 -247zM47.5 28q-14.5 18 -16 45t20 46.5t47.5 19.5t59 -15.5t69 -34.5q95 -50 141 -50t77.5 36t31.5 85.5t-19 88.5t-47.5 74.5t-61.5 69t-61 69.5q-67 84 -67 151.5t34 116.5t86 86q111 79 227 79q43 0 66 -27q42 -49 42 -90 q0 -90 -66 -90q-28 0 -44 26t-24 44.5t-18 33.5q-22 37 -49.5 37t-54.5 -13.5t-48 -34.5q-49 -47 -49 -91t18.5 -76t46 -63t59.5 -63.5t59 -69.5q65 -87 65 -179q0 -125 -116 -201q-35 -23 -61.5 -31.5t-40 -13.5t-33.5 -9q-48 -11 -104 -11t-83.5 6.5t-49 18.5t-36 30z" />
<glyph unicode="&#x162;" horiz-adv-x="1502" d="M506 -532q-56 0 -56 40q0 4 10 14.5t26 13.5q138 26 160.5 37.5t37.5 26.5q34 34 34 67.5t-12.5 53t-30.5 33.5q-33 26 -78 31l48 215h63l-34 -154q112 -30 142 -109q9 -22 9 -61t-29 -79.5t-75 -66.5q-81 -47 -215 -62zM340 32q0 8 10 8h26q92 0 158 50q49 37 60 90 l236 1107q1 3 1 8q0 20 -31 20h-294q-75 0 -136 -72q-61 -71 -75 -157q-3 -15 -7.5 -16t-6.5 -1h-23q-7 0 -7 7q47 232 62 300l9 43q5 30 26 30q7 0 12.5 -6t13.5 -13q21 -20 61 -20h1051q42 0 54.5 13.5t17.5 19.5t15 6q26 0 26 -23q0 -4 -7 -38q-20 -92 -59 -282l-6 -27 q-1 -10 -11 -10h-13q-14 0 -25 71.5t-22 102.5q-24 72 -78 72h-315q-13 0 -23 -3.5t-15 -24.5q-44 -208 -78 -366.5t-59 -276t-42 -198.5t-28.5 -133.5t-17.5 -81.5t-9 -43q-5 -22 -5 -37t21 -35t51 -36q75 -40 148 -40h29q8 0 8 -8v-24q0 -8 -8 -8h-687q-8 0 -8 8v24z" />
<glyph unicode="&#x163;" horiz-adv-x="580" d="M227 -27q-89 0 -89 81q0 17 4 34l154 727q2 10 2 16q0 15 -15 15h-45q-26 0 -26 18q0 19 14.5 24t24.5 7t24.5 7.5t38.5 24t48.5 43t48.5 51.5t45 53q54 65 67 78q22 -5 35 -16q-8 -21 -21 -49t-25 -57q-31 -71 -36 -104v-4q0 -22 24 -22h130l-11 -54h-145q-27 0 -34 -35 l-139 -650q-5 -21 -7 -33.5t-3.5 -19.5t-1.5 -10v-4q0 -23 22 -23q38 0 85 47l111 111l14 -15q-14 -43 -113 -134q-113 -107 -181 -107zM57 -532q-56 0 -56 40q0 4 10 14.5t26 13.5q138 26 160.5 37.5t37.5 26.5q34 34 34 67.5t-12.5 53t-30.5 33.5q-33 26 -78 31l45 202h63 l-31 -141q112 -30 142 -109q9 -22 9 -61t-29 -79.5t-75 -66.5q-81 -47 -215 -62z" />
<glyph unicode="&#x164;" horiz-adv-x="1424" d="M290 32q0 8 9 8h28q91 0 156 50q50 37 61 90l236 1107q1 3 1 8q0 20 -31 20h-294q-75 0 -137 -72q-60 -71 -74 -157q-3 -15 -7.5 -16t-6.5 -1h-23q-7 0 -7 7q47 232 62 300l9 43q5 30 26 30q7 0 12.5 -6t13.5 -13q21 -20 61 -20h1051q42 0 54.5 13.5t17.5 19.5t15 6 q26 0 26 -23q0 -4 -8 -38q-19 -92 -58 -282l-6 -27q-1 -10 -11 -10h-13q-14 0 -25 71.5t-21 102.5q-25 72 -79 72h-315q-13 0 -23 -3.5t-15 -24.5q-44 -208 -78 -366.5t-59 -276t-42 -198.5t-28.5 -133.5t-17.5 -81.5t-9 -43q-5 -22 -5 -37t21 -35t51 -36q75 -40 148 -40h29 q8 0 8 -8v-24q0 -8 -8 -8h-687q-8 0 -8 8v24zM1211 1946h50l-280 -386h-106v388h50l44 -247z" />
<glyph unicode="&#x165;" horiz-adv-x="873" d="M227 -27q-89 0 -89 81q0 17 4 34l154 727q2 10 2 16q0 15 -15 15h-45q-26 0 -26 18q0 19 14.5 24t24.5 7t24.5 7.5t38.5 24t48.5 43t48.5 51.5t45 53q54 65 67 78q22 -5 35 -16q-8 -21 -21 -49t-25 -57q-31 -71 -36 -104v-4q0 -22 24 -22h130l-11 -54h-145q-27 0 -34 -35 l-139 -650q-5 -21 -7 -33.5t-3.5 -19.5t-1.5 -10v-4q0 -23 22 -23q38 0 85 47l111 111l14 -15q-14 -43 -113 -134q-113 -107 -181 -107zM732 960q-27 0 -27 32q0 15 28 32.5t62 41t61 52.5q61 67 61 149q0 36 -20 75q-39 72 -39 107q0 20 13 44q29 49 60 49t51.5 -11.5 t36.5 -30.5q34 -39 34 -100t-23.5 -128.5t-64.5 -125.5q-82 -113 -223 -183q-6 -3 -10 -3z" />
<glyph unicode="&#x166;" horiz-adv-x="1424" d="M290 32q0 8 10 8h26q92 0 158 50q49 37 60 90l105 495h-290q-21 0 -21 25l5 25q5 25 22 25h300l115 537q1 3 1 8q0 20 -31 20h-294q-75 0 -136 -72q-61 -71 -75 -157q-3 -15 -7.5 -16t-6.5 -1h-23q-7 0 -7 7q47 232 62 300l9 43q5 30 26 30q7 0 12.5 -6t13.5 -13 q21 -20 61 -20h1051q42 0 54.5 13.5t17.5 19.5t15 6q26 0 26 -23q0 -4 -7 -38q-20 -92 -59 -282l-6 -27q-1 -10 -11 -10h-13q-14 0 -25 71.5t-22 102.5q-24 72 -78 72h-315q-13 0 -23 -3.5t-15 -24.5q-35 -167 -63.5 -298.5t-51.5 -238.5h331q21 0 21 -20l-5 -30 q-5 -25 -22 -25h-341l-107 -507q-1 -3 -1 -17.5t21 -34.5t51 -36q75 -40 148 -40h29q8 0 8 -8v-24q0 -8 -8 -8h-687q-8 0 -8 8v24z" />
<glyph unicode="&#x167;" horiz-adv-x="580" d="M92 425q-21 0 -21 20v5l5 25q5 25 22 25h131l67 315q2 10 2 16q0 15 -15 15h-45q-26 0 -26 18q0 19 14.5 24t24.5 7t24.5 7.5t38.5 24t48.5 43t48.5 51.5t45 53q54 65 67 78q22 -5 35 -16q-8 -21 -21 -49t-25 -57q-31 -71 -36 -104v-4q0 -22 24 -22h130l-11 -54h-145 q-27 0 -34 -35l-67 -311h159q8 0 16 -4t6 -16l-6 -30q-5 -25 -22 -25h-169q-68 -320 -68 -337t22 -17q38 0 85 47l111 111l14 -15q-14 -43 -113 -134q-113 -107 -181 -107q-89 0 -89 81q0 24 75 371h-121z" />
<glyph unicode="&#x168;" horiz-adv-x="1618" d="M1763 1410q15 0 15 -13v-11q0 -12 -29 -16t-43.5 -7t-33 -8t-32.5 -15q-30 -22 -43 -80l-31 -143q-8 -35 -22.5 -105t-33.5 -160q-52 -248 -79.5 -375t-78.5 -212.5t-126 -144.5q-153 -120 -380 -120q-229 0 -404 104q-191 115 -191 299q0 45 72.5 379t82.5 382l15 72 q7 34 7 51.5t-16.5 36t-41.5 28.5q-45 18 -113 18q-6 0 -6 8l5 24q2 8 10 8h521q6 0 6 -8l-5 -24q-2 -8 -23.5 -8t-51 -4.5t-52.5 -19.5q-48 -31 -66 -119l-155 -719q-9 -42 -9 -102.5t33.5 -126.5t87.5 -113q112 -96 259 -96q458 0 552 439l122 572q16 70 16 126 q0 163 -158 163h-28q-21 0 -21 15v10q0 15 19 15h450zM1356.5 1878.5q4.5 20.5 4.5 35t16 14.5h19q14 0 14 -37t-11 -69t-32 -56q-48 -56 -119 -56q-57 0 -123.5 35.5t-103.5 52t-63.5 16.5t-42 -11.5t-28.5 -29.5q-30 -42 -30 -89q0 -12 -16 -12h-21q-8 0 -8 31t11 70.5 t31 68.5q42 60 114 60q55 0 128 -36t112.5 -52.5t68 -16.5t42.5 12.5t23.5 30.5t14 38.5z" />
<glyph unicode="&#x169;" horiz-adv-x="1052" d="M988 876v-6q0 -3 -153 -719q0 -32 23 -32q15 0 49 35.5t91 93.5l24 -25q-13 -26 -78 -86q-177 -164 -236 -164q-37 0 -37 63q0 30 8 67l73 336q0 11 -8.5 11t-16 -8.5t-23 -26t-42 -46t-53.5 -58.5q-76 -84 -95 -106.5t-38.5 -45t-42.5 -47.5t-48.5 -50t-50.5 -44 q-57 -45 -90.5 -45t-52.5 26.5t-19 46.5v24q0 6 2 12l147 692v4q0 22 -25 22q-43 0 -130 -95q-19 -20 -27 -27l-19 19q20 39 114 115q106 86 160 86q30 0 52.5 -23.5t22.5 -50t-141 -691.5v-4q0 -22 25 -22q33 0 124 108q23 27 49 57l52 60q56 66 100 119q101 123 120 210 l43 199q7 40 32 40h91q24 0 24 -24zM949.5 1318.5q4.5 20.5 4.5 35t16 14.5h19q14 0 14 -37t-11 -69t-32 -56q-48 -56 -119 -56q-57 0 -123.5 35.5t-103.5 52t-63.5 16.5t-42 -11.5t-28.5 -29.5q-30 -42 -30 -89q0 -12 -16 -12h-21q-8 0 -8 31t11 70.5t31 68.5q42 60 114 60 q55 0 128 -36t112.5 -52.5t68 -16.5t42.5 12.5t23.5 30.5t14 38.5z" />
<glyph unicode="&#x16a;" horiz-adv-x="1618" d="M1763 1410q15 0 15 -13v-11q0 -12 -29 -16t-43.5 -7t-33 -8t-32.5 -15q-30 -22 -43 -80l-31 -143q-8 -35 -22.5 -105t-33.5 -160q-52 -248 -79.5 -375t-78.5 -212.5t-126 -144.5q-153 -120 -380 -120q-229 0 -404 104q-191 115 -191 299q0 45 72.5 379t82.5 382l15 72 q7 34 7 51.5t-16.5 36t-41.5 28.5q-45 18 -113 18q-6 0 -6 8l5 24q2 8 10 8h521q6 0 6 -8l-5 -24q-2 -8 -23.5 -8t-51 -4.5t-52.5 -19.5q-48 -31 -66 -119l-155 -719q-9 -42 -9 -102.5t33.5 -126.5t87.5 -113q112 -96 259 -96q458 0 552 439l122 572q16 70 16 126 q0 163 -158 163h-28q-21 0 -21 15v10q0 15 19 15h450zM819 1849h627l-27 -99h-627z" />
<glyph unicode="&#x16b;" horiz-adv-x="1052" d="M988 876v-6q0 -3 -153 -719q0 -32 23 -32q15 0 49 35.5t91 93.5l24 -25q-13 -26 -78 -86q-177 -164 -236 -164q-37 0 -37 63q0 30 8 67l73 336q0 11 -8.5 11t-16 -8.5t-23 -26t-42 -46t-53.5 -58.5q-76 -84 -95 -106.5t-38.5 -45t-42.5 -47.5t-48.5 -50t-50.5 -44 q-57 -45 -90.5 -45t-52.5 26.5t-19 46.5v24q0 6 2 12l147 692v4q0 22 -25 22q-43 0 -130 -95q-19 -20 -27 -27l-19 19q20 39 114 115q106 86 160 86q30 0 52.5 -23.5t22.5 -50t-141 -691.5v-4q0 -22 25 -22q33 0 124 108q23 27 49 57l52 60q56 66 100 119q101 123 120 210 l43 199q7 40 32 40h91q24 0 24 -24zM392 1307h627l-27 -99h-627z" />
<glyph unicode="&#x16c;" horiz-adv-x="1618" d="M1763 1410q15 0 15 -13v-11q0 -12 -29 -16t-43.5 -7t-33 -8t-32.5 -15q-30 -22 -43 -80l-31 -143q-8 -35 -22.5 -105t-33.5 -160q-52 -248 -79.5 -375t-78.5 -212.5t-126 -144.5q-153 -120 -380 -120q-229 0 -404 104q-191 115 -191 299q0 45 72.5 379t82.5 382l15 72 q7 34 7 51.5t-16.5 36t-41.5 28.5q-45 18 -113 18q-6 0 -6 8l5 24q2 8 10 8h521q6 0 6 -8l-5 -24q-2 -8 -23.5 -8t-51 -4.5t-52.5 -19.5q-48 -31 -66 -119l-155 -719q-9 -42 -9 -102.5t33.5 -126.5t87.5 -113q112 -96 259 -96q458 0 552 439l122 572q16 70 16 126 q0 163 -158 163h-28q-21 0 -21 15v10q0 15 19 15h450zM1099 1638q-56 0 -101 26t-77 70q-64 89 -64 216h31q0 -87 69 -141q65 -52 159 -52q76 0 162 67q87 67 87 126h33q0 -112 -94 -212q-95 -100 -205 -100z" />
<glyph unicode="&#x16d;" horiz-adv-x="1052" d="M988 876v-6q0 -3 -153 -719q0 -32 23 -32q15 0 49 35.5t91 93.5l24 -25q-13 -26 -78 -86q-177 -164 -236 -164q-37 0 -37 63q0 30 8 67l73 336q0 11 -8.5 11t-16 -8.5t-23 -26t-42 -46t-53.5 -58.5q-76 -84 -95 -106.5t-38.5 -45t-42.5 -47.5t-48.5 -50t-50.5 -44 q-57 -45 -90.5 -45t-52.5 26.5t-19 46.5v24q0 6 2 12l147 692v4q0 22 -25 22q-43 0 -130 -95q-19 -20 -27 -27l-19 19q20 39 114 115q106 86 160 86q30 0 52.5 -23.5t22.5 -50t-141 -691.5v-4q0 -22 25 -22q33 0 124 108q23 27 49 57l52 60q56 66 100 119q101 123 120 210 l43 199q7 40 32 40h91q24 0 24 -24zM702 1096q-56 0 -101 26t-77 70q-64 89 -64 216h31q0 -87 69 -141q65 -52 159 -52q76 0 162 67q87 67 87 126h33q0 -112 -94 -212q-95 -100 -205 -100z" />
<glyph unicode="&#x16e;" horiz-adv-x="1618" d="M1763 1410q15 0 15 -13v-11q0 -12 -29 -16t-43.5 -7t-33 -8t-32.5 -15q-30 -22 -43 -80l-31 -143q-8 -35 -22.5 -105t-33.5 -160q-52 -248 -79.5 -375t-78.5 -212.5t-126 -144.5q-153 -120 -380 -120q-229 0 -404 104q-191 115 -191 299q0 45 72.5 379t82.5 382l15 72 q7 34 7 51.5t-16.5 36t-41.5 28.5q-45 18 -113 18q-6 0 -6 8l5 24q2 8 10 8h521q6 0 6 -8l-5 -24q-2 -8 -23.5 -8t-51 -4.5t-52.5 -19.5q-48 -31 -66 -119l-155 -719q-9 -42 -9 -102.5t33.5 -126.5t87.5 -113q112 -96 259 -96q458 0 552 439l122 572q16 70 16 126 q0 163 -158 163h-28q-21 0 -21 15v10q0 15 19 15h450zM927 1799q0 38 14.5 71.5t39.5 58.5q55 55 131 55q77 0 130 -55q54 -55 54 -129q0 -76 -54 -130t-130 -54q-75 0 -131 54q-54 53 -54 129zM1011 1845.5q-9 -20.5 -9 -44t9 -44.5t24 -36q34 -34 69.5 -34t56 9t36.5 25 q33 33 33 68.5t-9 56t-24 35.5q-34 34 -69 34t-56 -9t-36.5 -24.5t-24.5 -36z" />
<glyph unicode="&#x16f;" horiz-adv-x="1052" d="M988 876v-6q0 -3 -153 -719q0 -32 23 -32q15 0 49 35.5t91 93.5l24 -25q-13 -26 -78 -86q-177 -164 -236 -164q-37 0 -37 63q0 30 8 67l73 336q0 11 -8.5 11t-16 -8.5t-23 -26t-42 -46t-53.5 -58.5q-76 -84 -95 -106.5t-38.5 -45t-42.5 -47.5t-48.5 -50t-50.5 -44 q-57 -45 -90.5 -45t-52.5 26.5t-19 46.5v24q0 6 2 12l147 692v4q0 22 -25 22q-43 0 -130 -95q-19 -20 -27 -27l-19 19q20 39 114 115q106 86 160 86q30 0 52.5 -23.5t22.5 -50t-141 -691.5v-4q0 -22 25 -22q33 0 124 108q23 27 49 57l52 60q56 66 100 119q101 123 120 210 l43 199q7 40 32 40h91q24 0 24 -24zM520 1262q0 38 14.5 71.5t39.5 58.5q55 55 131 55q77 0 130 -55q54 -55 54 -129q0 -76 -54 -130t-130 -54q-75 0 -131 54q-54 53 -54 129zM604 1308.5q-9 -20.5 -9 -44t9 -44.5t24 -36q34 -34 69.5 -34t56 9t36.5 25q33 33 33 68.5t-9 56 t-24 35.5q-34 34 -69 34t-56 -9t-36.5 -24.5t-24.5 -36z" />
<glyph unicode="&#x170;" horiz-adv-x="1618" d="M1763 1410q15 0 15 -13v-11q0 -12 -29 -16t-43.5 -7t-33 -8t-32.5 -15q-30 -22 -43 -80l-31 -143q-8 -35 -22.5 -105t-33.5 -160q-52 -248 -79.5 -375t-78.5 -212.5t-126 -144.5q-153 -120 -380 -120q-229 0 -404 104q-191 115 -191 299q0 45 72.5 379t82.5 382l15 72 q7 34 7 51.5t-16.5 36t-41.5 28.5q-45 18 -113 18q-6 0 -6 8l5 24q2 8 10 8h521q6 0 6 -8l-5 -24q-2 -8 -23.5 -8t-51 -4.5t-52.5 -19.5q-48 -31 -66 -119l-155 -719q-9 -42 -9 -102.5t33.5 -126.5t87.5 -113q112 -96 259 -96q458 0 552 439l122 572q16 70 16 126 q0 163 -158 163h-28q-21 0 -21 15v10q0 15 19 15h450zM926 1594q-4 4 -4 6t4 6l213 295q36 49 71 49t55.5 -22.5t20.5 -52.5q0 -46 -55 -93l-269 -217q-5 -3 -8 -3t-6 3zM1196 1594q-4 4 -4 6t4 6l213 295q36 49 71 49t55.5 -22.5t20.5 -52.5q0 -46 -55 -93l-269 -217 q-5 -3 -8 -3t-6 3z" />
<glyph unicode="&#x171;" horiz-adv-x="1052" d="M988 876v-6q0 -3 -153 -719q0 -32 23 -32q15 0 49 35.5t91 93.5l24 -25q-13 -26 -78 -86q-177 -164 -236 -164q-37 0 -37 63q0 30 8 67l73 336q0 11 -8.5 11t-16 -8.5t-23 -26t-42 -46t-53.5 -58.5q-76 -84 -95 -106.5t-38.5 -45t-42.5 -47.5t-48.5 -50t-50.5 -44 q-57 -45 -90.5 -45t-52.5 26.5t-19 46.5v24q0 6 2 12l147 692v4q0 22 -25 22q-43 0 -130 -95q-19 -20 -27 -27l-19 19q20 39 114 115q106 86 160 86q30 0 52.5 -23.5t22.5 -50t-141 -691.5v-4q0 -22 25 -22q33 0 124 108q23 27 49 57l52 60q56 66 100 119q101 123 120 210 l43 199q7 40 32 40h91q24 0 24 -24zM469 1096q-4 4 -4 6t4 6l213 295q36 49 71 49t55.5 -22.5t20.5 -52.5q0 -46 -55 -93l-269 -217q-5 -3 -8 -3t-6 3zM739 1096q-4 4 -4 6t4 6l213 295q36 49 71 49t55.5 -22.5t20.5 -52.5q0 -46 -55 -93l-269 -217q-5 -3 -8 -3t-6 3z" />
<glyph unicode="&#x172;" horiz-adv-x="1618" d="M1763 1410q15 0 15 -13v-11q0 -12 -29 -16t-43.5 -7t-33 -8t-32.5 -15q-30 -22 -43 -80l-31 -143q-8 -35 -22.5 -105t-33.5 -160q-52 -248 -79.5 -375t-78.5 -212.5t-126 -144.5q-153 -120 -380 -120q-229 0 -404 104q-191 115 -191 299q0 45 72.5 379t82.5 382l15 72 q7 34 7 51.5t-16.5 36t-41.5 28.5q-45 18 -113 18q-6 0 -6 8l5 24q2 8 10 8h521q6 0 6 -8l-5 -24q-2 -8 -23.5 -8t-51 -4.5t-52.5 -19.5q-48 -31 -66 -119l-155 -719q-9 -42 -9 -102.5t33.5 -126.5t87.5 -113q112 -96 259 -96q458 0 552 439l122 572q16 70 16 126 q0 163 -158 163h-28q-21 0 -21 15v10q0 15 19 15h450zM932 0q-162 -181 -162 -305q0 -66 29 -100q52 -60 129 -60q53 0 79.5 10.5t34.5 10.5t8 -12t-13.5 -29.5t-35.5 -30.5q-46 -30 -100 -30t-99 13t-79 39q-71 54 -71 152q0 88 76 192q62 86 152 150h52z" />
<glyph unicode="&#x173;" horiz-adv-x="1052" d="M988 876v-6q0 -3 -153 -719q0 -32 23 -32q15 0 49 35.5t91 93.5l24 -25q-13 -26 -78 -86q-177 -164 -236 -164q-37 0 -37 63q0 30 8 67l73 336q0 11 -8.5 11t-16 -8.5t-23 -26t-42 -46t-53.5 -58.5q-76 -84 -95 -106.5t-38.5 -45t-42.5 -47.5t-48.5 -50t-50.5 -44 q-57 -45 -90.5 -45t-52.5 26.5t-19 46.5v24q0 6 2 12l147 692v4q0 22 -25 22q-43 0 -130 -95q-19 -20 -27 -27l-19 19q20 39 114 115q106 86 160 86q30 0 52.5 -23.5t22.5 -50t-141 -691.5v-4q0 -22 25 -22q33 0 124 108q23 27 49 57l52 60q56 66 100 119q101 123 120 210 l43 199q7 40 32 40h91q24 0 24 -24zM754 0q-162 -181 -162 -305q0 -66 29 -100q52 -60 129 -60q53 0 79.5 10.5t34.5 10.5t8 -12t-13.5 -29.5t-35.5 -30.5q-46 -30 -100 -30t-99 13t-79 39q-71 54 -71 152q0 88 76 192q62 86 152 150h52z" />
<glyph unicode="&#x174;" horiz-adv-x="2162" d="M329 -27q-20 0 -20 26l96 1233l5 58v7q0 73 -139 73q-21 0 -21 17t6 20t19 3h476q14 0 17 -8t3 -10q0 -22 -36.5 -22t-67 -11t-49.5 -29q-32 -32 -38.5 -108.5t-15 -181t-16.5 -212.5q-19 -260 -27.5 -355.5t-9.5 -119.5t-2.5 -55.5t11.5 -31.5q6 0 16 10 q170 229 284 378q182 240 360 477q36 49 36 88.5t-13 65.5t-34 45q-44 40 -98 40q-23 0 -23 20t14 20h505q16 0 16 -20t-22 -20h-18q-138 0 -153 -80q-6 -185 -22.5 -532.5t-20.5 -470.5q0 -13 6 -13q11 0 29 28l31 44q84 120 172 239t135 188.5t67 97t43 59.5t47 65.5 t45 62t36.5 50t21.5 29t13.5 19t16.5 23.5q19 28 33 48.5t14 52.5t-29.5 61t-74 29t-44.5 20t20 20h368q25 0 25 -20t-24 -20q-69 0 -90 -27q-177 -244 -394 -548q-367 -516 -571 -798q-18 -24 -42 -24h-23q-20 0 -20 26l1 23q9 188 16 372t12 302t9 165.5t4 76.5v38 q0 43 -11 43t-20.5 -12.5t-59 -76t-139 -182.5t-179 -239l-179 -240t-179.5 -237l-29 -39q-15 -20 -51 -20h-24zM1180 1562h-50l280 386h106v-388h-50l-44 247z" />
<glyph unicode="&#x175;" horiz-adv-x="1376" d="M783 114q0 -39 29 -39q42 0 168 139q128 140 172 234q49 83 78 217q8 40 8 56t-7.5 22.5t-16.5 15.5q-25 23 -25 44.5t8.5 39.5t22.5 31q31 27 59 27t45.5 -12t32.5 -33q35 -47 35 -83t-5.5 -60t-13.5 -49q-28 -86 -93.5 -172t-125 -153t-125 -133t-127.5 -118 q-137 -116 -199 -116q-71 0 -71 125q0 25 4 43l33 220q0 11 -8.5 11t-16 -8.5t-23.5 -26.5t-48 -56.5t-68.5 -80t-76.5 -82.5t-80 -73q-88 -73 -148 -73q-30 0 -52.5 23.5t-22.5 49t3 39.5l104 693q0 26 -25 26q-43 0 -131 -95q-18 -20 -26 -27l-19 19q20 39 113 115 q107 86 161 86q30 0 52.5 -23.5t22.5 -49.5t-3 -39l-104 -693v-4q0 -9 8.5 -15.5t22 -6.5t43 24t64.5 61t73 82t73 89q103 129 117.5 151t20.5 51l48 333q0 20 11 30t19 10h100q22 -3 22 -29l-110 -731q-2 -8 -2 -14v-12zM725 1065h-50l280 386h106v-388h-50l-44 247z" />
<glyph unicode="&#x176;" horiz-adv-x="1484" d="M495 0q-20 0 -20 15v12q0 13 20 13h60q71 0 126 54q40 38 49.5 90t19.5 99.5t18 88.5q18 84 32 179q0 16 -5.5 27t-18 40t-34.5 80.5t-53 123t-73.5 170t-79 182t-51.5 109t-33 44.5q-38 42 -69.5 42t-31.5 13v13q0 11 19 14h441q19 0 19 -14v-13q0 -13 -16 -13h-38 q-49 0 -72 -41q-9 -15 -9 -38t23 -74.5t49.5 -112.5t52.5 -123q67 -159 93 -217t29 -65.5t6 -14.5q9 -17 18 -17q15 0 36 26t39.5 47.5t34.5 40.5t27 32t57 67t124.5 149.5t123 147t51.5 71.5t7 47t-20 51t-60 24h-37q-20 0 -20 14v13q0 14 20 14h370q7 0 11 -4.5t4 -7.5 v-13q0 -11 -6 -14t-16 -5q-35 -8 -51.5 -18.5t-36.5 -30t-40 -41.5q-29 -31 -116.5 -136.5t-223.5 -265.5t-262 -311q-18 -92 -38 -181q-42 -192 -42 -234.5t44 -75t125 -32.5h47q18 0 18 -13v-14q0 -13 -16 -13h-625zM964 1562h-50l280 386h106v-388h-50l-44 247z" />
<glyph unicode="&#x177;" horiz-adv-x="1028" d="M194 -543q25 25 72.5 126.5t67.5 146.5t38 90q85 212 85 321q0 207 -15 289q-46 245 -62.5 282.5t-28.5 53t-28 17.5q-19 -3 -55 -51q-69 -92 -82 -92q-6 0 -12 5t-6 19t21 44t48.5 60.5t53.5 56t32 33t14.5 14t19.5 12.5q26 16 43 16q36 0 46 -19q145 -249 145 -695 q0 -36 19 -49l78 137q117 199 168 347q19 55 19 81.5t-5 39t-12 22.5q-16 27 -16 43.5t6 33t18 29.5q26 30 59.5 30t52.5 -9.5t30 -26.5q20 -31 20 -80t-24.5 -103t-63 -119.5t-86.5 -138t-95 -143.5q-119 -180 -154 -247q-35 -79 -78 -188.5t-105 -246.5l-38 -84 q-2 -4 -4 -11t-4 -15q-6 -16 -6 -31.5t7 -26.5q13 -19 69 -18q9 1 25.5 1t44.5 -1l-7 -32h-469l7 32q71 0 96.5 10t50.5 35zM545 1065h-50l280 386h106v-388h-50l-44 247z" />
<glyph unicode="&#x178;" horiz-adv-x="1484" d="M395 0q-20 0 -20 15v12q0 13 20 13h60q71 0 126 54q40 38 49.5 90t19.5 99.5t18 88.5q18 84 32 179q0 16 -5.5 27t-18 40t-34.5 80.5t-53 123t-73.5 170t-79 182t-51.5 109t-33 44.5q-38 42 -69.5 42t-31.5 13v13q0 11 19 14h441q19 0 19 -14v-13q0 -13 -16 -13h-38 q-49 0 -72 -41q-9 -15 -9 -38t23 -74.5t49.5 -112.5t52.5 -123q67 -159 93 -217t29 -65.5t6 -14.5q9 -17 18 -17q15 0 36 26t39.5 47.5t34.5 40.5t27 32t57 67t124.5 149.5t123 147t51.5 71.5t7 47t-20 51t-60 24h-37q-20 0 -20 14v13q0 14 20 14h370q7 0 11 -4.5t4 -7.5 v-13q0 -11 -6 -14t-16 -5q-35 -8 -51.5 -18.5t-36.5 -30t-40 -41.5q-29 -31 -116.5 -136.5t-223.5 -265.5t-262 -311q-18 -92 -38 -181q-42 -192 -42 -234.5t44 -75t125 -32.5h47q18 0 18 -13v-14q0 -13 -16 -13h-625zM1289 1759q-28 -28 -60 -28t-50.5 7.5t-31.5 20.5 q-29 29 -29 70q0 67 61 93q18 8 50 8t60 -29.5t28 -71.5t-28 -70zM929.5 1759q-28.5 -28 -60.5 -28t-50 7.5t-32 20.5q-28 29 -28 70q0 66 60 93q18 8 39 8q42 0 63 -21q37 -37 37 -79.5t-28.5 -70.5z" />
<glyph unicode="&#x179;" horiz-adv-x="1479" d="M47 0q-27 0 -27 28t10.5 42t23.5 27l1097 1151q70 70 70 88.5t-37 18.5h-417q-109 0 -165 -25q-96 -44 -158 -135q-12 -17 -41 -78t-36 -71q-14 -21 -27 -21q-28 0 -28 13q1 4 3 13.5t6.5 29.5t12.5 57t20.5 92.5t23 102.5t13.5 54.5t10 12.5q13 9 58 9h998q32 0 32 -31 q0 -26 -14 -40l-1084 -1139q-84 -84 -84 -103.5t12 -20.5h624q229 0 374 271q7 11 12.5 23t12.5 22q16 23 38.5 23t22.5 -17q0 -7 -3 -17l-97 -352q-9 -28 -37 -28h-1219zM902 1594q-4 4 -4 6t4 6l213 295q36 49 71 49t55.5 -22.5t20.5 -52.5q0 -46 -55 -93l-269 -217 q-5 -3 -8 -3t-6 3z" />
</font>
</defs>
</svg>
